<svg xmlns="http://www.w3.org/2000/svg" viewBox="0 0 342.33 131.63"><defs><style>.cls-1{fill:#fff;}</style></defs><g id="Layer_2" data-name="Layer 2"><g id="Layer_1-2" data-name="Layer 1"><path class="cls-1" d="M152.8,25.35c-2,10.43-3.86,20.89-6,31.29-.37,1.76-2,3.26-3.1,4.88-1.07-1.59-2.75-3.07-3.11-4.81-1.82-8.8-3.29-17.68-4.9-26.52a9,9,0,0,0-2.31-5.1c0,4.53,0,9.07,0,13.6,0,5.83-.06,11.66,0,17.49,0,3,.19,5.49-4.21,5.52-4.14,0-4.52-1.91-4.5-5.22.1-16.65,0-33.3,0-49.95,0-2.46-.45-5.57,3.5-5,3.56.49,8.71-2.67,9.75,4.28,1.25,8.39,3,16.71,4.5,25.06a6.56,6.56,0,0,0,2.09,4.08q2.31-13.2,4.61-26.39c1.17-6.76,5.36-9.33,11.71-6.85a4.41,4.41,0,0,1,2,3.39c.14,17.65.07,35.3.16,53,0,3-1.45,3.62-4.05,3.55s-4.88-.12-4.8-3.89c.19-9,.06-18,.07-27V25.45Z"/><path class="cls-1" d="M170.5,1.39c9.2.72,18.85-2.94,24.73,5.82,5.3,7.9,3.7,16.16-2.82,23.56,6.63,5.46,7.18,12.57,5.91,20.08-1.06,6.26-4.69,9.82-11,10.41a102.92,102.92,0,0,1-13.94.15c-1,0-2.76-1.57-2.77-2.43C170.46,40.07,170.5,21.15,170.5,1.39Zm9.16,42.22a9.76,9.76,0,0,0,0,2.48c.65,2.43-2.06,6.6,3.28,6.69,4.59.07,6.06-3,6.24-6.83.11-2.43.19-5.42-1.07-7.2s-4.21-2.39-6.41-3.51a43,43,0,0,0-2,4.89A13.44,13.44,0,0,0,179.66,43.61Zm0-25.34a9.44,9.44,0,0,0,0,2c.5,2.24-1.59,5.87,2.93,6,4.05.13,5.56-2.64,5.82-6.08.16-2.27.37-5.09-.78-6.73s-4-2.18-6.07-3.2a35.3,35.3,0,0,0-1.87,4.52A13.92,13.92,0,0,0,179.65,18.27Z"/><path class="cls-1" d="M234.45,60.73c-8.48,2-9.21,1.54-10.8-5.82-1-4.4-1.74-8.84-3-13.14-.57-1.93-2.15-3.57-3.26-5.33-.76,1.9-2,3.78-2.16,5.73a132,132,0,0,0,0,14.48c.17,3.62-1,5-4.8,5-3.52-.06-4.62-1.3-4.6-4.71q.16-25.72,0-51.45c0-3,1-4.24,4.05-4.09,3.65.18,7.33-.06,11,.13,7.41.38,11.51,3.8,12.51,11.12.94,6.94,1.46,14-3.78,19.92-.86,1-.9,3.13-.59,4.59,1.21,5.69,2.72,11.32,4.08,17C233.56,56.31,234,58.54,234.45,60.73ZM215.12,18.84h0c0,1.49-.32,3.07.09,4.44s1.75,3.95,2.33,3.86c2.05-.34,5.33-1.27,5.63-2.56a25.61,25.61,0,0,0,.18-11.12c-.32-1.43-3.76-2.38-5.93-3-.36-.1-1.75,2.76-2.25,4.38A14,14,0,0,0,215.12,18.84Z"/><path class="cls-1" d="M9.44,99.48v25.41c0,2.7.36,5.35-3.84,5.43-4.42.08-4.22-2.61-4.21-5.58,0-15.83,0-31.66.12-47.49,0-2.34-1.43-5.67,2.72-6.41,3.91-.71,5.63,1.13,6.69,4.8C13.1,83.15,15.71,90.54,18.2,98c.65,2,1.49,3.89,2.24,5.83l1.83-.21c0-3.2,0-6.41,0-9.61,0-6.33,0-12.66-.08-19,0-2.82,1-4.33,4.1-4.27s4.05,1.41,4,4.31c-.06,17,.05,34-.15,51a5.19,5.19,0,0,1-2.87,4c-2.48.7-5.24.76-6.38-2.85-2.36-7.46-5-14.84-7.55-22.23-.67-2-1.52-3.87-2.29-5.8Z"/><path class="cls-1" d="M64,31.54c0,8.33-.12,16.66.06,25,.07,3.44-.61,5.23-4.61,5.17-3.68-.06-5.05-1.21-4.9-4.94.23-6-.09-12,.13-18,.13-3.56-1.66-4.1-4.59-4.1s-4.76.36-4.63,4c.21,6.33-.09,12.66,0,19,.07,3.11-1.18,4.08-4.15,4s-5.23-.07-5.2-4.08q.2-26,0-52c0-3.88,2-4.21,5-4.26,3.2-.05,4.48,1,4.35,4.33-.21,5.49.06,11-.08,16.49-.09,3.29,1.6,3.84,4.37,3.8s5-.2,4.85-3.89c-.16-5.49.13-11-.12-16.48-.18-4,2-4.19,5-4.21S64.11,2,64,5.55c-.25,8.66-.08,17.33-.08,26Z"/><path class="cls-1" d="M94,100.77c0-8,0-16,0-24,0-2.93-.63-6,4.19-6.14,5.17-.1,4.43,3.22,4.46,6.33,0,4.66.14,9.33.07,14-.06,3.36,1.68,4.24,4.7,4.24s5.15-.74,5.07-4.42c-.12-5.32.05-10.65,0-16,0-3,1.18-4.17,4.19-4.07,2.86.1,4.69.61,4.67,4.16q-.19,25.47,0,50.94c0,3.16-1,4.45-4.3,4.49-3.54,0-4.68-1.38-4.58-4.76.18-5.82,0-11.65.12-17.47.09-3.79-1.78-4.82-5.25-4.8s-4.71,1.56-4.65,4.87c.1,6-.13,12,.06,18,.1,3.49-1.62,4.14-4.6,4.16s-4.13-1-4.07-4.07c.16-8.48,0-17,0-25.46Z"/><path class="cls-1" d="M78.36,128.22c-8.65,7.22-19.87,2.49-20.39-9.6s-.58-24.3-.08-36.42c.38-9,7.45-13.93,16.29-12.53,7.91,1.25,12.64,8.8,10.47,17.35-.31,1.22-2.84,2.65-4.28,2.59s-3.06-1.77-3.7-3.16c-.72-1.55.08-3.84-.7-5.32s-2.78-3.52-4.11-3.42c-1.67.12-3.82,1.85-4.61,3.45-.88,1.79-.59,4.22-.6,6.37,0,9.32-.06,18.64.06,28,0,2,0,4.65,1.13,5.64,1.5,1.29,4.65,2.25,6.24,1.51,3.93-1.83,3.1-12.8-.52-15.11-1.27-.81-2.13-3-2.23-4.58,0-.75,2.08-2.27,3.32-2.38,10.39-.95,10.4-.87,10.41,9.71,0,4.83.09,9.66-.08,14.48a24.76,24.76,0,0,1-1.22,5Z"/><path class="cls-1" d="M118.38,60.84c-8.2,1.76-8.74,1.51-9.82-6.39-.54-3.88-1.24-6.62-6.26-6-2.84.37-4.29,1.21-4.55,4-.16,1.66-.59,3.3-.66,5-.23,4.91-3.76,4.31-6.87,4.08-4.08-.31-2.34-3.32-2-5.3,2.7-16.94,5.59-33.84,8.22-50.78.55-3.58,2.47-4.46,5.48-4s7.1-2,8,3.36q4.38,27.12,8.72,54.23A7.57,7.57,0,0,1,118.38,60.84ZM103.81,18.62l-1.37,0c-.82,6.2-1.77,12.4-2.31,18.63-.08.82,1.92,2.54,3,2.55s3-1.71,2.94-2.54C105.53,31,104.61,24.82,103.81,18.62Z"/><path class="cls-1" d="M0,30.6c0-5.17-.11-10.34,0-15.5C.23,9.31,1.84,4.16,7.7,1.59c5.62-2.46,11.2-2.23,16,1.8S28.9,13.29,28.17,19c-.13,1-3.19,2.21-4.89,2.2a5.85,5.85,0,0,1-4.17-2.66c-.74-1.26.29-3.53-.42-4.83-1-1.92-2.93-3.39-4.46-5-1.56,1.64-4.05,3.06-4.49,5-.77,3.33-.31,7-.31,10.45,0,8,0,16,.08,24,0,3.25.94,6.27,4.89,6.19,3.72-.07,4.28-3.08,4.46-6.08,0-.66.05-1.33,0-2-.14-3.55-.14-6.34,5.05-6.32,5.72,0,4.5,3.63,4.46,6.72C28.28,57.72,22,63.89,12.2,62.74,5.52,62,1.26,58.21.62,51.06,0,44.29.49,37.42.49,30.6Z"/><path class="cls-1" d="M264.1,10.18c-3.3,0-6.75.08-10.2,0-2.75-.09-4,1-3.81,3.8.11,1.33,0,2.66,0,4,0,7.24,0,7.41,7.15,7.86,3.48.22,3.47,2.23,3.5,4.71s-.4,4.3-3.48,4.14c-2.12-.11-4.25,0-7.09,0,0,5.4-.14,10.33.13,15.25.05.89,1.68,2.07,2.79,2.43,1.37.43,3,.15,4.46.15,8,0,8,0,6.75,9-7.08,0-14.3.1-21.52-.15-.7,0-1.89-2.15-1.9-3.3-.13-17.64-.07-35.27-.14-52.9,0-2.89,1.33-3.74,4-3.69,4.49.1,9,0,13.47,0C265.56,1.37,265.94,1.88,264.1,10.18Z"/><path class="cls-1" d="M309.75,35.56c0-6.82-.14-13.64.06-20.45.1-3.55-.91-5.48-4.75-5-3.65.48-5-1-4.95-4.73,0-4.06,2.37-4.06,5.23-4,6.48.05,13,.11,19.45,0,3.13-.07,4,1.32,4,4.22s-.48,5.11-4.07,4.55c-5-.78-5.71,1.91-5.66,6.11.17,13.47,0,26.94.1,40.41,0,3.56-1,5-4.79,5-4,0-4.73-1.69-4.64-5.12.18-7,.06-14,.06-21Z"/><path class="cls-1" d="M278.07,35.48c0-6.83-.18-13.66.07-20.48.14-3.75-1.2-5.29-4.87-4.86-3.29.4-4.81-.68-4.81-4.36s1.58-4.5,4.84-4.42c6.49.16,13,.19,19.49,0,3.27-.11,4.45,1,4.33,4.29-.1,2.89-.54,5.1-4.12,4.5-5-.84-5.69,1.82-5.63,6,.2,13.32,0,26.65.12,40,0,3.53-.45,5.52-4.81,5.5S278,59.31,278,56C278.15,49.14,278.06,42.31,278.07,35.48Z"/><path class="cls-1" d="M135.5,104.46c0-6.83-.11-13.66,0-20.49.08-3.53-1.1-5.43-4.87-5.08-3.21.3-4.94-.7-4.84-4.41s2.48-3.7,5.07-3.7c6.33,0,12.66.1,19,0,3-.06,4.16,1.11,4.2,4.1s-1.36,4.29-4.25,4c-4.49-.47-5.71,1.74-5.65,5.92.18,13.49.05,27,.11,40.48,0,3.06-.55,5.14-4.33,5.08-3.13,0-4.54-1.1-4.48-4.37.13-7.16,0-14.33,0-21.49Z"/><path class="cls-1" d="M342.26,31.47c0,8.66-.11,17.32.06,26,.07,3.43-1.38,4.28-4.49,4.17-2.93-.1-5.07-.16-5-4.17q.24-26,0-52c0-3.92,2-4.13,5-4.14s4.59.64,4.5,4.15C342.12,14.14,342.26,22.81,342.26,31.47Z"/><path class="cls-1" d="M81.93,31.55c0,8.49-.18,17,.07,25.46.11,4-1.8,4.57-5.16,4.65-3.67.09-4.45-1.49-4.43-4.78q.16-25.47,0-50.93c0-3.51,1.13-4.62,4.58-4.63s5.14.87,5,4.76C81.77,14.57,81.93,23.06,81.93,31.55Z"/><path class="cls-1" d="M49.12,101c0,8.32-.1,16.64.06,24.95.06,3.34-1.36,4.34-4.46,4.36s-4.57-.94-4.56-4.28q.12-25.46,0-50.91c0-3.16,1.26-4.43,4.48-4.43s4.59,1.16,4.57,4.35c-.06,8.65,0,17.31,0,26Z"/></g></g></svg>