<svg xmlns="http://www.w3.org/2000/svg" viewBox="0 0 99 13.52"><defs><style>.cls-1{fill:#fff;}</style></defs><g id="Layer_2" data-name="Layer 2"><g id="Deseret_News_logo" data-name="Deseret News logo"><g id="Deseret_News_logo-2" data-name="Deseret News logo"><path class="cls-1" d="M2,2.27C2,.37,0,1,0,.3A.33.33,0,0,1,.33,0c.36,0,.73.08,2.58.08C3.88.08,4.83,0,5.8,0c2.49,0,7.92.3,7.92,6.13,0,5.39-4.87,7.07-6.86,7.07-2.18,0-3.21-.08-3.9-.08s-1.13.08-1.71.08c-.32,0-.75.07-.75-.26,0-.71,1.49,0,1.49-1.68Zm2.3,8.86c0,1.23,1.37,1.36,2.1,1.36,2.91,0,5-1.9,5-5.76,0-1.77-.91-6-5.57-6-1.4,0-1.51.46-1.51,1.75Z"/><path class="cls-1" d="M16.53,8.63c-.33,0-.41-.13-.41.47a2.91,2.91,0,0,0,2.76,3.06c1.1,0,2-1,2.31-1,.08,0,.19,0,.19.22,0,.47-1.57,1.94-3.49,1.94A3.51,3.51,0,0,1,14.22,9.6c0-2.14,1.21-4.47,3.62-4.47a3.41,3.41,0,0,1,3.5,3.09c0,.41-.11.41-.22.41ZM18.9,8c.32,0,.43,0,.43-.5a1.77,1.77,0,0,0-1.7-1.81c-1.12,0-1.53,1.1-1.53,2,0,.29,0,.35.1.35Z"/><path class="cls-1" d="M27.16,7.14c0,.15-.06.19-.24.19-.38,0-.56-1.62-2.32-1.62-.61,0-1.17.27-1.17,1,0,.87.75,1,2.26,1.56,1.21.49,2,1.06,2,2.48,0,2-1.75,2.63-3.19,2.63a6.27,6.27,0,0,1-2.33-.41c-.13-.08-.18-.11-.18-.37L22,10.63c0-.26.15-.32.34-.32s.52,2.51,2.53,2.51a1.26,1.26,0,0,0,1.35-1.3c0-.75-1.05-1.18-2.71-1.9a2,2,0,0,1-1.45-2.07c0-1.77,1.47-2.42,3-2.42.15,0,1.9.14,1.92.46Z"/><path class="cls-1" d="M30.57,8.63c-.34,0-.41-.13-.41.47a2.91,2.91,0,0,0,2.76,3.06c1.1,0,2-1,2.31-1,.07,0,.19,0,.19.22,0,.47-1.57,1.94-3.49,1.94A3.51,3.51,0,0,1,28.26,9.6c0-2.14,1.21-4.47,3.61-4.47a3.42,3.42,0,0,1,3.51,3.09c0,.41-.11.41-.22.41ZM32.94,8c.31,0,.43,0,.43-.5a1.78,1.78,0,0,0-1.7-1.81c-1.12,0-1.53,1.1-1.53,2,0,.29,0,.35.09.35Z"/><path class="cls-1" d="M38.81,11.18c0,1.72,1.73,1.16,1.73,1.7a.3.3,0,0,1-.28.32c-.45,0-1.51-.08-2.12-.08-.88,0-1.42.08-1.89.08-.24,0-.31,0-.31-.19,0-.58.89-.09.89-1.47V7.16c0-.9-1.19-.38-1.19-.9,0-.29.28-.31.93-.48a7,7,0,0,0,2-.8c.23,0,.23.13.23.37V6.78c.82-1,1.49-1.65,2-1.65s1.47.84,1.47,1.19c0,.69-.64,1.56-1,1.56s-.47-.74-1.49-.74-1,1.42-1,1.56Z"/><path class="cls-1" d="M44.6,8.63c-.33,0-.41-.13-.41.47A2.91,2.91,0,0,0,47,12.16c1.1,0,2-1,2.32-1,.07,0,.18,0,.18.22,0,.47-1.56,1.94-3.48,1.94A3.51,3.51,0,0,1,42.29,9.6c0-2.14,1.21-4.47,3.62-4.47a3.41,3.41,0,0,1,3.5,3.09c0,.41-.11.41-.22.41ZM47,8c.32,0,.43,0,.43-.5a1.77,1.77,0,0,0-1.69-1.81c-1.12,0-1.53,1.1-1.53,2,0,.29,0,.35.09.35Z"/><path class="cls-1" d="M50.76,6.39h-.58c-.36,0-.49-.16-.49-.28,0-.41.32-.46.84-1,1.4-1.32,1.66-2.18,2-2.18a.22.22,0,0,1,.22.21v2c0,.19.21.19.41.19h1.29c.43,0,.32-.41.59-.41.08,0,.12,0,.12.13a3.62,3.62,0,0,1-.25.69c-.13.26-.13.59-.37.59H52.73v4.87c0,.65.13,1,.86,1a3.5,3.5,0,0,0,1.49-.44c.13,0,.21,0,.21.28s-1.07,1.23-2.6,1.23c-2.12,0-1.93-1.6-1.93-2.09Z"/><path class="cls-1" d="M61.36,3.58c0-3.58-2.08-2.37-2.08-3.26A.29.29,0,0,1,59.59,0c.36,0,.69.07,1,.07s1-.07,2-.07c.6,0,.37.13.71.48l7.5,8.23c.24.26.46.48.57.48s.15-.22.15-.69V2.29c0-1.69-2.27-1.36-2.27-2a.28.28,0,0,1,.3-.32c.29,0,.83.07,2.12.07S73.5,0,73.67,0C74,0,74,.19,74,.24c0,.56-1.59.11-1.59,2.07V12.77c0,.41,0,.56-.22.56a.55.55,0,0,1-.48-.26l-9-9.7c-.13-.14-.24-.24-.33-.24s-.15.13-.15.3V9.77c0,3.58,2.38,2.31,2.38,3.18,0,.27-.46.25-.71.25-.91,0-1.55-.08-2.2-.08s-1.1.08-1.6.08c-.2,0-.58.09-.58-.23,0-.74,1.79-.41,1.79-2.31Z"/><path class="cls-1" d="M75.78,8.63c-.33,0-.41-.13-.41.47a2.91,2.91,0,0,0,2.76,3.06c1.1,0,2-1,2.31-1,.07,0,.19,0,.19.22,0,.47-1.57,1.94-3.49,1.94A3.5,3.5,0,0,1,73.47,9.6c0-2.14,1.21-4.47,3.61-4.47a3.42,3.42,0,0,1,3.51,3.09c0,.41-.11.41-.22.41ZM78.15,8c.31,0,.43,0,.43-.5a1.78,1.78,0,0,0-1.7-1.81c-1.12,0-1.53,1.1-1.53,2,0,.29,0,.35.1.35Z"/><path class="cls-1" d="M89.53,10.12c.08.17.15.51.28.51s.19-.21.28-.42l1-2.4a3.27,3.27,0,0,0,.35-1.25c0-1-1.1-.35-1.1-1,0-.19.15-.23.35-.23s.51.08,1.16.08a8.34,8.34,0,0,0,.91-.08c.19,0,.38,0,.38.19s-.43.28-.66.76l-3,6.64c-.15.33-.18.6-.43.6s-.37-.42-.56-.86L87.09,9.17C87,9,87,8.91,86.89,8.91s-.12.09-.21.28l-1.94,3.73c-.17.31-.19.6-.43.6s-.37-.42-.56-.86L81.13,6.43c-.23-.52-.94-.39-.94-.82s.26-.28.53-.28.5.08,1.47.08c.74,0,1.19-.08,1.45-.08s.5,0,.5.26-.8.26-.8.78a4.38,4.38,0,0,0,.26,1l1.1,3c.06.17.15.5.28.5s.3-.4.36-.5l1-1.86a1,1,0,0,0,.16-.58,3.12,3.12,0,0,0-.76-1.74c-.21-.2-.65-.16-.65-.5s.24-.28.44-.28.64.08,1.57.08,1.27-.08,1.51-.08.52,0,.52.26c0,.43-.93.28-.93.92a2.22,2.22,0,0,0,.17.61Z"/><path class="cls-1" d="M98.5,7.14c0,.15-.06.19-.25.19-.37,0-.55-1.62-2.31-1.62-.61,0-1.17.27-1.17,1,0,.87.74,1,2.25,1.56,1.22.49,2,1.06,2,2.48,0,2-1.75,2.63-3.19,2.63a6.23,6.23,0,0,1-2.33-.41c-.13-.08-.19-.11-.19-.37l.06-1.92c0-.26.15-.32.34-.32s.52,2.51,2.53,2.51a1.27,1.27,0,0,0,1.35-1.3c0-.75-1-1.18-2.71-1.9a2,2,0,0,1-1.45-2.07c0-1.77,1.47-2.42,3-2.42.15,0,1.91.14,1.93.46Z"/></g></g></g></svg>