<svg xmlns="http://www.w3.org/2000/svg" viewBox="0 0 135.9 30.97"><defs><style>.cls-1{fill:#fff;}</style></defs><g id="Layer_2" data-name="Layer 2"><g id="svg2"><g id="Layer_2-2" data-name="Layer 2"><g id="g6"><g id="g8"><g id="g10"><path id="path12" class="cls-1" d="M125.4,31a14.52,14.52,0,0,1-10.8-4.4.33.33,0,0,1,0-.39l2.7-3.4c.09-.12.15-.07.3.1a11.14,11.14,0,0,0,7.9,3.4c3.6,0,5.4-1.6,5.4-3.71s-1-3.5-6.5-5.3c-6.3-2.1-8.8-4.5-8.8-9.2,0-5,4.1-8,9.9-8a14.66,14.66,0,0,1,9.8,3.6.29.29,0,0,1,0,.4l-2.5,3.5a.3.3,0,0,1-.4,0,10.39,10.39,0,0,0-7.2-2.8c-3.6,0-4.5,1.9-4.5,3.1,0,1.5.5,3,6,4.8,6.1,2.1,9.2,4.6,9.2,9.6S132.1,31,125.4,31"/><path id="path14" class="cls-1" d="M113,30.47H98.9a2.73,2.73,0,0,1-2.8-3V.77c0-.1,0-.3.2-.3h4.6c.2,0,.2.3.2.3v24.9h12c.1,0,.2.1.2.3v4.2a.27.27,0,0,1-.3.3"/><path id="path16" class="cls-1" d="M93.1,30.47H88.6a.45.45,0,0,1-.3-.4V.78a.32.32,0,0,1,.3-.3h4.5a.32.32,0,0,1,.3.3V30.07c0,.21,0,.4-.3.4"/><path id="path18" class="cls-1" d="M66.6,5.17h-8v24.9c0,.1,0,.4-.3.4H54.2a.32.32,0,0,1-.3-.3v-25h-8a.45.45,0,0,1-.4-.3V.77c0-.2.1-.3.4-.3H66.6c.2,0,.3.3.3.4V5c.1.1-.1.2-.3.2"/><path id="path20" class="cls-1" d="M27.4,30.47c-1.8,0-2.8-1.1-2.8-3v-24a2.68,2.68,0,0,1,2.8-3H43.2a.32.32,0,0,1,.3.3V5a.32.32,0,0,1-.3.3H29.7v6.91h8.1a.27.27,0,0,1,.3.3v4.3c0,.2-.2.2-.3.2H29.7v8.9H43.9a.27.27,0,0,1,.3.3v4a.33.33,0,0,1-.3.29"/><path id="path22" class="cls-1" d="M81.46,30.47a.33.33,0,0,1-.31-.2l-2.45-6.7H68.4L66,30.27a.25.25,0,0,1-.3.2H60.9c-.14,0-.35-.16-.3-.29l10.2-28c1-2.91,4.6-2.91,5.7,0L86.6,30.07a.33.33,0,0,1-.3.4M73.6,9.17,70,19h7.1Z"/><path id="path24" class="cls-1" d="M8.1,30.47H2.8a2.73,2.73,0,0,1-2.8-3v-24a2.68,2.68,0,0,1,2.8-3H8.6C16.7.47,23,4.77,23,15.37c0,10.81-7,15.1-14.9,15.1M8.4,5.18H5.1v20.5H8.4c6,0,9.5-3.11,9.5-10.31,0-6.7-3.2-10.2-9.5-10.2"/></g></g></g></g></g></g></svg>