<svg xmlns="http://www.w3.org/2000/svg" viewBox="0 0 485.25 72.65"><defs><style>.cls-1{fill:#fff;fill-rule:evenodd;}</style></defs><g id="Layer_2" data-name="Layer 2"><g id="svg3111"><g id="layer1"><path id="path32" class="cls-1" d="M114.19,0C94.11,0,81.45,15.39,81.34,36.15c.11,22.1,13,36.38,32.85,36.5,7.53-.12,15.85-2.59,21.55-7.47l3.83,5.21H147V46.58c-.1-4,1-5,5.22-4.87h5.56V33.89H120.45v7.82h6.78c2.55-.11,5.34,1.3,5.21,4.87v4c.13,7.78-4.71,13-15,12.86-14.69.13-19.8-11.58-19.81-27.29,0-15.2,6.6-27.21,17.9-27.29C129,8.94,134.28,18.7,137,28.68h8.17V2.09h-7.82L134.7,7.82A30.89,30.89,0,0,0,114.19,0ZM13.73,1A7.31,7.31,0,0,0,6.26,8.17a7.52,7.52,0,0,0,7.47,7.47A7.43,7.43,0,0,0,21.2,8.17,7.22,7.22,0,0,0,13.73,1ZM171.2,1a6.93,6.93,0,0,0-7.13,7.13,7.15,7.15,0,0,0,7.13,7.47,7.33,7.33,0,0,0,7.47-7.47A7.12,7.12,0,0,0,171.2,1Zm-141.31,1V8.86h5.22c2.81.09,4.14,1.16,4,4.18V59.62c.14,2.89-1.19,3.94-4,3.82H25.38c-3,.12-4.21-.93-4.18-3.82V22.25H0V29H4.87c2.84,0,4,1.07,4.17,4.17V59.62c-.15,2.89-1.33,3.94-4.17,3.82H0v7H60.14v-7H55.27c-2.74.12-3.9-.93-3.82-3.82V2.09Zm379.43,0V8.86h4.86c2.91.09,4.08,1.16,4.17,4.18V59.62c-.09,2.89-1.26,3.94-4.17,3.82h-4.86v7h30.24v-7h-4.87c-3,.12-4.14-.93-4.17-3.82V2.09ZM213.44,20.51c-15.39.1-26.48,9.41-26.42,25.72S198.05,72,213.44,72s26.62-9.29,26.76-25.73C240.06,29.92,229,20.61,213.44,20.51Zm61.52,0c-5.56.11-8.78,3.43-13,9.56V22.25H240.2V29h5.39c2.91,0,4.26,1.07,4.35,4.17V59.62c-.09,2.9-1.44,3.94-4.35,3.82H240.2v7h32.5v-7h-6.6c-3,.12-4.14-.92-4.17-3.82V42.41c0-7.47,4.36-16,12.69-16,1.66,0,3.28.17,4.51,1.56-3.81-.06-6.84,2.19-6.77,6.26s3.18,6.36,7.12,6.43c5.13-.07,7.92-4,7.82-8.69C287.4,24.52,281.55,20.62,275,20.51Zm54.58,0c-8,.11-13.63,4.26-17.9,10.78h-.18v-9H289.22V29h3.65c5.31,0,6.48,1.16,6.43,5.56v25c.05,2.9-1.14,3.94-4.17,3.82h-5.91v7h30.59v-7h-4.18c-2.83.12-4-.93-4.17-3.82V40.5c.16-6.45,6.69-11.81,11.65-11.82s9,1.62,9,9.38V59.62c0,2.9-1.32,3.94-5.57,3.82h-2.43v7h30.24v-7h-4c-4.88.12-6-.93-6.09-3.82V37.19c.07-11-5.63-16.57-14.77-16.68Zm48.14,0c-8,.1-20.55,2.4-20.51,13A7.36,7.36,0,0,0,364.82,41c3.9,0,7.07-1.34,7.13-6.08-.06-4.11-3.17-5.77-6.95-5.22,1.82-2.51,6.8-3.5,9.56-3.65,5.57.15,11,1.42,10.95,8.17.08,14.37-30.86,4.63-30.94,24.68.08,9.22,6.47,13,14.42,13,6.57,0,13.12-1.84,16.86-7.48.89,5.33,5.34,7.48,10.43,7.48,8.71,0,13.39-4.73,13.38-16.17v-3.3h-6.6v3.82c-.08,6.46-1.17,7.92-2.78,7.82-1.48.1-2.57-1.09-2.43-3.3V35.46c-.14-8.57-6.1-14.85-20.17-14.95Zm84.65,0c-14.16.1-23.9,10.74-23.81,25.72C438.43,63,447,72,463,72c13.63,0,20.69-6.94,22.08-18.6h-8.35c-1.48,7-5.18,10.87-12.68,10.77-9.51.1-12.08-8.48-11.82-16.51H485.1c1.29-11.75-5.82-27-22.77-27.11ZM157.82,22.25V29h4.52c2.93,0,4.27,1.07,4.34,4.17V59.62c-.07,2.89-1.41,3.94-4.34,3.82h-4.52v7h29.89v-7h-4.86c-2.95.12-4.12-.93-4.18-3.82V22.25Zm55.62,5.21c8.41.08,12.74,6.47,12.68,18.77s-4.27,19-12.68,19-12.62-6.52-12.69-19S205.16,27.54,213.44,27.46ZM462.33,28c7.17-.16,9.33,6.23,9.21,12.69H452.25C452.61,34.21,455.17,27.82,462.33,28ZM385.51,45v6.77c.08,6.48-3.7,12.44-10.61,12.35-4.33.09-6.36-2-6.25-6.44-.11-4.73,3.17-6.39,6.25-7.82L385.51,45Z"/></g></g></g></svg>