<svg xmlns="http://www.w3.org/2000/svg" viewBox="0 0 52.39 7.6"><defs><style>.cls-1{fill:#fff;}</style></defs><g id="Layer_2" data-name="Layer 2"><g id="圖層_1" data-name="圖層 1"><path class="cls-1" d="M11.46,6.33,11,4.83,10.85,4s0-.06,0-.06C10.69,2.67,9.71,2.82,9.06,3c0,0,0,0,0,0V2.32a0,0,0,0,1,0,0,3.5,3.5,0,0,1,2.68,0c.54.27.85.68,1.14,1.9.08.34.18.8.43,1.81.13.49.26.67.53.62,0,0,0,0,0,0v.64c0,.08,0,.08,0,.08H13.1A1.59,1.59,0,0,1,11.88,7Z"/><path class="cls-1" d="M11.46,6.33s0,.07-.07.09c-1.11.63-1.51-1.24-.43-1.6a.09.09,0,0,1,.07,0L10.85,4A4.72,4.72,0,0,0,9,4.78,1.51,1.51,0,0,0,9.43,7.3,2.57,2.57,0,0,0,11.88,7Z"/><path class="cls-1" d="M19,1.92A1,1,0,0,0,20.11,1,1,1,0,0,0,19,.14,1,1,0,0,0,17.9,1a1,1,0,0,0,1.1.89"/><path class="cls-1" d="M23.94,4.36s.17,0,.16-.2a1.91,1.91,0,0,0-.29-1,.55.55,0,0,0-1,.16,3.06,3.06,0,0,0-.16,1.26c0,.12,0,.12.13.1l.09.71s-.08,0,0,.15a1.3,1.3,0,0,0,1.51,1,2.48,2.48,0,0,0,.87-.27c.13-.07.11,0,.11.07V7c0,.1,0,.13-.17.2a4,4,0,0,1-3-.05,2.73,2.73,0,0,1-1.43-2.5A2.55,2.55,0,0,1,23.53,2a2.46,2.46,0,0,1,2.4,2.38s0,.14-.05.17Z"/><path class="cls-1" d="M23.94,4.36l-1.16.32.09.71,3-.85Z"/><path class="cls-1" d="M8,7A.68.68,0,0,0,8,7.36s0,0,0,0H6.06s0,0,0,0A1,1,0,0,0,6.11,7V3.92a.51.51,0,0,0-.51-.53.7.7,0,0,0-.65.73V7A.72.72,0,0,0,5,7.36s0,0,0,0H3.05s0,0,0,0A.84.84,0,0,0,3.09,7V3.92a.51.51,0,0,0-.51-.53.7.7,0,0,0-.65.73V7A.72.72,0,0,0,2,7.36s0,0,0,0H0s0,0,0,0A1,1,0,0,0,.08,7V3.22A.76.76,0,0,0,0,2.88s0,0,0,0L1.9,2s0,0,0,0v.87s0,0,0,0l0,0c.64-1,2.63-1.13,2.94,0a0,0,0,0,0,0,0,1.72,1.72,0,0,1,1.6-.79C8.18,2.08,8,3.43,8,4.27V7Z"/><path class="cls-1" d="M16.23,7a.78.78,0,0,0,.07.38s0,0,0,0h-2s0,0,0,0A.94.94,0,0,0,14.28,7V3.34a1.73,1.73,0,0,0-.11-.45s0,0,0,0,.84-.43,2-1c0,0,0,0,0,0v.52c0,.07,0,.29,0,.32s0,0,0,0l0,0A1.37,1.37,0,0,1,18,2C18,2,18,2,18,2.1s-.26,1.11-.28,1.18,0,.09-.11.07c-.65-.13-1.38.08-1.38.9V7Z"/><path class="cls-1" d="M20,7a.78.78,0,0,0,.07.38s0,0,0,0h-2s0,0,0,0A1.15,1.15,0,0,0,18.09,7V2.91c0-.1,0-.1.07-.13h0L20,1.91s.06,0,.06,0V7Z"/><path class="cls-1" d="M31.84,6.47a1.24,1.24,0,0,1-1.58-.21,2.56,2.56,0,0,1-.62-1.74c0-1.72,1.2-1.94,2.1-1.44V2.2A3.23,3.23,0,0,0,30.05,2a2.71,2.71,0,0,0-2.39,2.86c0,1.57,1,3.44,4.18,2.57Z"/><path class="cls-1" d="M34.34,6.79s0-6.8,0-6.77L32.2,1c.07.06.22.32.22,1.19V4.39c0,.63,0,1.82,0,2.77a1,1,0,0,1-.06.26h2.12s-.13-.63-.13-.63"/><path class="cls-1" d="M37.93,6.39s0,.05,0,.07a.8.8,0,0,1-.9,0,1.06,1.06,0,0,1-.26-1,1.08,1.08,0,0,1,.73-.73l-.13-.79s0,0,0,0l-.4.08a2.87,2.87,0,0,0-1.39.56,1.55,1.55,0,0,0,.34,2.74A2.38,2.38,0,0,0,38.27,7Z"/><path class="cls-1" d="M37.93,6.39l-.45-1.67h0l-.13-.79c-.09-1.39-1.21-1.26-1.83-1,0,0,0,0,0,0V2.15a0,0,0,0,1,0,0,3.6,3.6,0,0,1,2.7.05,2,2,0,0,1,1,1.35l.62,2.79c0,.22.19.41.41.41s.1,0,.1.1v.61c0,.06,0,.08,0,.08h-.77A1.64,1.64,0,0,1,38.27,7Z"/><path class="cls-1" d="M41.85,1.85A1.06,1.06,0,0,0,43,.93a1.18,1.18,0,0,0-2.3,0,1.05,1.05,0,0,0,1.15.92"/><path class="cls-1" d="M42.85,7V7.1a.68.68,0,0,0,.09.32H40.73a.83.83,0,0,0,.09-.32V2.78c0-.1,0-.1,0-.1s.74-.38,2-.94c0,0,0,0,0,0V7"/><path class="cls-1" d="M47.17,3.31a2.22,2.22,0,0,0-.85.06.78.78,0,0,0-.54.75v3a.81.81,0,0,0,.08.31s0,0,0,0H43.72a.63.63,0,0,0,.09-.31V3.21a1.82,1.82,0,0,0-.09-.36s0,0,0,0l2-.92s0,0,0,0v.48c0,.07,0,.29,0,.32s0,0,0,0l0,0A1.4,1.4,0,0,1,47.51,2c.07,0,.06,0,0,.13s-.26,1.07-.28,1.14,0,.08-.1.07"/><path class="cls-1" d="M50.41,4.47s.16,0,.15-.19a1.91,1.91,0,0,0-.29-1c-.26-.37-.75-.38-1,.16a3,3,0,0,0-.16,1.25c0,.12,0,.13.14.1l.08.72s-.08,0,0,.15a1.31,1.31,0,0,0,1.52,1,2.41,2.41,0,0,0,.86-.27c.14-.07.12,0,.12.06V7.1c0,.11,0,.14-.17.21a4.05,4.05,0,0,1-3,0,2.74,2.74,0,0,1-1.43-2.5A2.56,2.56,0,0,1,50,2.1a2.48,2.48,0,0,1,2.4,2.38c0,.06,0,.15,0,.18Z"/><path class="cls-1" d="M50.41,4.47l-1.16.32.08.72,3-.85Z"/></g></g></svg>