<svg xmlns="http://www.w3.org/2000/svg" viewBox="0 0 677.85 311.56"><defs><style>.cls-1{fill:#fff;}</style></defs><g id="Layer_2" data-name="Layer 2"><g id="Layer_1-2" data-name="Layer 1"><path class="cls-1" d="M345.12,311.48q-163,0-325.94.08c-4.21,0-5.54-1.47-5.5-5.53.15-15.83.12-31.66.1-47.49,0-7.48-.09-7.43,7.26-7.43q53.24,0,106.47-.1H661.94c3.66,0,7.33-.09,11-.07,3.26,0,4.93,1.7,4.92,5q0,25.25-.1,50.49c0,3.8-1.93,5.13-5.7,5.13-39.66-.07-79.31,0-119,0l-148,0h-60ZM626,283.92c3.21-.69,4.81.6,5.75,3.78.8,2.75,2.45,5.25,3.72,7.86l1.34-.49L647,267.68h-6.71c2.34,7-.25,11.86-4.64,17.5-1.84-6.36-3.39-11.67-5.13-17.65H623l-1.25.9c6.65,4.21,4.17,10.17,4.32,15.63-1.75-1.07-4.4-1.74-5.07-3.28-1.74-4-2.62-8.33-4-13.08h-6.79c3.19,8.83,6.12,17.06,9.16,25.24.3.8,1.37,1.94,2,1.87a3.5,3.5,0,0,0,2.59-1.74C624.84,290.08,625.33,287,626,283.92Zm-287.79-7.77c-5.6-.25-1.56,5.37-4.27,6.91-4-.95-7.21-8.29-6.45-16l-6.69.35c.19,5.4.73,9.68.35,13.88-.21,2.3-2.56,3-3.77.53a35.32,35.32,0,0,1-3.4-9.85c-.89-5.52-2-6.3-7.91-3.64l11,27.46,2.2-.15c.82-2.9,1.55-5.82,2.48-8.67a25.09,25.09,0,0,1,1.92-3.66c1.09,1.09,2.59,2,3.19,3.3,1.34,2.92,2.24,6.05,3.8,10.47,4.56-7.27,7.56-13.58,7.47-21.07l6.29-8.43h-7.85C337.11,270.81,337.64,273.48,338.17,276.15ZM72.62,267.64c2.47,10,1.81,19.27.56,28.86h5.9c1-4.85,1.49-9.09,3-12.95.29-.74,4.94-.76,6.83.27,5.77,3.16,1.71,8.14,1.32,12.69H97.4v-28.9h-7c.23,4.12.42,7.63.61,11.13-3.39.16-8.68,1.67-9.74.17-1.78-2.51-.87-6.93-1.13-11.27Zm190.48-.11c4.15,10,1.76,19.39,1.63,29.05h6c.89-4.93,1.18-9.24,2.72-13,.34-.83,7.24-.49,7.49.38,1.18,4,1.07,8.36,1.47,13.14l6.76-.46c-1.36-10.05-2.63-19.43.85-28.82H281.5c.36,4.16,1.61,7.93.51,10.8-.49,1.27-6.37,2-8.67.75-5.25-2.74-1.11-7.47-.75-11.8ZM573,296.63c-.79-10.07-3.11-19.33,1.58-28.89h-8.39c0,4.24.86,8-.39,10.9-.56,1.28-7.6,1.53-7.85.86-1.31-3.63-1.41-7.7-2-11.93h-7.17V297.2l7-.47c.65-5,.9-9.32,2-13.38.19-.68,4.75-1.19,6.35-.23,5.7,3.46,2.06,8.73,1.47,13.51ZM422.15,266.46v30h7.38c-.24-4.08-.45-7.58-.72-12.16,6.78,4,7.61,13.26,17.63,12.32-3.68-5-6.59-8.86-9.93-13.35a36.57,36.57,0,0,0,3.41-2.62c4.44-4.34,3.72-9.69-2.23-11.64C432.7,267.35,427.2,267.22,422.15,266.46ZM226.2,295.7c-2.15-2.75-3.73-5.31-5.83-7.34-3-2.95-3.67-5.15.33-7.89a6.39,6.39,0,0,0,.83-9.6c-3.71-3.79-15.17-5.18-19.07-3v28.53h6.78v-11l1.55-.76c2,2.65,3.91,5.37,6,7.91S220.84,298.7,226.2,295.7Zm-83.13-13.82a14.43,14.43,0,0,0,13.77,15.73c8.16.41,15-7.11,15.21-15.92.14-7.29-7-14.71-14.13-14.77C148.91,266.84,143.15,272.66,143.07,281.88Zm450.06-15c-8.8,0-13.59,5.57-13.59,15.74,0,8.82,5.59,14.83,13.76,14.8,7.87,0,14.67-7.34,14.68-15.81A14.63,14.63,0,0,0,593.13,266.92Zm-466.84,24c-11,4-13.81,4.41-14.18,1.94-.45-3.09-.57-7.22,1.13-9.29,1.12-1.36,5.69.1,9.46.35v-6.59c-2.26,1-3.58,2.07-4.93,2.1-1.85.05-4.46-.09-5.38-1.24s-1-4-.3-5.6c.49-1.19,2.76-2.32,4.21-2.29,3,.06,6,.91,10.4,1.68-1.29-2.07-2-4.42-2.89-4.46-6.48-.32-13-.18-18.58-.18V297.1h16.85C126.18,297.11,127.22,295,126.29,290.92Zm325.39,6.38c6.12,0,12.21.48,18.17-.2,2.85-.33,4.72-3.2,3.34-7.1-4.75,1.83-8.7,7.87-13.89,3.24-1.55-1.38-1.67-6.06-.58-8.34,3-6.28,7.4.33,11.91-.43-.14-1.8.33-4.12-.57-5s-3.22-.23-4.9-.43c-2.33-.28-4.83-.36-6.87-1.34-.64-.31-.69-4,.21-4.84a10.92,10.92,0,0,1,6.21-2.62c2.08-.17,4.27,1,6.42,1.5l1-.91c-.81-1.25-1.58-3.54-2.45-3.58-6.35-.31-12.73-.17-18.86-.17C453.89,277.27,452.94,286.51,451.68,297.3Zm-264-14.36c4.82,1,7.49-.5,9.43-4.3,1.71-3.36.45-5.93-1.69-8.11-3.66-3.71-14.59-4.73-18.48-2.73.36,5.21.91,9.9.93,14.58s-.48,9.37-.8,14.75l6.93-.38c0-8.39-.12-16.21.2-24,0-.74,3.21-2.3,4.23-1.87,4.17,1.79,4.53,5.15,1.45,8.58A27.29,27.29,0,0,0,187.68,282.94Zm336.25,4.49c-2,4-2.45,7.25.63,8.81a13.81,13.81,0,0,0,8.69,1c2.92-.68,6.7-2.36,7.88-4.73a7.8,7.8,0,0,0-2.74-10.17c-2.45-1.69-5.25-3.1-7.18-5.27-1.26-1.41-1.24-3.95-1.79-6,2.05.21,4.42-.14,6.05.8,1.36.77,1.85,3.06,2.72,4.69,4.23-7.71,3-9.1-4.85-9.64-4.86-.33-8.48,1.57-9.68,6s1.5,7.52,5.18,9.8a31.44,31.44,0,0,1,5.23,3.74c1.95,1.85,4.17,4.31,1.1,6.65a5.41,5.41,0,0,1-8-.92C526.2,291,525.39,289.58,523.93,287.43Zm-138.23-11c-.08,1-.08,1.72-.2,2.44-.25,1.44-.56,2.87-.84,4.31-1.38-.84-3.08-1.39-4.09-2.55-3.16-3.63-6-7.5-9.06-11.24-2.21-2.72-4.81-3-6.72-1.87v29.1h5.88a27.69,27.69,0,0,1-1.36-20c4.92,5.18,9.11,10.65,13.49,16,1.14,1.38,2.89,2.26,4.85,3.74C389.08,287.53,388.17,278.41,385.7,276.4ZM257.88,295.65c-3.77-8.54-7.3-17.21-11.45-25.57-1.25-2.53-3.94-1.49-5,.89-3.28,7.21-6.4,14.49-9.43,21.8a5.51,5.51,0,0,0,.08,3.65c.16.43,2.25.79,2.6.4.84-.92,1-2.4,1.75-3.49a32,32,0,0,1,4-5.31,4,4,0,0,1,2.32-.78c-.67-3.63-1.22-6.58-1.76-9.54l1.62-.46c.63.47,1.63.83,1.83,1.44,1.52,4.66,3.45,9.14,5.3,13.65C251.75,297.35,251.63,298.26,257.88,295.65ZM495,279.77c-5-3.61-8-6.68-6.87-12.28H477.82c6,9.41,15.25,16.68,9.89,28.95h9.39c-3.27-5.51-3.55-10.68-.89-15.38,2.55-4.49,6-8.43,9.3-12.87-3-1.47-5.85-2.86-7.49,1.07C496.75,272.28,496.17,275.59,495,279.77ZM404.9,296.51c-.76-2-1.73-3.33-1.7-4.67.07-2.7,0-5.85,1.28-8,1.7-2.74,4.53-1.69,7,.05.48.34,2.84-.75,2.86-1.25a5.19,5.19,0,0,0-1.24-3.82c-.6-.51-2.4.62-3.62.51-2-.17-4.64-.14-5.88-1.35-1-.95-.89-4-.06-5.45a6.23,6.23,0,0,1,4.82-2.37c2.64.07,5.24,1.18,9.48,2.27-1.25-2.39-1.93-5-2.76-5-6.16-.35-12.36-.19-17.8-.19v29.28ZM67.17,275.16c2.42-5.18,1.79-7.41-2.43-7.78a165.81,165.81,0,0,0-18.39-.33c-.9,0-2.09,1.79-2.5,3-.27.79.61,2,1,3a16.92,16.92,0,0,0,2.76-1.48c2.7-2.16,5-1.62,5.09,1.68.27,7.68.09,15.37.09,23.8l7-.37-1.55-1.13c0-7.2-.11-14.41.11-21.6a4.21,4.21,0,0,1,2.42-3.15c1.11-.3,2.71.63,3.88,1.38C65.49,272.7,66.05,273.8,67.17,275.16Zm291.15-7.47h-9.69c2.24,10,1.84,19.33.06,28.81h8.79C356.3,286.6,354.87,277.32,358.32,267.69Zm27.89,6.86,1.89.15q.88-3.42,1.79-6.85l-6.57-.72-.62,1.39Z"/><path class="cls-1" d="M510.43,227.53c-6.24,1.82-12.37,4.55-18.72,5.29-12.94,1.52-26,1.5-38.55-2.91A87.25,87.25,0,0,1,422.87,212c-17.82-16.33-30.48-36.43-42-57.34-5.34-9.73-10.44-13.09-20.57-12.25-3.18.26-4.74,1.39-4.67,4.95.22,10.16,0,20.34.15,30.51.14,10.66,2.06,12.79,12.32,15.16,1.67.38,3.06,2,4.58,3-1.67.72-3.32,2-5,2.07-14.17.22-28.33.25-42.49.18-1.23,0-2.45-1.2-3.68-1.84,1.05-1.11,2.07-2.25,3.15-3.32.2-.2.64-.16,1-.22,11.27-2.24,12.86-3.37,12.95-14.3.25-29.67.12-59.35-.15-89-.09-8.62-4-12.15-12.43-13.35-1.49-.21-2.81-1.61-4.22-2.47,1.47-1,2.92-2.73,4.4-2.74,17.16-.15,34.36-.54,51.49.26a60.71,60.71,0,0,1,21.51,5.29c12.19,5.46,18,18.64,15.81,31.87-1.93,11.53-8.39,19.67-18.2,25.51-6.71,4-6.86,4.12-2.6,10.57q13.84,21,28.06,41.83c1.1,1.6,3.28,2.46,5,3.67a38.3,38.3,0,0,0,2.69-4.44q24-55.62,48-111.25c.54-1.25,1.76-2.2,2.66-3.3.94,1.2,2.25,2.26,2.77,3.62,6.56,17.36,13.1,34.73,19.48,52.16,4.68,12.8,8.92,25.76,13.71,38.52A177.18,177.18,0,0,0,526,186.77c3.87,7.22,11.55,6.81,18.18,6.44,10.9-.61,13.57-4.39,13.71-17.58s0-26.67,0-40l0-40c0-1.5.06-3-.08-4.5-1-10.49-4.38-13.8-14.89-15-1.48-.16-2.82-1.42-4.23-2.18,1.48-1,2.95-2.82,4.45-2.84q22-.31,44,0c1.45,0,2.88,2,4.32,3-1.33.66-2.6,1.74-4,1.92-7.41,1-12.14,4.46-12.63,11.75-.78,11.79-.53,23.65-.5,35.47,0,3.66,3,3.86,5.81,3.86q22.5-.07,45-.11c3.67,0,7.34-.08,11,.12s5.38-1.19,5.36-4.83c-.07-11.17,0-22.34-.24-33.51-.18-7.59-3.94-11.36-11.58-12.31a5.59,5.59,0,0,1-2-.23c-1.25-.74-2.38-1.69-3.56-2.55,1.23-.94,2.35-2.39,3.71-2.68,2.07-.43,4.31,0,6.47,0l34.51,0c1.33,0,2.79-.33,4,.11,1.35.5,2.44,1.7,3.64,2.59-1.12.85-2.15,2.24-3.38,2.46-5.91,1-11.76,2.1-13.48,9.07a40.29,40.29,0,0,0-1.11,9.41q-.09,41,0,82a42.48,42.48,0,0,0,.9,7.43c1,5.18,3.89,8.34,9.38,8.67,1.33.09,2.86-.18,3.94.39,1.25.67,2.12,2.07,3.15,3.16-1.17.63-2.32,1.78-3.51,1.81-6.66.17-13.33,0-20,.06-8,.08-16,.4-24,.32-1.69,0-3.37-1.35-5.06-2.08a25.05,25.05,0,0,1,4.43-3.21,16.06,16.06,0,0,1,4.9-.78c4.93-.46,8-3.57,8.18-8,.53-15,.54-30,.41-45,0-1.23-2.65-3.47-4.09-3.48-19.16-.19-38.33,0-57.5,0-4.11,0-5.62,1.65-5.57,5.68.15,12.33,0,24.67.15,37,.13,9.16,3.1,12.52,11.81,14.29,1.29.26,3,.51,3.61,1.39a3.54,3.54,0,0,1-.38,3.5c-.84.7-2.53.5-3.84.5-28.83,0-57.67,0-86.49-.17-1.59,0-3.17-1.52-4.76-2.33,1.56-1,3-2.54,4.68-2.83,7.82-1.37,8.68-1.95,6.37-9.63-3-9.86-6.56-19.56-10.39-29.12-.7-1.74-3.79-3.5-5.84-3.57-10.32-.36-20.66-.15-31-.17-4.55,0-7,2-8.66,6.51-4.3,11.5-9.31,22.75-14.23,34-2.22,5.09-1.82,8.15,2.16,11.92,14.52,13.72,31.67,21.88,51.54,23.79,5.2.5,10.56-.58,15.84-1,1.72-.12,3.44-.33,5.15-.5ZM366.33,137A28.08,28.08,0,0,0,385.2,132c9.17-6.41,12.34-16.13,12.07-26.54-.14-5.67-1.93-12.17-5.18-16.73-7.61-10.69-19-12.9-31.52-10.72-3.61.63-4.95,2.49-4.91,6.16.16,14.31.11,28.63.11,42.95C355.77,138.07,355.37,137.12,366.33,137Zm108.11,6.2v.08c4.48,0,9,.06,13.45,0,2.94-.05,4.39-1.28,3.19-4.44-1.11-2.93-2.11-5.9-3.16-8.86-3.27-9.16-6.51-18.34-9.87-27.47a21.35,21.35,0,0,0-2.39-3.85c-1,1.19-2.45,2.21-3,3.58-5.1,12-10,24.08-15.07,36.1-1.31,3.13-.6,4.83,2.93,4.86C465.14,143.18,469.79,143.15,474.44,143.15Z"/><path class="cls-1" d="M98.77,203.1c-25.85.12-46.6-7-64.45-21.56C22.43,171.84,14,159.33,8.12,145A109.06,109.06,0,0,1,12,53.85C21.31,35.59,34.76,21,53,11.54,76.74-.79,101.9-3,127.64,3.7c27.45,7.09,46.83,24.27,59,49.64,8.76,18.26,11.53,37.43,9.5,57.69-1.57,15.68-5.52,30.5-13.25,43.95-10.18,17.72-24.64,31.35-43.7,39.45C125.45,200.27,111.15,203.74,98.77,203.1ZM173.06,97.77C173.58,86,170.4,69,162.51,53.24c-11.91-23.8-29.13-41.31-57.08-44.68A56.17,56.17,0,0,0,72,14.44C46.56,27.81,32.88,50.13,27.28,77.25c-6.1,29.56-2,58.09,14.58,83.9,11.59,18,27.93,30.22,49.38,33.24,19.94,2.81,37.7-4.11,52-17.9C163.69,156.75,172.55,131.8,173.06,97.77Z"/><path class="cls-1" d="M240.78,198.22c-7.32,0-14.66.12-22-.1-1.48,0-2.93-1.34-4.39-2.06,1.47-1,2.84-2.78,4.42-3,9-1.24,11.36-2.75,12-11.57.83-11.27.8-22.61.89-33.92.14-16.33.09-32.66,0-49a70.19,70.19,0,0,0-.79-9.92c-1.23-8.46-3.43-10.54-11.9-12.36-1.51-.32-2.8-1.67-4.2-2.54,1.54-.91,3.06-2.59,4.6-2.6,17.66-.15,35.35-.69,53,.23,12.25.64,24.12,4.11,31.56,15.35,10.74,16.2,6,38.26-8.75,49.58-12.52,9.57-26.48,11.59-41.47,8-3.18-.76-5.18-.12-5.14,3.19.14,12.12.5,24.25.85,36.37.17,5.79,3.79,8.13,9.06,8.66,1.82.19,3.77,0,5.42.65,1.45.55,2.55,2,3.8,3-1.33.7-2.65,2-4,2-7.65.19-15.31.09-23,.09Zm7.87-90.86h-.14c0,8.17-.15,16.34.12,24.5.06,1.79,1.29,4.71,2.57,5.09,8.33,2.46,16.83,2.72,24.78-1.33,10.94-5.58,14.42-15.62,14.68-27,.19-8.24-.43-16.52-6.86-22.77-8.49-8.27-19-9.48-30.15-8-3.67.47-5.1,2.43-5,6.08C248.75,91.68,248.65,99.52,248.65,107.36Z"/><path class="cls-1" d="M427.27,275.46l4.87-5.26,5.06,5.49q-2.81,2.44-5.63,4.87Z"/><path class="cls-1" d="M207,275.2l5.31-5.13c1.53,1.87,3.95,3.56,4.38,5.65.62,3-2,5.22-4.89,4.76C210.29,280.25,209.14,277.69,207,275.2Z"/><path class="cls-1" d="M147.6,280.57c2.29-3.36,4.1-7.74,7.36-10.17,2.28-1.71,6.19-.34,8.42,3s3.37,12.62.83,16.19c-1.44,2-4.17,4-6.49,4.23-2,.19-5-1.63-6.28-3.44C149.69,288,149.12,284.68,147.6,280.57Z"/><path class="cls-1" d="M585.31,281.47a32.31,32.31,0,0,1,1.14-6.29c2.23-6.13,8.72-7,12.74-1.94,3.55,4.48,3.27,13.14-.16,17.72-2.07,2.74-4.79,4.39-7.58,2.94-2.33-1.22-4-4-5.45-6.47C585.24,286.14,585.58,284.19,585.31,281.47Z"/></g></g></svg>