<svg xmlns="http://www.w3.org/2000/svg" viewBox="0 0 56 70"><defs><style>.cls-1{fill:#fff;}</style></defs><g id="Layer_2" data-name="Layer 2"><g id="curriculum-vitae"><path class="cls-1" d="M0,2V68a2,2,0,0,0,2,2H54a2,2,0,0,0,2-2V2a2,2,0,0,0-2-2H2A2,2,0,0,0,0,2ZM4,4H52V66H4Z"/><path class="cls-1" d="M20.77,26a7.67,7.67,0,0,0,5.72-2.59,2,2,0,1,0-2.92-2.73l-.06.07A3.64,3.64,0,0,1,20.77,22,3.89,3.89,0,0,1,17,18a3.89,3.89,0,0,1,3.77-4,3.64,3.64,0,0,1,2.74,1.25,2,2,0,0,0,3-2.66A7.67,7.67,0,0,0,20.77,10,7.9,7.9,0,0,0,13,18,7.9,7.9,0,0,0,20.77,26Zm13.38-1.23a2,2,0,0,0,2.62,1.08,2,2,0,0,0,1.08-1.08l5-12a2,2,0,0,0-3.67-1.6l0,.06L36,18.8l-3.15-7.57a2,2,0,0,0-3.72,1.48l0,.06ZM47,34H9a2,2,0,0,0,0,4H47a2,2,0,0,0,0-4Zm0,11H9a2,2,0,0,0,0,4H47a2,2,0,0,0,0-4Zm0,11H9a2,2,0,0,0,0,4H47a2,2,0,0,0,0-4Z"/></g></g></svg>