<svg xmlns="http://www.w3.org/2000/svg" xmlns:xlink="http://www.w3.org/1999/xlink" viewBox="0 0 124.06 124.06"><defs><style>.cls-1{fill:url(#New_Gradient_Swatch_3);}.cls-2{fill:#fff;}</style><radialGradient id="New_Gradient_Swatch_3" cx="12.64" cy="124.5" r="144.64" gradientUnits="userSpaceOnUse"><stop offset="0" stop-color="#fccc63"/><stop offset="0.06" stop-color="#fac662"/><stop offset="0.15" stop-color="#f6b55e"/><stop offset="0.24" stop-color="#ef9a59"/><stop offset="0.34" stop-color="#e57451"/><stop offset="0.44" stop-color="#d94848"/><stop offset="0.64" stop-color="#d90467"/><stop offset="0.79" stop-color="#c32aa3"/><stop offset="1" stop-color="#4c68d7"/></radialGradient></defs><g id="Layer_2" data-name="Layer 2"><g id="Layer_1-2" data-name="Layer 1"><circle class="cls-1" cx="62.03" cy="62.03" r="62.03"/><circle class="cls-2" cx="81.66" cy="42.53" r="5.29"/><path class="cls-2" d="M62.16,42.53A19.5,19.5,0,1,0,81.66,62,19.49,19.49,0,0,0,62.16,42.53Zm0,31.91A12.41,12.41,0,1,1,74.57,62,12.41,12.41,0,0,1,62.16,74.44Z"/><path class="cls-2" d="M78,24.71H46.3A21.45,21.45,0,0,0,24.85,46.17V77.89A21.45,21.45,0,0,0,46.3,99.35H78A21.46,21.46,0,0,0,99.48,77.89V46.17A21.46,21.46,0,0,0,78,24.71ZM92.25,78A14.09,14.09,0,0,1,78.16,92.11h-32A14.09,14.09,0,0,1,32.08,78V46A14.09,14.09,0,0,1,46.17,32h32A14.09,14.09,0,0,1,92.25,46Z"/></g></g></svg>