<svg xmlns="http://www.w3.org/2000/svg" viewBox="0 0 124.06 124.06"><defs><style>.cls-1{fill:#08c;}.cls-2{fill:#ededed;}.cls-3{fill:#e2e2e2;}.cls-4{fill:#fff;}</style></defs><g id="Layer_2" data-name="Layer 2"><g id="Layer_1-2" data-name="Layer 1"><circle class="cls-1" cx="62.03" cy="62.03" r="62.03"/><path class="cls-2" d="M43.84,67.51l34.74-24.7L87,38.74,90.12,41,58,71.22l-4.4,1.08-1,18c-1.79,0-2-.57-2.29-1.79Z"/><path class="cls-3" d="M53.63,72.3l-1,18a4.06,4.06,0,0,0,3-1.3l8.92-8.66Z"/><path class="cls-4" d="M26.46,62.06c-4.31-1.24-3.42-4,.82-5.59l66.86-25.8c4.92-2.31,7.13.73,6,5L88.87,89.42c-.78,5.38-4.27,6-7.88,3L53.63,72.3l32-28.73c2.69-1.87.92-3-1.79-1.27l-40,25.21Z"/></g></g></svg>