<svg xmlns="http://www.w3.org/2000/svg" viewBox="0 0 124.06 124.06"><defs><style>.cls-1{fill:#00f4f8;}.cls-2{fill:#ff2357;}.cls-3{fill:#fff;}</style></defs><g id="Layer_2" data-name="Layer 2"><g id="Layer_1-2" data-name="Layer 1"><circle cx="62.03" cy="62.03" r="62.03"/><path class="cls-1" d="M56.65,89.88A11.69,11.69,0,0,0,68.34,78.19c0-.19,0-.38,0-.57l0,0V29.28h8.74c-.31-1-.59-2-.83-3.1h-11V74.55l0,0c0,.18,0,.37,0,.56A11.69,11.69,0,0,1,47,84.76,11.67,11.67,0,0,0,56.65,89.88Z"/><path class="cls-1" d="M93.21,46.14V43.8A20.63,20.63,0,0,1,84,39.87,18.54,18.54,0,0,0,93.21,46.14Z"/><path class="cls-1" d="M56.42,55.49l0-2.91a23,23,0,0,0-2.9-.19A22.7,22.7,0,0,0,39.12,92.62a22.71,22.71,0,0,1,17.3-37.13Z"/><path d="M79.35,51.09q.38.33.75.63c-.25-.32-.5-.64-.75-1Z"/><path class="cls-2" d="M76.25,47.64V78.39l-.2-.39A22.7,22.7,0,0,1,39.12,92.62a22.69,22.69,0,0,0,40-11.52l.21.39V51.09A21,21,0,0,1,76.25,47.64Z"/><path class="cls-2" d="M84,39.87a25.7,25.7,0,0,1-4.65-10.59H77.08A21,21,0,0,0,84,39.87Z"/><path class="cls-2" d="M93.21,46.14v10c-5.17-.42-9.46-1.52-13.11-4.41,4.27,5.28,9.5,7,16.21,7.51V46.9A26.49,26.49,0,0,1,93.21,46.14Z"/><path class="cls-2" d="M53.55,63.4A11.69,11.69,0,0,0,47,84.76,11.69,11.69,0,0,1,56.65,66.5a11.48,11.48,0,0,1,2.77.34l.13-11.16a21.4,21.4,0,0,0-2.9-.19h-.23l-.09,8.25A12.09,12.09,0,0,0,53.55,63.4Z"/><path class="cls-3" d="M93.21,46.14A18.54,18.54,0,0,1,84,39.87a21,21,0,0,1-6.92-10.59H68.34V77.65l0,0c0,.19,0,.38,0,.57A11.69,11.69,0,0,1,47,84.76,11.69,11.69,0,0,1,53.55,63.4a12.09,12.09,0,0,1,2.78.34l.09-8.25a22.71,22.71,0,0,0-17.3,37.13A22.7,22.7,0,0,0,76.05,78l.2.39V47.64a21,21,0,0,0,3.1,3.45v-.35c.25.34.5.66.75,1,3.65,2.89,7.94,4,13.11,4.41Z"/></g></g></svg>