<svg xmlns="http://www.w3.org/2000/svg" viewBox="0 0 124.06 124.06"><defs><style>.cls-1{fill:#5cc928;}.cls-2{fill:#fff;}</style></defs><g id="Layer_2" data-name="Layer 2"><g id="Layer_1-2" data-name="Layer 1"><circle class="cls-1" cx="62.03" cy="62.03" r="62.03"/><path class="cls-2" d="M79.29,49.57C78.21,35.83,65.15,25,49.19,25,32.53,25,19,36.81,19,51.4,19,60.17,23.9,68,31.41,72.75,33,75.23,31,77.32,30.22,83.06c4.06-2.38,7.26-5.33,11.38-6.08a34.35,34.35,0,0,0,7.59.85c.6,0,1.2,0,1.8,0a21.7,21.7,0,0,1-.2-2.92C50.79,60.91,63.54,49.6,79.29,49.57Z"/><path class="cls-2" d="M64.44,56.54c-12.75,8.35-14.32,24-3.31,34.16a25.5,25.5,0,0,0,20.66,6.74c2.57-.27,5.16-1.69,7.62-1.43S94.2,98,96.72,99.08a7.74,7.74,0,0,0-.49-1.87c-1.58-2.88-.69-4.68,1.77-6.86,8.51-7.55,9.32-19.48,2.36-28.46C92.37,51.6,75.76,49.12,64.44,56.54Zm3.5,14.68a3,3,0,1,1,3-2.85A3,3,0,0,1,67.94,71.22Zm18.52,0a2.94,2.94,0,0,1-2.92-3.08,2.94,2.94,0,1,1,5.87.25A2.91,2.91,0,0,1,86.46,71.2Z"/><path class="cls-1" d="M42,45.93A3.63,3.63,0,1,1,38.4,42.3,3.62,3.62,0,0,1,42,45.93Z"/><path class="cls-1" d="M64.86,45.93a3.63,3.63,0,1,1-3.63-3.63A3.62,3.62,0,0,1,64.86,45.93Z"/><circle class="cls-1" cx="67.95" cy="68.24" r="2.97"/><path class="cls-1" d="M89.45,68.22a3,3,0,1,1-3-3A3,3,0,0,1,89.45,68.22Z"/></g></g></svg>