<svg xmlns="http://www.w3.org/2000/svg" viewBox="0 0 124.06 124.06"><defs><style>.cls-1{fill:#4fce5d;}.cls-2{fill:#fff;}</style></defs><g id="Layer_2" data-name="Layer 2"><g id="Layer_1-2" data-name="Layer 1"><circle class="cls-1" cx="62.03" cy="62.03" r="62.03"/><path class="cls-2" d="M62.43,25.28a36.41,36.41,0,0,0-32,53.8L25.2,98.78l20.12-4.92A36.43,36.43,0,1,0,62.43,25.28Zm-.07,66.93a30.37,30.37,0,0,1-14.3-3.58L31.25,92.74l4.36-16.46A30.44,30.44,0,1,1,62.36,92.21Z"/><path class="cls-2" d="M49.11,44.68c5.27.78,7.15,4.62,7,10.25l-2.88,4c4.21,6.41,8.78,9.84,13.61,11.05l4-4.35c4.41.38,8,2,9.45,6.75C77.14,93.47,27.6,61.79,49.11,44.68Z"/></g></g></svg>