<?xml version="1.0" encoding="utf-8"?>
<!-- Generator: Adobe Illustrator 24.1.2, SVG Export Plug-In . SVG Version: 6.00 Build 0)  -->
<svg version="1.1" id="Layer_1" xmlns="http://www.w3.org/2000/svg" xmlns:xlink="http://www.w3.org/1999/xlink" x="0px" y="0px"
	 viewBox="0 0 256 256" style="enable-background:new 0 0 256 256;" xml:space="preserve">
<style type="text/css">
	.st0{fill:#666666;}
	.st1{fill:#FFFFFF;}
</style>
<g transform="translate(1.4065934065934016 1.4065934065934016) scale(2.81 2.81)">
	<path class="st0" d="M45,90C20.2,90,0,69.8,0,45S20.2,0,45,0s45,20.2,45,45S69.8,90,45,90z"/>
	<path class="st1" d="M31.7,69.6c-1.8,0-3.5-0.7-4.8-2l-5.4-5.4c-2.7-2.7-2.7-7,0-9.6l15.8-15.8c2.7-2.7,7-2.7,9.6,0l1.3,1.3
		c1.2,1.2,1.2,3.1,0,4.2c-1.2,1.2-3.1,1.2-4.2,0L42.6,41c-0.3-0.3-0.8-0.3-1.2,0L25.7,56.8c-0.3,0.3-0.3,0.8,0,1.2l5.4,5.4
		c0.2,0.2,0.4,0.2,0.6,0.2c0.2,0,0.4,0,0.6-0.2l4.5-4.5c1.2-1.2,3.1-1.2,4.2,0c1.2,1.2,1.2,3.1,0,4.2l-4.5,4.5
		C35.2,68.9,33.5,69.6,31.7,69.6z"/>
	<path class="st1" d="M46,55.3c-1.7,0-3.5-0.7-4.8-2L39.8,52c-1.2-1.2-1.2-3.1,0-4.2c1.2-1.2,3.1-1.2,4.2,0l1.3,1.3
		c0.3,0.3,0.8,0.3,1.2,0l15.8-15.8c0.2-0.2,0.2-0.4,0.2-0.6c0-0.2,0-0.4-0.2-0.6l-5.4-5.4c-0.3-0.3-0.8-0.3-1.2,0l-4.5,4.5
		c-1.2,1.2-3.1,1.2-4.2,0c-1.2-1.2-1.2-3.1,0-4.2l4.5-4.5c2.7-2.7,7-2.7,9.6,0l5.4,5.4c1.3,1.3,2,3,2,4.8c0,1.8-0.7,3.5-2,4.8
		L50.8,53.3C49.4,54.6,47.7,55.3,46,55.3z"/>
</g>
</svg>
