<svg xmlns="http://www.w3.org/2000/svg" viewBox="0 0 124.06 124.06"><defs><style>.cls-1{fill:#006192;}.cls-2{fill:#fff;}</style></defs><g id="Layer_2" data-name="Layer 2"><g id="Layer_1-2" data-name="Layer 1"><circle class="cls-1" cx="62.03" cy="62.03" r="62.03"/><path class="cls-2" d="M26.09,33.14a6.83,6.83,0,0,1,2.34-5.36,8.71,8.71,0,0,1,6-2.07,8.61,8.61,0,0,1,6,2.11,6.88,6.88,0,0,1,2.32,5.32,7,7,0,0,1-2.36,5.41,8.56,8.56,0,0,1-6,2.16,8.49,8.49,0,0,1-6-2.18A7.07,7.07,0,0,1,26.09,33.14Zm1.07,65.13V49H41.5V98.27Z"/><path class="cls-2" d="M98.23,98.27H83.94V70.8q0-11.92-8.59-11.93a8.58,8.58,0,0,0-6.81,3.18,12.1,12.1,0,0,0-2.72,8.13V98.27H51.45V49H65.82v7.84H66a17.35,17.35,0,0,1,15.85-9q16.38,0,16.38,20.3Z"/></g></g></svg>