<svg xmlns="http://www.w3.org/2000/svg" viewBox="0 0 75.07 8"><defs><style>.cls-1{fill:none;}.cls-2{fill:#f5f5f5;}</style></defs><g id="Layer_2" data-name="Layer 2"><g id="Layer_1-2" data-name="Layer 1"><path class="cls-1" d="M0,7.81a.06.06,0,0,1,.05-.06.06.06,0,0,1,.06.06.06.06,0,0,1-.06.05A.05.05,0,0,1,0,7.81Z"/><path class="cls-2" d="M4.53,0C6.74,0,7.21,1.19,7.21,1.19H5.8A1.59,1.59,0,0,0,4.24.3C2.65.3,1.81,1.76,1.78,4c0,1.86.91,3.76,3,3.76.75,0,1.43-.39,1.43-.94V4.89A1.9,1.9,0,0,0,5.9,4l1.51-.5V6.88A3.53,3.53,0,0,1,4.46,8a3.7,3.7,0,0,1-4-3.92A3.8,3.8,0,0,1,4.53,0Z"/><path class="cls-2" d="M16.63,4a4,4,0,1,1-8,0,4,4,0,1,1,8,0ZM15.38,4C15.18,1.93,14,.34,12.28.34S9.7,1.93,9.91,4,11.36,7.68,13,7.68,15.58,6.07,15.38,4Z"/><path class="cls-2" d="M26.21,6.94a1.9,1.9,0,0,0,.35.92H24.69A1.93,1.93,0,0,0,25,6.94V1.4L21.87,7.93h-.18L18.33,1.18V6.94a2,2,0,0,0,.31.92h-.85a2,2,0,0,0,.31-.92V1.06a2,2,0,0,0-.31-.92h1.26l3.21,6.47L25,.91V.14h1.53a1.9,1.9,0,0,0-.35.92Z"/><path class="cls-2" d="M35.7,4a4,4,0,0,1-8,0,4,4,0,1,1,8,0ZM34.44,4C34.25,1.93,33.06.34,31.35.34S28.77,1.93,29,4s1.45,3.67,3.11,3.67S34.65,6.07,34.44,4Z"/><path class="cls-2" d="M45.91,1a1.24,1.24,0,0,0-1-.64H43.43V6.94a1.93,1.93,0,0,0,.34.92H41.92a1.93,1.93,0,0,0,.34-.92V.37h-1.5a1.26,1.26,0,0,0-1,.64l.09-.94a6,6,0,0,0,.9.07h4.16a6,6,0,0,0,.91-.07Z"/><path class="cls-2" d="M47.25,1.06a1.93,1.93,0,0,0-.34-.92h1.85a1.93,1.93,0,0,0-.34.92v4.2c0,1.44.53,2.49,2,2.49a2.23,2.23,0,0,0,2.23-2.5V1.06A2,2,0,0,0,52.3.14h.85a2,2,0,0,0-.31.92V5.28A2.52,2.52,0,0,1,50.18,8c-2.71,0-2.93-1.74-2.93-2.69Z"/><path class="cls-2" d="M54.64,1.06a2,2,0,0,0-.33-.92h1.84a2,2,0,0,0-.33.92V6.94c0,.3.13.69.44.69h1.63a1.57,1.57,0,0,0,1.48-.79l-.11,1H54.31a2,2,0,0,0,.33-.92Z"/><path class="cls-2" d="M65.1,7.86A1.34,1.34,0,0,0,64.8,7l-2.22-3.3-.49.47V6.94a1.93,1.93,0,0,0,.34.92H60.58a1.93,1.93,0,0,0,.34-.92V1.06a1.93,1.93,0,0,0-.34-.92h1.85a1.93,1.93,0,0,0-.34.92v2.8L65,1.06a.88.88,0,0,0,.25-.92h1.16s-.73.56-1.11.92L63.39,2.91l2.71,4a3.83,3.83,0,0,0,.85.92Z"/><path class="cls-2" d="M68.22,1.06a2,2,0,0,0-.33-.92h1.85a1.93,1.93,0,0,0-.34.92v4.2c0,1.44.53,2.49,1.95,2.49a2.24,2.24,0,0,0,2.24-2.5V1.06a2,2,0,0,0-.32-.92h.86a2,2,0,0,0-.32.92V5.28A2.51,2.51,0,0,1,71.15,8c-2.71,0-2.93-1.74-2.93-2.69Z"/><path class="cls-1" d="M75,7.81A.06.06,0,0,1,75,7.75a.06.06,0,0,1,.06.06.06.06,0,0,1-.06.05A0,0,0,0,1,75,7.81Z"/></g></g></svg>