<svg xmlns="http://www.w3.org/2000/svg" viewBox="0 0 136.95 10.58"><defs><style>.cls-1{fill:none;}.cls-2{fill:#f5f5f5;}</style></defs><g id="Layer_2" data-name="Layer 2"><g id="Layer_1-2" data-name="Layer 1"><path class="cls-1" d="M0,7.81a.06.06,0,0,1,.05-.06.06.06,0,0,1,0,.12A.06.06,0,0,1,0,7.81Z"/><path class="cls-2" d="M11.62.14a2.85,2.85,0,0,0-.51.92L8.46,7.93H7.83L6,3.24,4.19,7.93H3.56L.88,1.06A2.74,2.74,0,0,0,.34.14H2.09a1.38,1.38,0,0,0,0,.92L4.36,6.88,5.87,2.93,5.8,2.75l0-.11L5.15,1.06A2.55,2.55,0,0,0,4.61.14H6.36a1.35,1.35,0,0,0,0,.92L8.63,6.87l2.23-5.81a1,1,0,0,0-.23-.92Z"/><path class="cls-2" d="M16.47,4.86H12.59v0c0,3.32,2.81,2.84,3.55,1.91l.18.11A2.54,2.54,0,0,1,14.13,8a2.57,2.57,0,0,1-2.76-2.77,2.6,2.6,0,0,1,2.7-2.66,2.19,2.19,0,0,1,2.4,2.06Zm-3.86-.23h2.65c0-1.13-.53-1.85-1.31-1.85S12.69,3.56,12.61,4.63Z"/><path class="cls-2" d="M21.1,1.42A2,2,0,0,0,20.77.5L22.28,0V7a2,2,0,0,0,.33.9H20.77A2,2,0,0,0,21.1,7Z"/><path class="cls-2" d="M23.77,5.36A2.61,2.61,0,0,1,26.5,2.57a2.66,2.66,0,0,1,2.76,2.64A2.61,2.61,0,0,1,26.49,8,2.66,2.66,0,0,1,23.77,5.36ZM25,5.3c.18,1.39.91,2.47,1.85,2.42s1.36-1,1.2-2.42-.93-2.51-1.86-2.46S24.81,3.91,25,5.3Z"/><path class="cls-2" d="M34.92,2.71a2.81,2.81,0,0,0-.49.89L32.77,7.93h-.65L30.44,3.61a2.4,2.4,0,0,0-.53-.9h1.75a1.32,1.32,0,0,0,0,.9l1.27,3.27,1.25-3.27a1,1,0,0,0-.22-.9Z"/><path class="cls-2" d="M40.71,4.86H36.83v0c0,3.32,2.81,2.84,3.55,1.91l.18.11A2.54,2.54,0,0,1,38.37,8a2.57,2.57,0,0,1-2.76-2.77,2.6,2.6,0,0,1,2.7-2.66,2.19,2.19,0,0,1,2.4,2.06Zm-3.86-.23H39.5c0-1.13-.53-1.85-1.31-1.85S36.93,3.56,36.85,4.63Z"/><path class="cls-2" d="M48.52,7.86a1.89,1.89,0,0,0,.35-.9V4.43c0-1.78-2.34-1.73-2.34.26V7a1.89,1.89,0,0,0,.35.9H45a1.92,1.92,0,0,0,.34-.9V1.42A1.93,1.93,0,0,0,45,.5L46.53,0V3.65a2,2,0,0,1,1.73-1.08A1.67,1.67,0,0,1,50,4.44V7a1.89,1.89,0,0,0,.35.9Z"/><path class="cls-2" d="M56.61,4.86H52.73v0c0,3.32,2.81,2.84,3.55,1.91l.18.11A2.54,2.54,0,0,1,54.27,8a2.57,2.57,0,0,1-2.76-2.77,2.6,2.6,0,0,1,2.7-2.66,2.19,2.19,0,0,1,2.4,2.06Zm-3.86-.23H55.4c0-1.13-.53-1.85-1.31-1.85S52.83,3.56,52.75,4.63Z"/><path class="cls-2" d="M57.7,6.73C57.7,5,61,4.5,61,4.5c0-1.19,0-1.73-.8-1.72s-.76.72-.76.72H58.19s.27-.93,2-.93,2,.57,2,1.74V7a2.16,2.16,0,0,0,.28.9H61V7.27A2.91,2.91,0,0,1,59.24,8C58.41,8,57.7,7.63,57.7,6.73Zm3.26-2s-2,.55-2,1.92,1.5.87,2,.34Z"/><path class="cls-2" d="M64,4.11a1.87,1.87,0,0,0-.34-.9l1.51-.5v1s.21-1.11,1.22-1.16c1.5-.08,1.54,1,1.54,1H66.71S66.63,3,66.1,3s-.94,1.19-.94,2.28V7a1.86,1.86,0,0,0,.36.9H63.65A1.92,1.92,0,0,0,64,7Z"/><path class="cls-2" d="M69.31,3.91a1,1,0,0,0-.35-.7l1.52-.5V7a1.89,1.89,0,0,0,.35.9H69a1.89,1.89,0,0,0,.35-.9Zm-.17-2.85a.7.7,0,0,1,.69-.71.71.71,0,0,1,.71.71.71.71,0,0,1-.71.7A.7.7,0,0,1,69.14,1.06Z"/><path class="cls-2" d="M72.56,4.11a1.84,1.84,0,0,0-.35-.9l1.52-.5v.94a2,2,0,0,1,1.73-1.08,1.74,1.74,0,0,1,1.79,1.94V7a1.92,1.92,0,0,0,.34.9H75.72a1.89,1.89,0,0,0,.35-.9V4.5c0-1.83-2.34-1.86-2.34.13V7a1.89,1.89,0,0,0,.35.9H72.21a1.89,1.89,0,0,0,.35-.9Z"/><path class="cls-2" d="M84.17,9.16c0,1-1.68,1.42-2.91,1.42-.78,0-2.67-.22-2.67-1.33,0-.66.72-1.06,1.11-1.21a.74.74,0,0,1-.52-.74c0-.42.47-.67.7-.76a2.1,2.1,0,0,1-1-1.79,2.31,2.31,0,0,1,2.47-2.18,2.55,2.55,0,0,1,1.58.5,1.79,1.79,0,0,1,1-.5l.25.63a2.14,2.14,0,0,0-1.08,0,2.05,2.05,0,0,1,.67,1.5,2.3,2.3,0,0,1-2.47,2.19,2.8,2.8,0,0,1-1.25-.28.59.59,0,0,0-.32.45C79.73,8.1,84.17,7.11,84.17,9.16Zm-1.28.16c0-1-1.81-.88-2.91-1.19a1.33,1.33,0,0,0-.65,1.08c0,.73,1,1.06,1.91,1.06S82.89,10,82.89,9.32ZM80.08,4.76c.17,1.13.74,2,1.57,2s1.12-1,1-2S81.88,2.81,81,2.81,79.91,3.65,80.08,4.76Z"/><path class="cls-2" d="M91,1s0-.82-.49-.82S90,.86,90,1.81v.92h.68V3H90V7a1.92,1.92,0,0,0,.34.9H88.49a1.89,1.89,0,0,0,.35-.9V3h-.3V2.73h.3V1.81C88.84.66,89.07,0,90.65,0,92.08,0,92,1,92,1Z"/><path class="cls-2" d="M92.21,4.11a1.9,1.9,0,0,0-.33-.9l1.51-.5v1s.2-1.11,1.21-1.16c1.5-.08,1.55,1,1.55,1H94.94S94.85,3,94.32,3s-.93,1.19-.93,2.28V7a1.86,1.86,0,0,0,.36.9H91.88a2,2,0,0,0,.33-.9Z"/><path class="cls-2" d="M96.81,5.36a2.62,2.62,0,0,1,2.73-2.79,2.66,2.66,0,0,1,2.76,2.64A2.61,2.61,0,0,1,99.53,8,2.66,2.66,0,0,1,96.81,5.36ZM98,5.3c.18,1.39.91,2.47,1.85,2.42s1.37-1,1.2-2.42-.92-2.51-1.86-2.46S97.85,3.91,98,5.3Z"/><path class="cls-2" d="M110.5,7.86a1.89,1.89,0,0,0,.35-.9V4.43a1.17,1.17,0,1,0-2.33,0V7a1.89,1.89,0,0,0,.35.9H107a1.92,1.92,0,0,0,.34-.9V4.5A1.16,1.16,0,1,0,105,4.43V7a1.92,1.92,0,0,0,.34.9h-1.87a1.89,1.89,0,0,0,.35-.9V4.11a1.84,1.84,0,0,0-.35-.9l1.53-.5v.94a2,2,0,0,1,1.7-1.08,1.64,1.64,0,0,1,1.7,1.14,2,2,0,0,1,1.86-1.14A1.7,1.7,0,0,1,112,4.51V7a1.89,1.89,0,0,0,.35.9Z"/><path class="cls-2" d="M121.47,2.71a2.15,2.15,0,0,0-.48.83l-2.2,5.74c-.48,1.3-.89,1.27-1.33,1.3V9.71c.6,0,.94-.21,1.51-1.57L117,3.54a2.13,2.13,0,0,0-.5-.83h1.75a1,1,0,0,0,0,.83l1.26,3.24,1.24-3.24a.8.8,0,0,0-.25-.83Z"/><path class="cls-2" d="M122.19,5.36a2.62,2.62,0,0,1,2.73-2.79,2.66,2.66,0,0,1,2.76,2.64A2.61,2.61,0,0,1,124.91,8,2.66,2.66,0,0,1,122.19,5.36Zm1.22-.06c.18,1.39.91,2.47,1.85,2.42s1.37-1,1.2-2.42-.92-2.51-1.86-2.46S123.23,3.91,123.41,5.3Z"/><path class="cls-2" d="M133.8,7a1.89,1.89,0,0,0,.35.9h-1.52V7a1.93,1.93,0,0,1-1.73,1,1.67,1.67,0,0,1-1.79-1.87V3.91a1,1,0,0,0-.34-.7l1.52-.5V6.25c0,1.58,2.34,1.74,2.34-.24V3.91a1,1,0,0,0-.35-.7l1.52-.5Z"/><path class="cls-2" d="M135.62,7.54a.67.67,0,0,1,.67-.66.65.65,0,0,1,.66.66.67.67,0,1,1-1.33,0Zm1-1.16H136L135.7,0h1.16Z"/></g></g></svg>