<svg xmlns="http://www.w3.org/2000/svg" viewBox="0 0 52.43 8.22"><defs><style>.cls-1{fill:none;}.cls-2{fill:#f5f5f5;}</style></defs><g id="Layer_2" data-name="Layer 2"><g id="Layer_1-2" data-name="Layer 1"><path class="cls-1" d="M0,7.81a.06.06,0,0,1,.05-.06.06.06,0,0,1,0,.12A.06.06,0,0,1,0,7.81Z"/><path class="cls-2" d="M11.62.14a2.85,2.85,0,0,0-.51.92L8.46,7.93H7.83L6,3.24,4.19,7.93H3.56L.88,1.06A2.74,2.74,0,0,0,.34.14H2.09a1.38,1.38,0,0,0,0,.92L4.36,6.88,5.87,2.93,5.8,2.75l0-.11L5.15,1.06A2.55,2.55,0,0,0,4.61.14H6.36a1.35,1.35,0,0,0,0,.92L8.63,6.87l2.23-5.81a1,1,0,0,0-.23-.92Z"/><path class="cls-2" d="M16.47,4.86H12.59v0c0,3.32,2.81,2.84,3.55,1.91l.18.11A2.54,2.54,0,0,1,14.13,8a2.57,2.57,0,0,1-2.76-2.77,2.6,2.6,0,0,1,2.7-2.66,2.19,2.19,0,0,1,2.4,2.06Zm-3.86-.23h2.65c0-1.13-.53-1.85-1.31-1.85S12.69,3.56,12.61,4.63Z"/><path class="cls-2" d="M18,1.42A1.93,1.93,0,0,0,17.63.5L19.15,0V7a2,2,0,0,0,.33.9H17.63A1.92,1.92,0,0,0,18,7Z"/><path class="cls-2" d="M20.62,5.28a2.7,2.7,0,0,1,2.86-2.71c1.66,0,2,1,2,1H24.24a.94.94,0,0,0-1-.75c-.93,0-1.54,1.19-1.38,2.55A2.27,2.27,0,0,0,24,7.59a1.75,1.75,0,0,0,1.26-.47l.15.11a2.48,2.48,0,0,1-2,.77A2.6,2.6,0,0,1,20.62,5.28Z"/><path class="cls-2" d="M26.45,5.36a2.62,2.62,0,0,1,2.74-2.79A2.66,2.66,0,0,1,32,5.21,2.61,2.61,0,0,1,29.18,8,2.68,2.68,0,0,1,26.45,5.36Zm1.23-.06c.18,1.39.91,2.47,1.84,2.42s1.37-1,1.2-2.42-.92-2.51-1.86-2.46S27.5,3.91,27.68,5.3Z"/><path class="cls-2" d="M40.14,7.86a1.89,1.89,0,0,0,.35-.9V4.43a1.17,1.17,0,1,0-2.33,0V7a1.89,1.89,0,0,0,.35.9H36.64A1.89,1.89,0,0,0,37,7V4.5a1.17,1.17,0,1,0-2.33-.07V7a1.89,1.89,0,0,0,.35.9H33.14a1.89,1.89,0,0,0,.35-.9V4.11a1.84,1.84,0,0,0-.35-.9l1.52-.5v.94a2,2,0,0,1,1.7-1.08,1.66,1.66,0,0,1,1.71,1.14,2,2,0,0,1,1.86-1.14,1.69,1.69,0,0,1,1.73,1.94V7a1.89,1.89,0,0,0,.35.9Z"/><path class="cls-2" d="M48.23,4.86H44.36v0c0,3.32,2.8,2.84,3.55,1.91l.18.11a2.77,2.77,0,0,1-5-1.7,2.61,2.61,0,0,1,2.7-2.66,2.18,2.18,0,0,1,2.4,2.06Zm-3.86-.23H47c0-1.13-.53-1.85-1.31-1.85S44.45,3.56,44.37,4.63Z"/><path class="cls-1" d="M49.06,7.81a.06.06,0,0,1,.06-.06.06.06,0,0,1,0,.12A.06.06,0,0,1,49.06,7.81Z"/><path class="cls-2" d="M49.86,7.54a.67.67,0,0,1,.67-.66.65.65,0,0,1,.66.66.67.67,0,1,1-1.33,0Zm1-1.16h-.64L50,0h1.16Z"/><path class="cls-1" d="M52.32,7.81a.06.06,0,0,1,.06-.06.06.06,0,0,1,0,.12A.06.06,0,0,1,52.32,7.81Z"/></g></g></svg>