<?xml version="1.0" encoding="utf-8"?>
<!-- Generator: Adobe Illustrator 15.0.2, SVG Export Plug-In . SVG Version: 6.00 Build 0)  -->
<!DOCTYPE svg PUBLIC "-//W3C//DTD SVG 1.1//EN" "http://www.w3.org/Graphics/SVG/1.1/DTD/svg11.dtd">
<svg version="1.1" id="Livello_1" xmlns="http://www.w3.org/2000/svg" xmlns:xlink="http://www.w3.org/1999/xlink" x="0px" y="0px"
	 width="573px" height="42px" viewBox="0 0 573 42" enable-background="new 0 0 573 42" xml:space="preserve">
<g>
	<path fill="#141215" d="M451.928,15.62c-5.267-2.575-5.392-4.769-5.319-5.894c0.072-1.123,0.835-3.63,4.314-3.63
		c4.079,0,4.848,4.068,4.97,5.047c0.129,1.047,0.221,3.417,0.221,3.417h6.304l3.265-14.252l-5.81,0.013
		c-0.726,0-1.42,0.404-1.633,1.153l-0.316,1.049c-0.019,0.038-0.03,0.067-0.03,0.067s-2.658-2.621-7.549-2.579
		c-1.527,0.01-4.409-0.28-8.303,2.579c-4.26,3.127-4.808,7.397-4.911,9.007c-0.107,1.61-0.371,4.428,2.652,8.531
		c3.017,4.11,12.294,6.273,12.044,11.104c-0.224,4.297-3.556,4.563-4.348,4.563c-0.546,0-3.355,0.047-4.995-2.75
		c-0.891-1.522-1.523-4.157-1.715-5.709c-0.146-1.16-0.083-1.656-1.284-1.656c-1.191,0-5.238,0-5.238,0l-4.419,15.588h8.122
		l0.458-2.126c2.51,2.713,8.21,2.795,8.21,2.795c8.415,0,14.563-5.23,15.657-12.631C463.369,21.9,457.189,18.199,451.928,15.62z"/>
	<path fill="#141215" d="M60.721,0.359c-6.741-1.642-13.709,2.729-15.312,9.648L41.48,27.344c-1.325,6.71,2.778,12.627,9.347,14.231
		c6.568,1.596,13.675-1.511,15.381-8.207c0,0,3.88-16.857,3.914-16.997C72.02,7.506,67.567,2.023,60.721,0.359z M61.387,13.327
		l-3.945,17.318l-0.057,0.229c-0.402,1.645-1.803,2.797-3.407,2.797c-0.264,0-0.53-0.033-0.791-0.097
		c-1.844-0.448-3.003-2.399-2.582-4.35l0.033-0.166l3.974-17.422c0.38-1.676,1.792-2.848,3.429-2.848
		c0.262,0,0.525,0.032,0.782,0.093C60.695,9.344,61.85,11.322,61.387,13.327z"/>
	<path fill="#141215" d="M31.665,16.8h9.122l3.768-16.448c0,0-5.552,0-6.79,0c-1.237,0-1.94,2.223-1.94,2.223
		c-1.292-0.934-2.708-1.774-4.335-2.171c-6.742-1.643-13.54,2.718-15.286,9.603l-3.934,17.336
		c-1.391,6.82,2.714,12.628,9.279,14.231c6.568,1.596,13.829-1.596,15.455-8.207l2.156-9.297c0,0-6.811-0.003-7.209-0.003
		c-1.208,0-2.156,1.219-2.419,2.213l-1.08,4.664c-0.513,2.103-2.529,3.413-4.537,2.919c-2.01-0.485-3.249-2.587-2.799-4.703
		l-0.004-0.004c0,0,4.005-17.568,4.01-17.59c0.488-2.132,2.532-3.465,4.559-2.977c2.023,0.5,3.272,2.628,2.786,4.768
		C32.464,13.372,31.665,16.8,31.665,16.8z"/>
	<path fill="#141215" d="M98.93,33.836c-1.419-0.473-2.197-1.802-1.633-3.686c0.355-1.194,0.42-1.497,0.744-2.675
		c0.326-1.172,0.655-5.166-1.709-7.375c3.232-1.553,5.324-5.301,5.675-9.231c0.509-5.68-2.706-10.49-10.84-10.49
		c-4.209,0-14.041,0-14.654,0c-0.729,0-1.464,0.611-1.635,1.358L73.334,8.49c0.077,0,3.545-0.328,2.544,4.389
		c-0.499,2.345-2.624,11.507-4.133,18.195c-0.192,0.537-0.424,1.038-0.76,1.488c-0.825,1.098-2.019,1.379-2.782,1.44l-0.073-0.007
		v0.007l-1.673,7.321h16.288l1.684-7.346h-0.246c-1.331,0-2.202-0.293-2.666-0.898c-0.425-0.556-0.545-1.409-0.329-2.546
		c0.023-0.123,1.71-7.484,1.71-7.484c0.291-1.289,0.854-1.268,1.615-1.268c1.33,0,2.367,0,3.16,0c1.189,0,1.339,0.831,0.974,2.411
		c-0.44,1.911-1.931,8.571-2.07,9.241c-0.91,4.368,1.28,7.896,6.018,7.896c1.272,0,3.288,0,4.604,0L98.93,33.836z M91.52,11.629
		c-0.246,1.268-0.58,2.804-0.82,3.73c-0.166,0.641-0.678,0.886-1.166,0.892h-5.077L86.1,9.014c0.206-0.9,0.946-1.168,2.612-1.168
		C91.412,7.846,91.902,9.649,91.52,11.629z"/>
	<path fill="#141215" d="M131.1,33.836c-1.418-0.473-2.197-1.802-1.633-3.686c0.356-1.194,0.421-1.497,0.745-2.675
		c0.325-1.172,0.655-5.166-1.709-7.375c3.232-1.553,5.323-5.301,5.675-9.231c0.509-5.68-2.706-10.49-10.841-10.49
		c-4.209,0-14.04,0-14.654,0c-0.729,0-1.464,0.611-1.636,1.358l-1.542,6.752c0.078,0,3.545-0.328,2.544,4.389
		c-0.499,2.345-2.624,11.507-4.134,18.195c-0.191,0.537-0.424,1.038-0.76,1.488c-0.825,1.098-2.018,1.379-2.782,1.44l-0.073-0.007
		v0.007l-1.674,7.321h16.289l1.683-7.346h-0.246c-1.33,0-2.201-0.293-2.666-0.898c-0.426-0.556-0.546-1.409-0.329-2.546
		c0.023-0.123,1.709-7.484,1.709-7.484c0.291-1.289,0.854-1.268,1.616-1.268c1.33,0,2.367,0,3.159,0c1.189,0,1.34,0.831,0.975,2.411
		c-0.441,1.911-1.931,8.571-2.069,9.241c-0.911,4.368,1.279,7.896,6.018,7.896c1.271,0,3.287,0,4.604,0L131.1,33.836z
		 M123.689,11.629c-0.245,1.268-0.579,2.804-0.819,3.73c-0.167,0.641-0.679,0.886-1.167,0.892h-5.077l1.643-7.238
		c0.206-0.9,0.946-1.168,2.612-1.168C123.583,7.846,124.072,9.649,123.689,11.629z"/>
	<path fill="#141215" d="M212.128,33.836c-1.419-0.473-2.197-1.802-1.632-3.686c0.354-1.194,0.42-1.497,0.744-2.675
		c0.326-1.172,0.655-5.166-1.709-7.375c3.232-1.553,5.323-5.301,5.675-9.231c0.508-5.68-2.706-10.49-10.841-10.49
		c-4.208,0-14.04,0-14.654,0c-0.729,0-1.464,0.611-1.636,1.358l-1.542,6.752c0.077,0,3.546-0.328,2.544,4.389
		c-0.5,2.345-2.623,11.507-4.134,18.195c-0.19,0.537-0.423,1.038-0.76,1.488c-0.826,1.098-2.018,1.379-2.782,1.44l-0.074-0.007
		v0.007l-1.673,7.321h16.289l1.684-7.346h-0.246c-1.331,0-2.202-0.293-2.666-0.898c-0.426-0.556-0.546-1.409-0.329-2.546
		c0.023-0.123,1.709-7.484,1.709-7.484c0.292-1.289,0.854-1.268,1.616-1.268c1.33,0,2.367,0,3.159,0c1.19,0,1.34,0.831,0.975,2.411
		c-0.441,1.911-1.931,8.571-2.07,9.241c-0.911,4.368,1.279,7.896,6.019,7.896c1.271,0,3.287,0,4.603,0L212.128,33.836z
		 M204.717,11.629c-0.245,1.268-0.58,2.804-0.818,3.73c-0.166,0.641-0.679,0.886-1.167,0.892h-5.076l1.643-7.238
		c0.205-0.9,0.945-1.168,2.611-1.168C204.611,7.846,205.1,9.649,204.717,11.629z"/>
	<path fill="#141215" d="M522.794,33.836c-1.418-0.473-2.197-1.802-1.633-3.686c0.355-1.194,0.42-1.497,0.744-2.675
		c0.326-1.172,0.655-5.166-1.708-7.375c3.231-1.553,5.322-5.301,5.673-9.231c0.51-5.68-2.704-10.49-10.84-10.49
		c-4.21,0-14.04,0-14.653,0c-0.729,0-1.465,0.611-1.635,1.358l-1.544,6.752c0.078,0,3.547-0.328,2.545,4.389
		c-0.499,2.345-2.623,11.507-4.134,18.195c-0.191,0.537-0.424,1.038-0.76,1.488c-0.825,1.098-2.018,1.379-2.782,1.44l-0.073-0.007
		v0.007l-1.673,7.321h16.288l1.684-7.346h-0.246c-1.33,0-2.201-0.293-2.665-0.898c-0.427-0.556-0.547-1.409-0.329-2.546
		c0.023-0.123,1.709-7.484,1.709-7.484c0.292-1.289,0.855-1.268,1.616-1.268c1.329,0,2.366,0,3.158,0
		c1.19,0,1.341,0.831,0.976,2.411c-0.441,1.911-1.932,8.571-2.069,9.241c-0.911,4.368,1.278,7.896,6.019,7.896
		c1.271,0,3.287,0,4.603,0L522.794,33.836z M515.384,11.629c-0.246,1.268-0.579,2.804-0.819,3.73
		c-0.166,0.641-0.679,0.886-1.167,0.892h-5.075l1.643-7.238c0.205-0.9,0.945-1.168,2.611-1.168
		C515.276,7.846,515.767,9.649,515.384,11.629z"/>
	<path fill="#141215" d="M347.964,25.767c-0.738,3.083-1.12,4.8-1.757,6.456c-0.552,1.438-2.027,2.009-3.762,1.998
		c-0.561-0.003-1.204,0.021-1.758-0.037c-1.029-0.111-2.016-0.514-2.388-0.996c-0.421-0.554-0.795-1.318-0.49-2.625
		c0.663-2.85,4.35-18.855,4.451-19.314c0.462-1.365,1.466-2.746,4.487-2.746l1.961-8.152h-15.481c-0.73,0-1.47,0.613-1.643,1.36
		l-1.569,6.808c0.077,0,3.485,0.036,2.516,4.39c-0.249,1.122-0.876,3.819-1.632,7.058c-0.003-0.003-0.007-0.004-0.01-0.005
		c-0.819,3.511-1.789,7.662-2.597,11.144c-0.188,0.533-0.426,1.037-0.762,1.487c-0.815,1.074-1.975,1.366-2.741,1.433l-1.687,7.306
		h27.595l3.602-15.564H347.964z"/>
	<path fill="#141215" d="M376.861,25.744c-0.738,3.083-1.119,4.8-1.757,6.456c-0.552,1.438-2.026,2.009-3.761,1.998
		c-0.561-0.003-1.205,0.021-1.757-0.038c-1.03-0.11-2.018-0.514-2.389-0.995c-0.422-0.555-0.795-1.318-0.491-2.625
		c0.664-2.85,4.35-18.855,4.452-19.314c0.462-1.364,1.466-2.746,4.486-2.746l1.962-8.152h-15.482c-0.73,0-1.469,0.612-1.642,1.36
		l-1.568,6.809c0.075,0,3.484,0.036,2.515,4.39c-0.25,1.121-0.878,3.82-1.632,7.058c-0.003-0.002-0.007-0.004-0.01-0.005
		c-0.82,3.512-1.79,7.661-2.597,11.142c-0.189,0.536-0.427,1.037-0.763,1.489c-0.815,1.075-1.974,1.366-2.741,1.433l-1.686,7.306
		h27.595l3.601-15.564H376.861z"/>
	<path fill="#141215" d="M286.323,0.367c-0.845,0-13.691,0.003-13.691,0.003c-0.729,0-1.465,0.613-1.635,1.36l-1.541,6.793
		c0.083,0,3.486,0.043,2.534,4.384c-0.508,2.345-2.609,11.488-4.119,18.174c-0.192,0.53-0.424,1.032-0.763,1.481
		c-0.84,1.119-2.062,1.389-2.822,1.439l-1.684,7.296c3.49-0.002,19.447-0.01,20.234-0.01c4.19,0,8.962-1.811,10.98-10.238
		c1.785-8.239,3.641-15.864,3.641-15.864C298.965,7.446,293.361,0.367,286.323,0.367z M288.348,14.078
		c-0.233,1.009-0.701,3.072-1.229,5.399c-0.946,4.165-2.121,9.348-2.421,10.544c-0.692,2.729-1.624,3.608-3.835,3.608
		c-0.308,0-3.597,0.017-4.033,0.008l5.62-24.816h2.739c1.026,0,1.967,0.474,2.583,1.3C288.504,11.104,288.705,12.509,288.348,14.078
		z"/>
	<path fill="#141215" d="M417.764,34.007c-1.088,0-2.422-0.022-3.404-3.45c-2.356-8.207-7.571-30.126-7.571-30.126h-6.629
		l-0.007,0.008c-0.711,0.043-1.5,0.63-1.783,1.352L386.12,31.939c-0.838,1.674-2.377,2.004-3.538,2.069l-1.689,7.319h14.11
		l1.762-7.616l-2.455-0.007c-0.279,0-0.471-0.179-0.583-0.347c-0.274-0.419-0.418-1.21-0.116-2.036
		c0.259-0.71,0.384-0.962,0.529-1.253l0.01-0.024h10.148l0.018,0.07c0.07,0.286,0.177,0.714,0.391,1.65
		c0.125,0.545,0.063,1.068-0.16,1.366c-0.293,0.386-0.674,0.58-1.132,0.58h-1.44l-1.753,7.616l16.175,0.008l1.69-7.329
		C417.98,34.007,418.146,34.007,417.764,34.007z M395.913,25.353l4.359-10.69l2.934,10.69H395.913z"/>
	<path fill="#141215" d="M559.131,34.007c-1.086,0-2.423-0.022-3.405-3.45c-2.354-8.207-7.571-30.126-7.571-30.126h-6.628
		l-0.008,0.008c-0.709,0.043-1.499,0.63-1.782,1.352l-12.249,30.149c-0.837,1.674-2.376,2.004-3.538,2.069l-1.69,7.319h14.11
		l1.764-7.616l-2.457-0.007c-0.279,0-0.47-0.179-0.579-0.347c-0.276-0.419-0.421-1.21-0.12-2.036
		c0.259-0.71,0.385-0.962,0.529-1.253l0.012-0.024h10.147l0.019,0.07c0.069,0.286,0.176,0.714,0.39,1.65
		c0.124,0.545,0.062,1.068-0.161,1.366c-0.292,0.386-0.672,0.58-1.132,0.58h-1.438l-1.754,7.616l16.176,0.008l1.688-7.329
		C559.35,34.007,559.513,34.007,559.131,34.007z M537.279,25.353l4.359-10.69l2.934,10.69H537.279z"/>
	<path fill="#141215" d="M140.881,0.379c-0.727,0-1.464,0.614-1.636,1.361l-1.57,6.758c0.078,0,3.604-0.284,2.715,3.765
		c-0.099,0.448-0.565,2.646-0.565,2.646c-0.884,3.816-2.331,10.633-3.763,16.199c-0.142,0.553-0.422,1.037-0.764,1.487
		c-1.219,1.605-2.855,1.434-2.855,1.434l-1.7,7.302h16.208l1.706-7.319c-0.989,0-3.969,0.191-3.026-3.92
		c0.331-1.444,3.6-15.604,4.113-17.73c0.365-1.598,0.903-3.878,4.792-3.878l1.88-8.104H140.881z"/>
	<path fill="#141215" d="M159.691,0.379c-0.727,0-1.464,0.614-1.635,1.361l-1.555,6.782c0.072,0,3.483,0.038,2.526,4.39
		c-0.515,2.341-2.638,11.507-4.164,18.196c-0.187,0.536-0.423,1.037-0.758,1.487c-1.305,1.731-3.524,1.434-3.524,1.434l-1.681,7.302
		h28.403l3.24-14.217h-6.332c-0.505,2.293-0.769,3.811-1.431,5.11c-0.721,1.416-1.994,2.034-3.829,2.034
		c-1.537,0-2.628-0.713-3.464-1.69c-0.774-0.918-0.994-2.306-0.707-3.614c0.328-1.495,0.719-3.123,0.918-4.054
		c0.367-1.705,0.791-2.563,2.245-2.497c0.759,0.034,1.67,0.903,1.417,2.309c-0.083,0.442-0.522,2.466-0.522,2.466h3.267
		l2.975-12.665h-3.373c0,0-0.247,1.085-0.587,2.619c-0.197,0.893-1.13,1.511-1.97,1.459c-1.317-0.081-1.66-1.302-1.418-2.418
		c0.181-0.839,0.491-2.422,0.751-3.672c0.742-3.546,2.861-4.284,5.178-4.233c1.888,0.047,2.83,1.261,3.29,2.218
		c0.386,0.802,0.668,2.023,0.154,4.137h5.875l3.242-14.243H159.691z"/>
	<path fill="#141215" d="M245.301,14.622l3.242-14.243h-26.53c-0.726,0-1.463,0.614-1.635,1.361l-1.555,6.782
		c0.073,0,3.485,0.038,2.527,4.39c-0.516,2.341-2.638,11.507-4.164,18.196c-0.187,0.536-0.422,1.037-0.758,1.487
		c-0.821,1.09-2.004,1.376-2.768,1.438l-1.686,7.297h27.651l3.24-14.217h-6.333c-0.504,2.293-0.769,3.811-1.43,5.11
		c-0.721,1.416-1.994,2.034-3.829,2.034c-1.538,0-2.629-0.713-3.464-1.69c-0.774-0.918-0.993-2.306-0.707-3.614
		c0.328-1.495,0.718-3.123,0.918-4.054c0.367-1.705,0.789-2.563,2.243-2.497c0.76,0.034,1.671,0.903,1.418,2.309
		c-0.082,0.442-0.521,2.466-0.521,2.466h3.268l2.975-12.665h-3.373c0,0-0.247,1.085-0.588,2.619c-0.196,0.893-1.13,1.511-1.97,1.459
		c-1.317-0.081-1.66-1.302-1.418-2.418c0.181-0.839,0.492-2.422,0.751-3.672c0.743-3.546,2.861-4.284,5.179-4.233
		c1.888,0.047,2.83,1.261,3.29,2.218c0.385,0.802,0.668,2.023,0.154,4.137H245.301z"/>
	<path fill="#141215" d="M326.485,14.622l3.242-14.243h-26.53c-0.727,0-1.464,0.614-1.636,1.361l-1.556,6.782
		c0.072,0,3.486,0.038,2.527,4.39c-0.515,2.341-2.638,11.507-4.163,18.196c-0.188,0.536-0.422,1.037-0.759,1.487
		c-0.82,1.09-2.004,1.376-2.768,1.438l-1.687,7.297h27.652l3.24-14.217h-6.334c-0.504,2.293-0.768,3.811-1.43,5.11
		c-0.72,1.416-1.994,2.034-3.828,2.034c-1.538,0-2.63-0.713-3.464-1.69c-0.775-0.918-0.995-2.306-0.709-3.614
		c0.329-1.495,0.72-3.123,0.919-4.054c0.368-1.705,0.79-2.563,2.243-2.497c0.762,0.034,1.672,0.903,1.418,2.309
		c-0.082,0.442-0.521,2.466-0.521,2.466h3.267l2.976-12.665h-3.373c0,0-0.247,1.085-0.588,2.619c-0.196,0.893-1.13,1.511-1.97,1.459
		c-1.317-0.081-1.66-1.302-1.42-2.418c0.182-0.839,0.493-2.422,0.751-3.672c0.745-3.546,2.861-4.284,5.179-4.233
		c1.89,0.047,2.831,1.261,3.291,2.218c0.385,0.802,0.669,2.023,0.154,4.137H326.485z"/>
	<path fill="#141215" d="M493.68,14.622l3.243-14.243h-26.528c-0.728,0-1.466,0.614-1.638,1.361l-1.555,6.782
		c0.072,0,3.485,0.038,2.527,4.39c-0.515,2.341-2.637,11.507-4.165,18.196c-0.187,0.536-0.421,1.037-0.757,1.487
		c-0.821,1.09-2.003,1.376-2.768,1.438l-1.686,7.297h27.65l3.241-14.217h-6.335c-0.504,2.293-0.767,3.811-1.429,5.11
		c-0.72,1.416-1.994,2.034-3.83,2.034c-1.536,0-2.628-0.713-3.462-1.69c-0.777-0.918-0.995-2.306-0.707-3.614
		c0.327-1.495,0.717-3.123,0.918-4.054c0.365-1.705,0.79-2.563,2.244-2.497c0.759,0.034,1.67,0.903,1.417,2.309
		c-0.084,0.442-0.522,2.466-0.522,2.466h3.269l2.976-12.665h-3.374c0,0-0.247,1.085-0.588,2.619
		c-0.197,0.893-1.13,1.511-1.971,1.459c-1.316-0.081-1.66-1.302-1.418-2.418c0.18-0.839,0.49-2.422,0.751-3.672
		c0.742-3.546,2.86-4.284,5.178-4.233c1.888,0.047,2.831,1.261,3.292,2.218c0.383,0.802,0.667,2.023,0.152,4.137H493.68z"/>
</g>
</svg>
