<svg xmlns="http://www.w3.org/2000/svg" viewBox="0 0 547.45 41.98"><defs><style>.cls-1{fill:#fff;}</style></defs><g id="Layer_2" data-name="Layer 2"><g id="Livello_1" data-name="Livello 1"><path class="cls-1" d="M439.93,15.61c-5.27-2.57-5.39-4.77-5.32-5.89s.83-3.63,4.31-3.63c4.08,0,4.85,4.07,5,5.05s.22,3.41.22,3.41h6.31L453.68.3h-5.81a1.64,1.64,0,0,0-1.63,1.16l-.32,1.05a.3.3,0,0,1,0,.06A11,11,0,0,0,438.35,0,12,12,0,0,0,430,2.58a11.9,11.9,0,0,0-4.91,9c-.11,1.61-.37,4.43,2.65,8.53s12.3,6.27,12.05,11.11c-.23,4.29-3.56,4.56-4.35,4.56a5.54,5.54,0,0,1-5-2.75,17.56,17.56,0,0,1-1.71-5.71c-.15-1.16-.08-1.66-1.28-1.66h-5.24l-4.42,15.59H426l.46-2.12c2.51,2.71,8.21,2.79,8.21,2.79,8.41,0,14.56-5.23,15.66-12.63S445.19,18.19,439.93,15.61Z"/><path class="cls-1" d="M48.72.35A12.81,12.81,0,0,0,33.41,10L29.48,27.34C28.16,34.05,32.26,40,38.83,41.57s13.67-1.51,15.38-8.21l3.91-17C60,7.5,55.57,2,48.72.35Zm.67,13-4,17.32,0,.23A3.58,3.58,0,0,1,42,33.66a3.48,3.48,0,0,1-.79-.09,3.64,3.64,0,0,1-2.58-4.35l0-.17,4-17.42A3.55,3.55,0,0,1,46,8.78a3.39,3.39,0,0,1,.78.09A3.68,3.68,0,0,1,49.39,13.32Z"/><path class="cls-1" d="M19.67,16.79h9.12L32.56.35H25.77c-1.24,0-1.94,2.22-1.94,2.22A12.39,12.39,0,0,0,19.49.4,12.85,12.85,0,0,0,4.2,10L.27,27.34C-1.12,34.16,3,40,9.55,41.57S23.38,40,25,33.36l2.16-9.3H20a2.88,2.88,0,0,0-2.42,2.21l-1.08,4.67a3.8,3.8,0,0,1-4.53,2.92,4,4,0,0,1-2.8-4.71h0s4-17.57,4-17.59a3.83,3.83,0,0,1,4.56-3,4,4,0,0,1,2.79,4.77S19.67,16.79,19.67,16.79Z"/><path class="cls-1" d="M86.93,33.83c-1.42-.47-2.2-1.8-1.63-3.69.35-1.19.42-1.49.74-2.67s.66-5.17-1.71-7.38c3.23-1.55,5.33-5.3,5.68-9.23C90.52,5.18,87.3.37,79.17.37H64.51a1.78,1.78,0,0,0-1.63,1.36L61.33,8.48c.08,0,3.55-.32,2.55,4.39-.5,2.35-2.63,11.51-4.13,18.2A6.16,6.16,0,0,1,59,32.56,3.85,3.85,0,0,1,56.2,34h-.07l-1.67,7.32H70.75L72.43,34h-.25a3.15,3.15,0,0,1-2.66-.9,3.12,3.12,0,0,1-.33-2.54c0-.13,1.71-7.49,1.71-7.49.29-1.29.85-1.27,1.61-1.27h3.16c1.19,0,1.34.84,1,2.42-.44,1.91-1.93,8.57-2.07,9.24-.91,4.36,1.28,7.89,6,7.89h4.6ZM79.52,11.62c-.25,1.27-.58,2.81-.82,3.73a1.15,1.15,0,0,1-1.17.89H72.46L74.1,9c.21-.9,1-1.17,2.61-1.17C79.41,7.84,79.9,9.64,79.52,11.62Z"/><path class="cls-1" d="M119.1,33.83c-1.42-.47-2.2-1.8-1.63-3.69.35-1.19.42-1.49.74-2.67s.66-5.17-1.71-7.38c3.24-1.55,5.33-5.3,5.68-9.23C122.69,5.18,119.47.37,111.34.37H96.68a1.78,1.78,0,0,0-1.63,1.36L93.51,8.48c.07,0,3.54-.33,2.54,4.39-.5,2.35-2.62,11.51-4.13,18.2a6.09,6.09,0,0,1-.76,1.48A3.78,3.78,0,0,1,88.37,34H88.3l-1.67,7.33h16.29L104.6,34h-.25a3.15,3.15,0,0,1-2.66-.9,3.12,3.12,0,0,1-.33-2.54c0-.13,1.71-7.49,1.71-7.49.29-1.29.85-1.27,1.61-1.27h3.16c1.19,0,1.34.83,1,2.41-.44,1.92-1.93,8.58-2.07,9.25-.91,4.36,1.28,7.89,6,7.89h4.6Zm-7.41-22.21c-.25,1.27-.58,2.81-.82,3.73a1.15,1.15,0,0,1-1.17.89h-5.07L106.27,9c.21-.9,1-1.17,2.61-1.17C111.58,7.84,112.07,9.64,111.69,11.62Z"/><path class="cls-1" d="M200.13,33.83c-1.42-.47-2.2-1.8-1.63-3.69.35-1.19.42-1.49.74-2.67s.66-5.17-1.71-7.38c3.23-1.55,5.32-5.3,5.68-9.23C203.71,5.18,200.5.37,192.37.37H177.71a1.78,1.78,0,0,0-1.63,1.36l-1.55,6.75c.08,0,3.55-.33,2.55,4.39-.5,2.35-2.63,11.51-4.14,18.2a5.46,5.46,0,0,1-.76,1.48A3.75,3.75,0,0,1,169.4,34h-.07l-1.68,7.33h16.29L185.63,34h-.25a3.15,3.15,0,0,1-2.66-.9,3.12,3.12,0,0,1-.33-2.54c0-.13,1.71-7.49,1.71-7.49.29-1.29.85-1.27,1.61-1.27h3.16c1.19,0,1.34.83,1,2.41-.45,1.92-1.94,8.58-2.07,9.25-.92,4.36,1.27,7.89,6,7.89h4.61Zm-7.41-22.21c-.25,1.27-.58,2.81-.82,3.73a1.15,1.15,0,0,1-1.17.89h-5.07L187.3,9c.2-.9.94-1.17,2.61-1.17C192.61,7.84,193.1,9.64,192.72,11.62Z"/><path class="cls-1" d="M510.79,33.83c-1.41-.47-2.19-1.8-1.63-3.69.36-1.19.42-1.49.75-2.67s.65-5.17-1.71-7.38c3.23-1.55,5.32-5.3,5.67-9.23C514.38,5.18,511.17.37,503,.37H488.38a1.79,1.79,0,0,0-1.64,1.36L485.2,8.48c.08,0,3.55-.33,2.54,4.39-.5,2.35-2.62,11.51-4.13,18.2a5.46,5.46,0,0,1-.76,1.48A3.78,3.78,0,0,1,480.07,34H480l-1.67,7.33h16.29L496.29,34h-.24a3.19,3.19,0,0,1-2.67-.9,3.2,3.2,0,0,1-.33-2.54L494.76,23c.29-1.29.86-1.27,1.62-1.27h3.16c1.19,0,1.34.83,1,2.41-.44,1.92-1.93,8.58-2.07,9.25-.91,4.36,1.28,7.89,6,7.89h4.61Zm-7.41-22.21c-.24,1.27-.57,2.81-.81,3.73a1.15,1.15,0,0,1-1.17.89h-5.08L498,9c.2-.9.94-1.17,2.61-1.17C503.28,7.84,503.77,9.64,503.38,11.62Z"/><path class="cls-1" d="M336,25.76a53.06,53.06,0,0,1-1.75,6.46c-.55,1.43-2,2-3.76,2a17.13,17.13,0,0,1-1.76,0,3.8,3.8,0,0,1-2.39-1,2.86,2.86,0,0,1-.49-2.62c.66-2.85,4.35-18.86,4.45-19.32.46-1.36,1.47-2.74,4.49-2.74l2-8.16H321.23a1.83,1.83,0,0,0-1.65,1.36L318,8.51c.07,0,3.48,0,2.51,4.39-.25,1.12-.87,3.82-1.63,7.06h0l-2.6,11.14a5.52,5.52,0,0,1-.76,1.49A3.78,3.78,0,0,1,312.79,34l-1.69,7.31h27.6l3.6-15.57Z"/><path class="cls-1" d="M364.86,25.74a52,52,0,0,1-1.76,6.45c-.55,1.44-2,2-3.76,2a17,17,0,0,1-1.75,0,3.8,3.8,0,0,1-2.39-1,2.88,2.88,0,0,1-.49-2.63c.66-2.85,4.35-18.85,4.45-19.31.46-1.36,1.46-2.75,4.48-2.75l2-8.15H350.12a1.8,1.8,0,0,0-1.64,1.36l-1.57,6.81c.08,0,3.49,0,2.52,4.39-.25,1.12-.88,3.82-1.63,7.06h0c-.82,3.52-1.79,7.66-2.6,11.15a5.76,5.76,0,0,1-.76,1.48A3.8,3.8,0,0,1,341.69,34L340,41.3h27.6l3.6-15.56Z"/><path class="cls-1" d="M274.32.36H260.63A1.79,1.79,0,0,0,259,1.72l-1.54,6.8c.08,0,3.48,0,2.53,4.38-.51,2.35-2.61,11.49-4.12,18.17a5.52,5.52,0,0,1-.76,1.49A3.78,3.78,0,0,1,252.29,34l-1.69,7.3h20.24c4.19,0,9-1.81,11-10.24,1.78-8.24,3.64-15.86,3.64-15.86C287,7.44,281.36.36,274.32.36Zm2,13.71-1.23,5.4c-.95,4.17-2.12,9.35-2.42,10.54-.69,2.73-1.63,3.61-3.84,3.61-.3,0-3.59,0-4,0l5.62-24.82h2.74a3.19,3.19,0,0,1,2.58,1.3A4.79,4.79,0,0,1,276.35,14.07Z"/><path class="cls-1" d="M405.76,34c-1.08,0-2.42,0-3.4-3.45C400,22.34,394.79.42,394.79.42h-6.64a2.24,2.24,0,0,0-1.78,1.35L374.12,31.93A3.86,3.86,0,0,1,370.58,34l-1.69,7.32H383l1.77-7.62h-2.46a.7.7,0,0,1-.58-.35,2.38,2.38,0,0,1-.12-2,10.84,10.84,0,0,1,.53-1.25v0H392.3l0,.07c.07.28.17.71.39,1.65a1.75,1.75,0,0,1-.16,1.36,1.37,1.37,0,0,1-1.13.58H390l-1.76,7.62H404.4L406.09,34Zm-21.85-8.65,4.36-10.69,2.94,10.69Z"/><path class="cls-1" d="M547.13,34c-1.08,0-2.42,0-3.4-3.45C541.37,22.34,536.16.42,536.16.42h-6.64a2.24,2.24,0,0,0-1.78,1.35L515.49,31.93A3.86,3.86,0,0,1,512,34l-1.69,7.32h14.11l1.76-7.61h-2.45a.7.7,0,0,1-.58-.35,2.36,2.36,0,0,1-.12-2,9.58,9.58,0,0,1,.53-1.26v0h10.15l0,.07c.06.28.17.71.39,1.65a1.71,1.71,0,0,1-.17,1.36,1.35,1.35,0,0,1-1.13.58h-1.44l-1.75,7.62h16.18L547.45,34Zm-21.85-8.65,4.36-10.69,2.93,10.69Z"/><path class="cls-1" d="M128.88.37a1.79,1.79,0,0,0-1.63,1.36l-1.57,6.76c.07,0,3.6-.28,2.71,3.77-.1.44-.56,2.64-.56,2.64-.89,3.82-2.34,10.64-3.77,16.2a4.21,4.21,0,0,1-.76,1.49A3.39,3.39,0,0,1,120.44,34l-1.7,7.3H135L136.66,34c-1,0-4,.19-3-3.92.33-1.45,3.6-15.61,4.11-17.73.37-1.6.91-3.88,4.8-3.88L144.42.37Z"/><path class="cls-1" d="M147.69.37a1.79,1.79,0,0,0-1.63,1.36L144.5,8.52c.07,0,3.48,0,2.53,4.39-.52,2.34-2.64,11.5-4.17,18.19a5.35,5.35,0,0,1-.75,1.49A4,4,0,0,1,138.58,34l-1.68,7.3h28.4l3.24-14.21h-6.33a22,22,0,0,1-1.43,5.11,3.86,3.86,0,0,1-3.83,2,4.36,4.36,0,0,1-3.46-1.69,4.22,4.22,0,0,1-.71-3.61c.33-1.5.72-3.13.92-4.06.37-1.7.79-2.56,2.24-2.49a1.81,1.81,0,0,1,1.42,2.31c-.08.44-.52,2.46-.52,2.46h3.27l3-12.66h-3.37s-.25,1.08-.59,2.62a2,2,0,0,1-2,1.45c-1.32-.08-1.66-1.3-1.42-2.41.18-.84.49-2.43.75-3.68.75-3.54,2.86-4.28,5.18-4.23A3.62,3.62,0,0,1,165,10.48a5.89,5.89,0,0,1,.16,4.14H171L174.22.37Z"/><path class="cls-1" d="M233.3,14.62,236.54.37H210a1.8,1.8,0,0,0-1.63,1.36l-1.56,6.79c.08,0,3.49,0,2.53,4.39-.52,2.34-2.64,11.5-4.16,18.19a5.66,5.66,0,0,1-.76,1.49A3.81,3.81,0,0,1,201.66,34L200,41.32h27.66l3.24-14.21h-6.34a22,22,0,0,1-1.43,5.11,3.86,3.86,0,0,1-3.83,2,4.38,4.38,0,0,1-3.46-1.69A4.29,4.29,0,0,1,215.1,29c.33-1.5.72-3.13.92-4.06.37-1.7.79-2.56,2.24-2.49a1.81,1.81,0,0,1,1.42,2.3c-.08.45-.52,2.47-.52,2.47h3.27l3-12.66H222s-.25,1.08-.59,2.61a2,2,0,0,1-2,1.46c-1.31-.08-1.66-1.3-1.42-2.41.19-.84.5-2.43.76-3.68.74-3.54,2.86-4.28,5.17-4.23a3.62,3.62,0,0,1,3.29,2.22,5.89,5.89,0,0,1,.16,4.14Z"/><path class="cls-1" d="M314.49,14.62,317.73.37H291.2a1.81,1.81,0,0,0-1.64,1.36L288,8.52c.07,0,3.48,0,2.52,4.39-.51,2.34-2.64,11.5-4.16,18.19a5.38,5.38,0,0,1-.76,1.49A3.8,3.8,0,0,1,282.84,34l-1.68,7.29h27.65l3.24-14.21h-6.34a21.53,21.53,0,0,1-1.43,5.11,3.85,3.85,0,0,1-3.82,2A4.4,4.4,0,0,1,297,32.56a4.29,4.29,0,0,1-.71-3.61c.33-1.5.72-3.13.92-4.06.37-1.7.79-2.56,2.24-2.49a1.79,1.79,0,0,1,1.42,2.3c-.08.45-.52,2.47-.52,2.47h3.27l3-12.66h-3.37s-.25,1.08-.59,2.61a2,2,0,0,1-2,1.46c-1.31-.08-1.66-1.3-1.42-2.41.19-.84.5-2.43.75-3.68.75-3.54,2.87-4.28,5.18-4.23a3.62,3.62,0,0,1,3.29,2.22,5.89,5.89,0,0,1,.16,4.14Z"/><path class="cls-1" d="M481.68,14.62,484.92.37H458.4a1.81,1.81,0,0,0-1.64,1.36L455.2,8.52c.07,0,3.49,0,2.53,4.39-.52,2.34-2.64,11.5-4.17,18.19a5.35,5.35,0,0,1-.75,1.49A3.81,3.81,0,0,1,450,34l-1.69,7.29H476l3.24-14.21h-6.33a22,22,0,0,1-1.43,5.11,3.86,3.86,0,0,1-3.83,2,4.36,4.36,0,0,1-3.46-1.69,4.22,4.22,0,0,1-.71-3.61c.33-1.5.72-3.13.92-4.06.36-1.7.79-2.56,2.24-2.49a1.81,1.81,0,0,1,1.42,2.3c-.08.45-.52,2.47-.52,2.47h3.27l3-12.66h-3.37s-.25,1.08-.59,2.61a2,2,0,0,1-2,1.46c-1.32-.08-1.66-1.3-1.42-2.41.18-.84.49-2.43.75-3.68.75-3.54,2.86-4.28,5.18-4.23a3.62,3.62,0,0,1,3.29,2.22,5.89,5.89,0,0,1,.16,4.14Z"/></g></g></svg>