<svg xmlns="http://www.w3.org/2000/svg" viewBox="0 0 589.45 439.91"><defs><style>.cls-1{fill:#fff;}</style></defs><g id="Layer_2" data-name="Layer 2"><g id="Layer_1-2" data-name="Layer 1"><path class="cls-1" d="M286.28,66.67c14.55-19.46,31.69-34.73,52.36-46,25.62-13.94,53-20.08,82.11-19.18,31.56,1,61.28,8.4,88,25.67,37.34,24.14,58,59.09,65.33,102.43,7,41.51-1.39,79.73-24.65,114.7-1.7,2.56-1,4,.48,6.11q18.57,25.71,37,51.54c.75,1,1.41,2.16,2.53,3.88-1.93.2-3.31.47-4.68.47-26.83,0-53.67-.33-80.49.19-7.54.14-12.86-1.61-16.19-8.35-2.19-4.42-4.78-4.38-9.08-2.27-51.3,25.16-100.86,19.94-148.66-9.45-17.52-10.78-31.64-25.37-43.74-42.44-34,44.69-78.62,68.32-134.93,66.46C107.77,309,70.2,291.86,40.46,259.15c-54.81-60.27-55-154.25,6.09-214.4A153.39,153.39,0,0,1,104.11,8.81,160.12,160.12,0,0,1,171.5.65c22.9,2,44.42,8.24,64.37,19.68S272.44,47.39,286.28,66.67Zm-117,137.24V130.84h6.28c26.32,0,52.64,0,79-.07,1.67,0,4.5-.83,4.81-1.87,1.85-6.1,3.11-12.39,4.67-19.08-15.58,0-30.72-.1-45.86.08a10.87,10.87,0,0,1-8.8-3.47C191.45,87.8,169.2,82.43,144.43,86,106.41,91.58,79,130.4,86.5,167.6c10.09,50.12,70.36,74.32,112.26,45,3.25-2.26,6.13-5.05,9.18-7.59l-.76-1.12Zm214.67-38h4.18c30.14,0,60.28-.05,90.42.09,1.49,0,3.28,1.28,4.4,2.47,2.17,2.31,4,5,6.42,8.13.73-3,1.31-4.87,1.63-6.8a60.64,60.64,0,0,0,.93-7.92c.63-20.91-7.74-38.14-22.09-52.74-29.76-30.3-73.2-32.36-103.37-4-20,18.78-27.38,42.64-19.92,69.21,7.33,26.14,25.65,42.15,52.08,48.44a49.51,49.51,0,0,0,24.54-.12Z"/><path class="cls-1" d="M523.52,439.83c-6.85,0-12.84.18-18.81-.13a5.58,5.58,0,0,1-3.86-2.81,162.53,162.53,0,0,1-6.34-15.18c-1-2.69-2.45-3.49-5.15-3.46-11,.11-22-.08-33,.19a6.49,6.49,0,0,0-4.61,3.13c-2.44,4.9-4.16,10.15-6.55,15.08a6.1,6.1,0,0,1-4.15,3.06c-5.79.35-11.61.14-18.22.14,3.62-8.6,7-16.67,10.4-24.71,9.6-22.64,19.28-45.25,28.79-67.93,1.08-2.57,2.47-3.33,5.15-3.37,15.77-.24,15.72-.28,21.72,13.87q16.26,38.34,32.59,76.65C522.15,435.85,522.63,437.4,523.52,439.83ZM473,369c-4.5,11.08-8.4,20.65-12.44,30.61h25C481.39,389.55,477.47,380,473,369Z"/><path class="cls-1" d="M185.76,439.84c8.87-20.79,17.34-40.63,25.8-60.48,4.5-10.55,9.06-21.07,13.4-31.69,1.07-2.63,2.27-3.79,5.33-3.82,15.77-.14,15.65-.19,21.82,14.46,10.32,24.51,20.81,48.94,31.23,73.4,1,2.4,2,4.82,3.33,8.07-7.18,0-13.58.12-20-.13-1,0-2.33-1.62-2.85-2.78-2.26-5-4.07-10.21-6.5-15.12-.76-1.52-3-3.26-4.52-3.29q-16.72-.4-33.47,0a6.48,6.48,0,0,0-4.61,3.14,143.64,143.64,0,0,0-6.14,14.72c-.94,2.57-2.25,3.65-5.08,3.54C197.91,439.69,192.27,439.84,185.76,439.84ZM236,369.07c-4.51,11-8.42,20.61-12.45,30.48h25C244.38,389.47,240.46,379.93,236,369.07Z"/><path class="cls-1" d="M111.52,344.83h78.23v18.95H161.23v75.76H140.41V364H111.52Z"/><path class="cls-1" d="M369.33,439.65H301.65V344.94h20.49v75.83h47.19Z"/><path class="cls-1" d="M406.94,439.56H386.6v-94.7h20.34Z"/><path class="cls-1" d="M94.06,439.54H74V344.8h20Z"/></g></g></svg>