<svg xmlns="http://www.w3.org/2000/svg" viewBox="0 0 213.9 66.18"><defs><style>.cls-1{fill:#fff;}</style></defs><g id="Layer_2" data-name="Layer 2"><g id="svg3145"><g id="g94"><g id="g96"><g id="g102"><path id="path104" class="cls-1" d="M22.31.5s.35,0,.35,0l.92,22.33-.31,0C22.63,20.31,20.89.68,14.1.68c-5.21,0-7,24.08-7,32.14,0,10.45,1.29,32.37,7.14,32.37,2.82,0,4.35-4.84,4.35-11.21V33.61H15.5v-.8H28.14v.8H25V65.53s-.36,0-.37,0c-.46-1.33-.52-4.06-2.58-4.06-2.28,0-4.72,4.72-7.89,4.71C3.65,66.15,0,46.79,0,32.83,0,21.26,4.22,0,14.12,0c1.66,0,2.83.43,4.15,2.34,1,1.41,2.81,1.73,3.59-.07A8.37,8.37,0,0,0,22.31.5"/></g><g id="g106"><path id="path108" class="cls-1" d="M164.47,64.36V1.67h-2.8V.9h11.94v.77h-2.82l0,62.69h2.8v.77H161.67v-.77h2.8V1.67"/></g><g id="g110"><path id="path112" class="cls-1" d="M129.81,64.35h7.49c3.51-.14,7.8-3.41,7.8-12.55,0-1.75,0-3.57,0-5.39h.67V65.12H123.13L138.51,1.67h-7.17c-4.54,0-7,6.87-7,13.18,0,1.62,0,4.76,0,4.76h-.63V.9h22Z"/></g><g id="g114"><path id="path116" class="cls-1" d="M53.84,1.68V32.82a6.19,6.19,0,0,0,5.69-2.74c2.08-2.68,2.9-9.44,2.9-14.47,0-5.38-2.69-13.94-6.14-13.94ZM44.75.91H58.1C64.5.91,68.64,8,68.64,16.54S65.15,33,59.78,33c-.72,0-.65.44,0,.44,3.22,0,5.64,3.68,6.13,4.66,2,4,.61,22.2,2.58,24,1.66,1.52,2.88-.86,3.1-1.23l.2.15c0,.17-1.45,4.87-5.05,4.87-3,0-4.5-3.67-4.93-6-.7-3.75-.47-15.2-.85-17.51-.33-2-1.24-8-4.06-8.52a12,12,0,0,0-3.06-.23s0,30.72,0,30.72h2.82v.79H44.37v-.79h3.16l0-62.66H44.75Z"/></g><g id="g118"><path id="path120" class="cls-1" d="M90,45.58h9L94.61,20.45ZM85.5,64.34,97.57,0l11.16,64.34h2.54v.78H99.66v-.79h2.54L99,46.39H89.79l-3.28,18h3.26v.77h-7v-.76Z"/></g><g id="g122"><path id="path124" class="cls-1" d="M192.6,45.58h9l-4.32-25.13Zm-4.47,18.76L200.2,0l11.16,64.34h2.54v.78H202.29v-.79h2.54l-3.16-18h-9.25l-3.28,18h3.26v.77h-7v-.76Z"/></g></g></g></g></g></svg>