<?xml version="1.0" encoding="UTF-8" standalone="no"?>
<!-- Created with Inkscape (http://www.inkscape.org/) -->

<svg
   xmlns:dc="http://purl.org/dc/elements/1.1/"
   xmlns:cc="http://creativecommons.org/ns#"
   xmlns:rdf="http://www.w3.org/1999/02/22-rdf-syntax-ns#"
   xmlns:svg="http://www.w3.org/2000/svg"
   xmlns="http://www.w3.org/2000/svg"
   xmlns:sodipodi="http://sodipodi.sourceforge.net/DTD/sodipodi-0.dtd"
   xmlns:inkscape="http://www.inkscape.org/namespaces/inkscape"
   width="215.89999"
   height="68.18"
   id="svg3145"
   version="1.1"
   inkscape:version="0.48.1 "
   sodipodi:docname="Neues Dokument 3">
  <defs
     id="defs3147">
    <clipPath
       clipPathUnits="userSpaceOnUse"
       id="clipPath98">
      <path
         inkscape:connector-curvature="0"
         d="m 399.213,300.375 171.118,0 0,52.951 -171.118,0 0,-52.951 z"
         id="path100" />
    </clipPath>
  </defs>
  <sodipodi:namedview
     id="base"
     pagecolor="#ffffff"
     bordercolor="#666666"
     borderopacity="1.0"
     inkscape:pageopacity="0.0"
     inkscape:pageshadow="2"
     inkscape:zoom="4.1795793"
     inkscape:cx="107.94999"
     inkscape:cy="34.090002"
     inkscape:document-units="px"
     inkscape:current-layer="layer1"
     showgrid="false"
     fit-margin-top="0"
     fit-margin-left="0"
     fit-margin-right="0"
     fit-margin-bottom="0"
     inkscape:window-width="1024"
     inkscape:window-height="678"
     inkscape:window-x="-4"
     inkscape:window-y="-4"
     inkscape:window-maximized="1" />
  <metadata
     id="metadata3150">
    <rdf:RDF>
      <cc:Work
         rdf:about="">
        <dc:format>image/svg+xml</dc:format>
        <dc:type
           rdf:resource="http://purl.org/dc/dcmitype/StillImage" />
        <dc:title></dc:title>
      </cc:Work>
    </rdf:RDF>
  </metadata>
  <g
     inkscape:label="Ebene 1"
     inkscape:groupmode="layer"
     id="layer1"
     transform="translate(-175.89076,-486.56754)">
    <g
       transform="matrix(1.25,0,0,-1.25,-322.12406,929.22578)"
       id="g94">
      <g
         id="g96"
         clip-path="url(#clipPath98)">
        <g
           id="g102"
           transform="translate(417.0602,352.9282)">
          <path
             inkscape:connector-curvature="0"
             d="m 0,0 c 0.002,0.009 0.278,-0.004 0.278,-0.004 l 0.74,-17.86 -0.249,-0.015 c -0.516,2.026 -1.907,17.733 -7.334,17.733 -4.171,0 -5.571,-19.26 -5.571,-25.713 0,-8.357 1.03,-25.893 5.712,-25.893 2.257,0 3.482,3.867 3.482,8.969 l 0,16.295 -2.505,0 0,0.64 10.11,0 0,-0.64 -2.537,0 0,-25.534 c -0.006,0.002 -0.289,-0.008 -0.291,-0.003 -0.367,1.063 -0.42,3.249 -2.065,3.249 -1.824,0 -3.779,-3.777 -6.314,-3.769 -8.384,0.026 -11.304,15.515 -11.304,26.682 0,9.251 3.378,26.26 11.297,26.26 1.327,0 2.261,-0.343 3.32,-1.874 0.776,-1.123 2.244,-1.379 2.872,0.059 C -0.169,-0.984 -0.082,-0.425 0,0"
             style="fill:#000000;fill-opacity:1;fill-rule:nonzero;stroke:none"
             id="path104" />
        </g>
        <g
           id="g106"
           transform="translate(530.791,301.8408)">
          <path
             inkscape:connector-curvature="0"
             d="m 0,0 0,50.153 -2.243,0 0,0.611 9.55,0 0,-0.611 -2.253,0 L 5.07,0 l 2.237,0 0,-0.62 -9.55,0 0,0.62 L 0,0 0,50.153"
             style="fill:#000000;fill-opacity:1;fill-rule:nonzero;stroke:none"
             id="path108" />
        </g>
        <g
           id="g110"
           transform="translate(503.0634,301.8449)">
          <path
             inkscape:connector-curvature="0"
             d="m 0,0 5.986,0 c 2.807,0.111 6.245,2.732 6.245,10.043 0,1.395 0.017,2.852 0.017,4.312 l 0.533,-0.003 0,-14.966 -18.129,-0.011 12.307,50.77 -5.74,0 c -3.63,0 -5.633,-5.494 -5.633,-10.546 0,-1.296 -0.039,-3.805 -0.039,-3.805 l -0.506,-0.006 0,14.971 17.612,0 L 0,0 z"
             style="fill:#000000;fill-opacity:1;fill-rule:nonzero;stroke:none"
             id="path112" />
        </g>
        <g
           id="g114"
           transform="translate(442.2847,351.9827)">
          <path
             inkscape:connector-curvature="0"
             d="m 0,0 0,-24.914 c 1.04,0.006 2.762,-0.112 4.551,2.195 1.662,2.144 2.321,7.549 2.321,11.577 0,4.298 -2.151,11.153 -4.913,11.153 L 0,0 z M -7.27,0.618 3.411,0.615 c 5.114,0 8.43,-5.683 8.43,-12.506 0,-6.8 -2.79,-13.137 -7.091,-13.137 -0.575,0 -0.522,-0.345 0,-0.345 2.577,0 4.512,-2.948 4.903,-3.732 1.576,-3.17 0.49,-17.756 2.067,-19.197 1.33,-1.216 2.307,0.685 2.481,0.98 l 0.162,-0.118 c -0.025,-0.134 -1.165,-3.895 -4.042,-3.895 -2.39,0 -3.6,2.937 -3.944,4.776 -0.559,2.996 -0.377,12.16 -0.682,14.003 -0.266,1.607 -0.988,6.403 -3.244,6.822 -1.006,0.187 -1.323,0.187 -2.45,0.18 -0.006,0 0.002,-24.578 0.002,-24.578 l 2.253,0 0,-0.631 -9.832,0 0,0.631 2.525,0 L -5.061,0 -7.27,0 l 0,0.618 z"
             style="fill:#000000;fill-opacity:1;fill-rule:nonzero;stroke:none"
             id="path116" />
        </g>
        <g
           id="g118"
           transform="translate(471.1882,316.8653)">
          <path
             inkscape:connector-curvature="0"
             d="M 0,0 7.167,0 3.714,20.097 0,0 z m -3.578,-15.013 9.66,51.474 8.928,-51.475 2.03,-0.006 0,-0.622 -9.288,10e-4 0,0.631 2.034,0 -2.528,14.356 -7.399,0 -2.623,-14.368 2.608,0 0,-0.616 -5.623,0 0,0.611 2.201,0.014 z"
             style="fill:#000000;fill-opacity:1;fill-rule:nonzero;stroke:none"
             id="path120" />
        </g>
        <g
           id="g122"
           transform="translate(553.2907,316.8653)">
          <path
             inkscape:connector-curvature="0"
             d="M 0,0 7.168,0 3.714,20.097 0,0 z m -3.577,-15.013 9.659,51.474 8.929,-51.475 2.029,-0.006 0,-0.622 -9.288,10e-4 0,0.631 2.034,0 -2.528,14.356 -7.399,0 -2.623,-14.369 2.608,0 0,-0.615 -5.623,0 0,0.61 2.202,0.015 z"
             style="fill:#000000;fill-opacity:1;fill-rule:nonzero;stroke:none"
             id="path124" />
        </g>
      </g>
    </g>
  </g>
</svg>
