<?xml version="1.0" encoding="UTF-8" standalone="no"?>
<svg
   xmlns:dc="http://purl.org/dc/elements/1.1/"
   xmlns:cc="http://creativecommons.org/ns#"
   xmlns:rdf="http://www.w3.org/1999/02/22-rdf-syntax-ns#"
   xmlns:svg="http://www.w3.org/2000/svg"
   xmlns="http://www.w3.org/2000/svg"
   xmlns:sodipodi="http://sodipodi.sourceforge.net/DTD/sodipodi-0.dtd"
   xmlns:inkscape="http://www.inkscape.org/namespaces/inkscape"
   viewBox="0 0 138.66626 26.14266"
   height="26.14266"
   width="138.66626"
   xml:space="preserve"
   id="svg2"
   version="1.1"
   sodipodi:docname="La_Repubblica.svg"
   inkscape:version="1.0.2-2 (e86c870879, 2021-01-15)"><sodipodi:namedview
     pagecolor="#ffffff"
     bordercolor="#666666"
     borderopacity="1"
     objecttolerance="10"
     gridtolerance="10"
     guidetolerance="10"
     inkscape:pageopacity="0"
     inkscape:pageshadow="2"
     inkscape:window-width="1920"
     inkscape:window-height="1001"
     id="namedview1710"
     showgrid="false"
     fit-margin-top="0"
     fit-margin-left="0"
     fit-margin-right="0"
     fit-margin-bottom="0"
     inkscape:zoom="8"
     inkscape:cx="67.920678"
     inkscape:cy="18.625746"
     inkscape:window-x="-9"
     inkscape:window-y="-9"
     inkscape:window-maximized="1"
     inkscape:current-layer="svg2"
     inkscape:document-rotation="0" /><metadata
     id="metadata8"><rdf:RDF><cc:Work
         rdf:about=""><dc:format>image/svg+xml</dc:format><dc:type
           rdf:resource="http://purl.org/dc/dcmitype/StillImage" /><dc:title /></cc:Work></rdf:RDF></metadata><defs
     id="defs6"><clipPath
       id="clipPath18"
       clipPathUnits="userSpaceOnUse"><path
         style="clip-rule:evenodd"
         id="path16"
         d="M 0,0 H 864 V 1188 H 0 Z"
         inkscape:connector-curvature="0" /></clipPath><clipPath
       id="clipPath24"
       clipPathUnits="userSpaceOnUse"><path
         style="clip-rule:evenodd"
         id="path22"
         d="M 0,0 H 864 V 1188 H 0 Z"
         inkscape:connector-curvature="0" /></clipPath><clipPath
       id="clipPath34"
       clipPathUnits="userSpaceOnUse"><path
         id="path32"
         d="M 0,0 H 864 V 1188 H 0 Z"
         inkscape:connector-curvature="0" /></clipPath><clipPath
       id="clipPath46"
       clipPathUnits="userSpaceOnUse"><path
         id="path44"
         d="M 0,1130 H 142.8 V 0 H 0 Z m 0.4,-0.4 V 0.4 h 142 v 1129.2 z"
         inkscape:connector-curvature="0" /></clipPath><clipPath
       id="clipPath54"
       clipPathUnits="userSpaceOnUse"><path
         style="clip-rule:evenodd"
         id="path52"
         d="M 0,-0.40002 H 143.04 V 1130 H 0 Z"
         inkscape:connector-curvature="0" /></clipPath><clipPath
       id="clipPath66"
       clipPathUnits="userSpaceOnUse"><path
         style="clip-rule:evenodd"
         id="path64"
         d="M 0,794 H 621.369 V 434 H 0 Z"
         inkscape:connector-curvature="0" /></clipPath><clipPath
       id="clipPath118"
       clipPathUnits="userSpaceOnUse"><path
         id="path116"
         d="m 621.7,1074 h 0.3 v 40 h -0.3 z"
         inkscape:connector-curvature="0" /></clipPath><clipPath
       id="clipPath130"
       clipPathUnits="userSpaceOnUse"><path
         id="path128"
         d="m 821.5,24 h 0.4 v 1140 h -0.4 z"
         inkscape:connector-curvature="0" /></clipPath><clipPath
       id="clipPath152"
       clipPathUnits="userSpaceOnUse"><path
         id="path150"
         d="M 0,0 H 822 V 1188 H 0 Z"
         inkscape:connector-curvature="0" /></clipPath><clipPath
       id="clipPath174"
       clipPathUnits="userSpaceOnUse"><path
         id="path172"
         d="m 0,33.9 h 821.9 v 0.4 H 0 Z"
         inkscape:connector-curvature="0" /></clipPath><clipPath
       id="clipPath1080"
       clipPathUnits="userSpaceOnUse"><path
         id="path1078"
         d="m 332.1,804 h 0.4 v 120 h -0.4 z"
         inkscape:connector-curvature="0" /></clipPath><clipPath
       id="clipPath1092"
       clipPathUnits="userSpaceOnUse"><path
         id="path1090"
         d="m 474.5,804 h 0.4 v 120 h -0.4 z"
         inkscape:connector-curvature="0" /></clipPath><clipPath
       id="clipPath1892"
       clipPathUnits="userSpaceOnUse"><path
         id="path1890"
         d="m 52.4,908 h 60 v 2 h -60 z"
         inkscape:connector-curvature="0" /></clipPath><clipPath
       id="clipPath1900"
       clipPathUnits="userSpaceOnUse"><path
         style="clip-rule:evenodd"
         id="path1898"
         d="m 52.4,907.6 h 60.0003 V 910 H 52.4 Z"
         inkscape:connector-curvature="0" /></clipPath><clipPath
       id="clipPath2264"
       clipPathUnits="userSpaceOnUse"><path
         style="clip-rule:evenodd"
         id="path2262"
         d="M 52,264.6 H 321.3 V 43.5 H 52 Z"
         inkscape:connector-curvature="0" /></clipPath><clipPath
       id="clipPath2272"
       clipPathUnits="userSpaceOnUse"><path
         style="clip-rule:evenodd"
         id="path2270"
         d="M 52,43.32 H 321.76 V 264.6 H 52 Z"
         inkscape:connector-curvature="0" /></clipPath><clipPath
       id="clipPath2284"
       clipPathUnits="userSpaceOnUse"><path
         id="path2282"
         d="M 52,43.5 H 321.3 V 264.6 H 52 Z"
         inkscape:connector-curvature="0" /></clipPath><clipPath
       id="clipPath2596"
       clipPathUnits="userSpaceOnUse"><path
         style="clip-rule:evenodd"
         id="path2594"
         d="M 633.3,1154 H 755.221 L 755.2,1003.8 H 633.3 Z"
         inkscape:connector-curvature="0" /></clipPath><clipPath
       id="clipPath2604"
       clipPathUnits="userSpaceOnUse"><path
         style="clip-rule:evenodd"
         id="path2602"
         d="m 633.3,1003.8 h 121.921 v 150.241 H 633.3 Z"
         inkscape:connector-curvature="0" /></clipPath><clipPath
       id="clipPath2616"
       clipPathUnits="userSpaceOnUse"><path
         id="path2614"
         d="m 42,1162.5 h 780.1 v 1.5 H 42 Z"
         inkscape:connector-curvature="0" /></clipPath><clipPath
       id="clipPath2624"
       clipPathUnits="userSpaceOnUse"><path
         style="clip-rule:evenodd"
         id="path2622"
         d="M 42,1162.08 H 822.48 V 1164 H 42 Z"
         inkscape:connector-curvature="0" /></clipPath><clipPath
       id="clipPath2672"
       clipPathUnits="userSpaceOnUse"><path
         id="path2670"
         d="m 774.7,994.2 h 37.1 v 0.3 h -37.1 z"
         inkscape:connector-curvature="0" /></clipPath><clipPath
       id="clipPath3408"
       clipPathUnits="userSpaceOnUse"><path
         id="path3406"
         d="m 774.7,933.7 h 37.1 v 0.3 h -37.1 z"
         inkscape:connector-curvature="0" /></clipPath></defs><path
     inkscape:connector-curvature="0"
     id="path256"
     style="fill:#000000;fill-opacity:1;fill-rule:nonzero;stroke:none;stroke-width:1.33333325"
     d="m 0.00267,21.40933 h 6.252 v -1.128 c -1.05334,-0.0587 -1.112,-0.48 -1.112,-1.46667 V 0 H 4.05333 L 0,1.832 v 0.68 l 1.10267,1.016 v 15.28666 c 0,0.98667 -0.0587,1.408 -1.1,1.46667 z" /><path
     inkscape:connector-curvature="0"
     id="path262"
     style="fill:#000000;fill-opacity:1;fill-rule:nonzero;stroke:none;stroke-width:1.33333325"
     d="m 11.08426,8.57333 c 1.34134,0 2.104,0.564 2.104,2.14933 v 2.06 L 10.72693,13.836 c -2.74,1.17066 -3.904,2.31733 -3.904,4.41066 0,2.26534 1.552,3.456 3.53467,3.456 1.19333,0 2.444,-0.69733 3.10266,-1.888 0.24134,1.188 1.20934,1.888 2.46267,1.888 1.224,0 2.14933,-0.508 2.61467,-1.08533 V 19.42 c -0.17467,0.11466 -0.43067,0.19466 -0.648,0.19466 -0.428,0 -0.632,-0.34933 -0.632,-1.16133 v -6.744 c 0,-2.96533 -1.90934,-4.50267 -5.42134,-4.50267 -2.77066,0 -4.628,1.33334 -4.628,3.264 0,1.05867 0.72134,2.076 2.01334,2.076 1.16266,0 1.73466,-0.72666 1.73466,-1.628 0,-1.172 -1.084,-1.344 -1.084,-1.72266 0,-0.40534 0.52134,-0.62267 1.212,-0.62267 m 2.104,5.528 V 18 c 0,0.87333 -0.61066,1.59066 -1.38666,1.59066 -0.81467,0 -1.184,-0.688 -1.184,-1.92666 0,-1.58134 0.48533,-2.25067 1.46533,-2.87467 z" /><path
     inkscape:connector-curvature="0"
     id="path268"
     style="fill:#000000;fill-opacity:1;fill-rule:nonzero;stroke:none;stroke-width:1.33333325"
     d="m 33.75746,10.936 c 3.37467,-0.768 4.71867,-2.424 4.71867,-4.89334 0,-3.34133 -2.36933,-5.432 -7.17067,-5.432 h -7.344 v 1.15867 c 1.50667,0.116 1.66534,0.58 1.66534,1.944 v 14.588 c 0,1.33733 -0.36,1.832 -1.66534,1.94667 v 1.16133 H 31.8788 V 20.248 c -1.292,-0.11467 -1.62134,-0.60934 -1.62134,-1.94667 V 11.444 h 0.45734 c 1.008,0 1.836,0.35066 2.08666,1.24933 0.4,1.44133 0.348,4.46133 1.02,6.56667 0.58934,1.83066 2.03734,2.296 3.83334,2.296 1.368,0 2.264,-0.408 2.652,-0.668 l -0.0587,-1.152 c -1.19467,0.29066 -1.664,-0.18134 -2.22667,-3.49467 -0.58267,-3.46 -1.744,-4.724 -4.264,-5.30533 m -3.5,-9.02 h 0.30267 c 2.51333,0 3.14533,1.236 3.14533,4.272 0,3.004 -0.632,3.89733 -3.176,3.89733 h -0.272 z" /><path
     inkscape:connector-curvature="0"
     id="path274"
     style="fill:#000000;fill-opacity:1;fill-rule:nonzero;stroke:none;stroke-width:1.33333325"
     d="M 43.33333,13.592 H 50.416 v -0.63867 c 0,-3.67333 -1.972,-5.77867 -4.78933,-5.77867 -3.19067,0 -5.708,2.84667 -5.708,7.49334 0,4.388 2.444,7.06133 5.76,7.06133 2.37733,0 3.984,-1.364 4.86266,-3.64533 l -1.056,-0.71067 c -0.65066,1.10267 -1.31066,1.71333 -2.47733,1.71333 -1.84133,0 -3.09467,-1.88 -3.09467,-6.58266 0,-3.09467 0.596,-3.98134 1.528,-3.98134 0.732,0 1.28534,0.88267 1.30667,3.32 v 0.41467 h -3.41467 z" /><path
     inkscape:connector-curvature="0"
     id="path280"
     style="fill:#000000;fill-opacity:1;fill-rule:nonzero;stroke:none;stroke-width:1.33333325"
     d="m 51.01533,26.14266 h 6.344 v -1.128 c -1.10267,-0.06 -1.17334,-0.48 -1.17334,-1.46666 v -2.14134 c 0.544,0.20534 1.16667,0.32134 1.82667,0.32134 3.37867,0 5.59333,-2.90667 5.59333,-7.96 0,-4.37467 -1.72933,-6.56667 -4.08666,-6.56667 -1.43867,0 -2.54534,0.68267 -3.33334,1.88 v -1.88 h -1.08933 l -4.05333,1.656 v 0.68133 l 1.11466,1.016 V 23.548 c 0,0.98666 -0.0587,1.40666 -1.14266,1.46666 z m 5.17066,-14.688 c 0,-1.132 0.59067,-1.86133 1.45467,-1.86133 1.20667,0 1.664,1.744 1.664,5.78667 0,3.4 -0.31467,5.01333 -1.72533,5.01333 -0.96534,0 -1.39334,-0.784 -1.39334,-2.236 z" /><path
     inkscape:connector-curvature="0"
     id="path286"
     style="fill:#000000;fill-opacity:1;fill-rule:nonzero;stroke:none;stroke-width:1.33333325"
     d="M 69.13747,7.20133 H 68.0348 L 63.99747,8.15866 V 9.144 c 0.968,0.16666 1.11466,0.74933 1.11466,2.13466 v 5.74267 c 0,3.25333 1.38,4.73467 3.49334,4.73467 1.39333,0 2.51466,-0.756 3.23466,-1.96 v 1.77066 H 72.6588 L 76.92013,20.952 V 19.824 C 75.95213,19.63333 75.8788,19.316 75.8788,17.85066 V 7.20133 H 74.76413 L 70.82947,8.15866 V 9.144 c 0.93733,0.34266 1.01066,0.88133 1.01066,2.13466 v 6.31067 c 0,1.00267 -0.64666,1.78533 -1.53866,1.78533 -0.83467,0 -1.164,-0.57866 -1.164,-1.552 z" /><path
     inkscape:connector-curvature="0"
     id="path292"
     style="fill:#000000;fill-opacity:1;fill-rule:nonzero;stroke:none;stroke-width:1.33333325"
     d="m 83.6276,21.72933 c 3.61333,0 5.84933,-2.90667 5.84933,-7.96 0,-4.37333 -1.73467,-6.56533 -4.15467,-6.56533 -1.38,0 -2.48533,0.772 -3.26133,1.848 V 0 H 80.94226 L 76.9236,1.83066 v 0.68 l 1.096,1.01734 v 16.25466 c 1.136,1.088 3.09066,1.94667 5.608,1.94667 m -1.56667,-10.272 c 0,-1.13333 0.57733,-1.86133 1.44133,-1.86133 1.21867,0 1.66534,1.744 1.66534,5.78666 0,3.39867 -0.31467,5.012 -1.71067,5.012 -0.98133,0 -1.396,-0.71066 -1.396,-2.016 z" /><path
     inkscape:connector-curvature="0"
     id="path298"
     style="fill:#000000;fill-opacity:1;fill-rule:nonzero;stroke:none;stroke-width:1.33333325"
     d="m 96.29427,21.72933 c 3.61333,0 5.84933,-2.90667 5.84933,-7.96 0,-4.37333 -1.73867,-6.56533 -4.15467,-6.56533 -1.38,0 -2.48533,0.772 -3.26133,1.848 V 0 h -1.11867 l -4.02266,1.83066 v 0.68 l 1.1,1.01734 v 16.25466 c 1.136,1.088 3.09066,1.94667 5.608,1.94667 m -1.56667,-10.272 c 0,-1.13333 0.57733,-1.86133 1.44133,-1.86133 1.21867,0 1.66534,1.744 1.66534,5.78666 0,3.39867 -0.31467,5.012 -1.71067,5.012 -0.98133,0 -1.396,-0.71066 -1.396,-2.016 z" /><path
     inkscape:connector-curvature="0"
     id="path304"
     style="fill:#000000;fill-opacity:1;fill-rule:nonzero;stroke:none;stroke-width:1.33333325"
     d="m 102.73293,21.40933 h 6.256 v -1.128 c -1.05734,-0.0587 -1.112,-0.48 -1.112,-1.46667 V 0 h -1.09067 l -4.05333,1.832 v 0.68 l 1.10266,1.016 v 15.28666 c 0,0.98667 -0.0573,1.408 -1.10266,1.46667 z" /><path
     inkscape:connector-curvature="0"
     id="path310"
     style="fill:#000000;fill-opacity:1;fill-rule:nonzero;stroke:none;stroke-width:1.33333325"
     d="m 109.64627,21.40933 h 6.256 v -1.128 c -1.05734,-0.0587 -1.112,-0.48 -1.112,-1.46667 V 7.204 h -1.09067 l -4.05333,1.656 v 0.68133 l 1.10266,1.016 v 8.25733 c 0,0.98667 -0.0573,1.408 -1.10266,1.46667 z m 0.92,-18.38667 c 0,1.2 1.01066,2.184 2.25333,2.184 1.21333,0 2.236,-0.95333 2.236,-2.184 0,-1.23066 -0.996,-2.21466 -2.236,-2.21466 -1.24267,0 -2.25333,1.01333 -2.25333,2.21466" /><path
     inkscape:connector-curvature="0"
     id="path316"
     style="fill:#000000;fill-opacity:1;fill-rule:nonzero;stroke:none;stroke-width:1.33333325"
     d="m 122.45559,8.568 c 0.73067,0 1.18534,0.21333 1.18534,0.592 0,0.376 -1.03867,0.528 -1.03867,1.74666 0,0.88934 0.56533,1.63467 1.72933,1.63467 1.29467,0 1.98134,-1.03067 1.98134,-2.136 0,-1.944 -1.628,-3.204 -3.94267,-3.204 -3.39333,0 -6.16133,2.55467 -6.16133,7.728 0,4.06667 2.23333,6.82667 5.51333,6.82667 2.40133,0 3.70267,-1.58134 4.47867,-3.53734 l -1.408,-0.768 c -0.59067,1.332 -1.244,2.072 -2.24,2.072 -1.74934,0 -2.45867,-2.23733 -2.45867,-6.32533 0,-3.636 1.01467,-4.62933 2.36133,-4.62933" /><path
     inkscape:connector-curvature="0"
     id="path322"
     style="fill:#000000;fill-opacity:1;fill-rule:nonzero;stroke:none;stroke-width:1.33333325"
     d="m 131.21026,8.57333 c 1.34133,0 2.108,0.564 2.108,2.14933 v 2.06 l -2.46533,1.05334 c -2.74,1.17066 -3.904,2.31733 -3.904,4.41066 0,2.26534 1.552,3.456 3.53466,3.456 1.19334,0 2.44667,-0.69733 3.10667,-1.888 0.23733,1.188 1.20533,1.888 2.45867,1.888 1.224,0 2.15333,-0.508 2.61733,-1.08533 V 19.42 c -0.17467,0.11466 -0.43067,0.19466 -0.65067,0.19466 -0.428,0 -0.62933,-0.34933 -0.62933,-1.16133 v -6.744 c 0,-2.96533 -1.912,-4.50267 -5.42133,-4.50267 -2.77334,0 -4.628,1.33334 -4.628,3.264 0,1.05867 0.71866,2.076 2.01066,2.076 1.16667,0 1.73467,-0.72666 1.73467,-1.628 0,-1.172 -1.08133,-1.344 -1.08133,-1.72266 0,-0.40534 0.51866,-0.62267 1.20933,-0.62267 m 2.108,5.528 V 18 c 0,0.87333 -0.612,1.59066 -1.39067,1.59066 -0.81466,0 -1.18133,-0.688 -1.18133,-1.92666 0,-1.58134 0.48533,-2.25067 1.46533,-2.87467 z" /></svg>
