<svg xmlns="http://www.w3.org/2000/svg" viewBox="0 0 138.67 26.14"><defs><style>.cls-1{fill:#fff;}</style></defs><g id="Layer_2" data-name="Layer 2"><g id="svg2"><path id="path256" class="cls-1" d="M0,21.41H6.25V20.28c-1-.06-1.11-.48-1.11-1.47V0H4.05L0,1.83v.68l1.1,1V18.81c0,1-.06,1.41-1.1,1.47Z"/><path id="path262" class="cls-1" d="M11.08,8.57c1.35,0,2.11.57,2.11,2.15v2.06l-2.46,1.06C8,15,6.82,16.15,6.82,18.25a3.27,3.27,0,0,0,3.54,3.45,3.62,3.62,0,0,0,3.1-1.89,2.35,2.35,0,0,0,2.46,1.89,3.38,3.38,0,0,0,2.62-1.08v-1.2a1.33,1.33,0,0,1-.65.19c-.43,0-.63-.34-.63-1.16V11.71c0-3-1.91-4.5-5.42-4.5-2.77,0-4.63,1.33-4.63,3.26a2,2,0,0,0,2,2.08A1.57,1.57,0,0,0,11,10.92C11,9.75,9.87,9.57,9.87,9.2s.52-.63,1.21-.63m2.11,5.53V18a1.5,1.5,0,0,1-1.39,1.59c-.81,0-1.18-.69-1.18-1.93a2.87,2.87,0,0,1,1.46-2.87Z"/><path id="path268" class="cls-1" d="M33.76,10.94c3.37-.77,4.72-2.43,4.72-4.9,0-3.34-2.37-5.43-7.17-5.43H24V1.77c1.51.12,1.67.58,1.67,1.94V18.3c0,1.34-.36,1.83-1.67,1.95v1.16h7.92V20.25c-1.29-.12-1.62-.61-1.62-1.95V11.44h.45c1,0,1.84.35,2.09,1.25.4,1.44.35,4.46,1,6.57.59,1.83,2,2.3,3.83,2.3a4.91,4.91,0,0,0,2.66-.67l-.06-1.15c-1.2.29-1.67-.19-2.23-3.5s-1.74-4.72-4.26-5.3m-3.5-9h.3c2.51,0,3.15,1.23,3.15,4.27s-.64,3.9-3.18,3.9h-.27Z"/><path id="path274" class="cls-1" d="M43.33,13.59h7.09V13c0-3.67-2-5.78-4.79-5.78-3.19,0-5.71,2.85-5.71,7.5,0,4.39,2.44,7.06,5.76,7.06,2.38,0,4-1.36,4.86-3.65l-1-.71A2.75,2.75,0,0,1,47,19.09c-1.84,0-3.1-1.88-3.1-6.59,0-3.09.6-4,1.53-4,.73,0,1.29.89,1.31,3.32v.42H43.33Z"/><path id="path280" class="cls-1" d="M51,26.14h6.34V25c-1.1-.06-1.17-.48-1.17-1.46V21.41a5.26,5.26,0,0,0,1.82.32c3.38,0,5.6-2.91,5.6-8,0-4.38-1.73-6.57-4.09-6.57a3.82,3.82,0,0,0-3.33,1.88V7.2H55.1L51,8.86v.68l1.12,1v13c0,1-.06,1.4-1.14,1.46Zm5.17-14.69c0-1.13.59-1.86,1.45-1.86,1.21,0,1.66,1.75,1.66,5.79,0,3.4-.31,5-1.72,5-1,0-1.39-.78-1.39-2.23Z"/><path id="path286" class="cls-1" d="M69.14,7.2H68l-4,1v1c1,.17,1.11.75,1.11,2.14V17c0,3.25,1.38,4.74,3.5,4.74a3.72,3.72,0,0,0,3.23-2v1.77h.82L76.92,21V19.82c-1-.19-1-.5-1-2V7.2H74.76l-3.93,1v1c.94.35,1,.89,1,2.14v6.31a1.64,1.64,0,0,1-1.54,1.78c-.83,0-1.16-.57-1.16-1.55Z"/><path id="path292" class="cls-1" d="M83.63,21.73c3.61,0,5.85-2.91,5.85-8,0-4.37-1.74-6.57-4.16-6.57a4,4,0,0,0-3.26,1.85V0H80.94l-4,1.83v.68l1.1,1V19.78a8.1,8.1,0,0,0,5.61,1.95M82.06,11.46c0-1.14.58-1.86,1.44-1.86,1.22,0,1.67,1.74,1.67,5.78,0,3.4-.32,5-1.71,5-1,0-1.4-.71-1.4-2Z"/><path id="path298" class="cls-1" d="M96.29,21.73c3.62,0,5.85-2.91,5.85-8,0-4.37-1.74-6.57-4.15-6.57a4,4,0,0,0-3.26,1.85V0H93.61l-4,1.83v.68l1.1,1V19.78a8.08,8.08,0,0,0,5.6,1.95M94.73,11.46c0-1.14.57-1.86,1.44-1.86,1.22,0,1.66,1.74,1.66,5.78,0,3.4-.31,5-1.71,5-1,0-1.39-.71-1.39-2Z"/><path id="path304" class="cls-1" d="M102.73,21.41H109V20.28c-1.06-.06-1.11-.48-1.11-1.47V0h-1.09l-4.06,1.83v.68l1.11,1V18.81c0,1-.06,1.41-1.11,1.47Z"/><path id="path310" class="cls-1" d="M109.65,21.41h6.25V20.28c-1.06-.06-1.11-.48-1.11-1.47V7.2H113.7l-4,1.66v.68l1.1,1v8.25c0,1-.06,1.41-1.1,1.47ZM110.57,3a2.25,2.25,0,0,0,4.49,0A2.22,2.22,0,0,0,112.82.81,2.25,2.25,0,0,0,110.57,3"/><path id="path316" class="cls-1" d="M122.46,8.57c.73,0,1.18.21,1.18.59s-1,.53-1,1.75a1.57,1.57,0,0,0,1.73,1.63,2,2,0,0,0,2-2.13c0-1.95-1.63-3.21-3.94-3.21-3.39,0-6.16,2.56-6.16,7.73,0,4.07,2.23,6.83,5.51,6.83,2.4,0,3.7-1.59,4.48-3.54l-1.41-.77c-.59,1.33-1.24,2.07-2.24,2.07-1.75,0-2.46-2.23-2.46-6.32,0-3.64,1-4.63,2.37-4.63"/><path id="path322" class="cls-1" d="M131.21,8.57c1.34,0,2.11.57,2.11,2.15v2.06l-2.47,1.06c-2.74,1.17-3.9,2.31-3.9,4.41a3.27,3.27,0,0,0,3.53,3.45,3.62,3.62,0,0,0,3.11-1.89,2.35,2.35,0,0,0,2.46,1.89,3.4,3.4,0,0,0,2.62-1.08v-1.2a1.33,1.33,0,0,1-.65.19c-.43,0-.63-.34-.63-1.16V11.71c0-3-1.92-4.5-5.43-4.5-2.77,0-4.62,1.33-4.62,3.26a2,2,0,0,0,2,2.08,1.57,1.57,0,0,0,1.73-1.63c0-1.17-1.08-1.35-1.08-1.72s.52-.63,1.21-.63m2.11,5.53V18a1.5,1.5,0,0,1-1.39,1.59c-.82,0-1.18-.69-1.18-1.93a2.87,2.87,0,0,1,1.46-2.87Z"/></g></g></svg>