<?xml version="1.0" encoding="utf-8"?>
<!-- Generator: Adobe Illustrator 24.1.0, SVG Export Plug-In . SVG Version: 6.00 Build 0)  -->
<svg version="1.1" id="lastampa" xmlns="http://www.w3.org/2000/svg" xmlns:xlink="http://www.w3.org/1999/xlink" x="0px" y="0px"
	 viewBox="0 0 500 61" style="enable-background:new 0 0 500 61;" xml:space="preserve">
<g>
	<path d="M54.2,58.9V35.8h-8c0,9.1-1.6,15.6-11.9,15.6h-9.3V13.7c0-2.1,1.2-3.4,3.3-3.4h5.3V2.9H0.2v7.4h5.3c2.1,0,3.3,1.3,3.3,3.4
		v34.4c0,2.1-1.2,3.4-3.3,3.4H0.3v7.4L54.2,58.9L54.2,58.9z M81.3,3L66.9,45.2c-1.7,5.2-2.9,6.3-6,6.3H58V59h25.4v-7.4h-2.5
		c-2.3,0-5.4-0.3-5.4-1.6c0-1.2,0.3-2.5,1.3-5.4l1-3.4h17.6l1.8,6.1c0.3,1.3,0.4,2.2,0.4,3c0,0.9-2.2,1.3-4.8,1.3h-2.6V59H122v-7.4
		h-2.9c-3,0-4.2-1.2-6-6.3L98.7,3H81.3L81.3,3z M86.4,16h0.2L93,34H80L86.4,16z M184.4,1.8h-7.1l-1.5,4c-4.9-3.1-10.4-4.9-16.2-4.9
		c-11.7,0-24.4,3.8-24.4,17.9c0,24.5,36.9,14.6,36.9,26.8c0,4.9-5.4,7.3-9.8,7.3c-10,0-17.4-6.2-18.6-15.2h-7.9v22.4h7.1l2.2-4.5
		c5.4,3.9,12,5.3,18.6,5.3c11.7,0,23.5-4.6,23.5-18.3c0-24.3-36.9-15.7-36.9-26.5c0-5.7,4.6-7.3,9.5-7.3c7.5,0,15.4,5,16.7,14h7.8
		L184.4,1.8L184.4,1.8L184.4,1.8z M198,24.3c0-8.6,2.5-14,12.2-14v37.8c0,2.1-1.2,3.4-3.3,3.4h-5.2v7.4h32.7v-7.4h-5.1
		c-2.1,0-3.3-1.3-3.3-3.4V10.3c9.7,0,12.2,5.4,12.2,14h7.8V2.9h-56v21.5L198,24.3L198,24.3z M260.4,3l-14.4,42.2
		c-1.7,5.2-2.9,6.3-6,6.3H237V59h25.4v-7.4h-2.5c-2.3,0-5.4-0.3-5.4-1.6c0-1.2,0.3-2.5,1.3-5.4l1-3.4h17.6l1.8,6.1
		c0.3,1.3,0.4,2.2,0.4,3c0,0.9-2.2,1.3-4.8,1.3h-2.6V59H301v-7.4h-2.9c-3,0-4.2-1.2-6-6.3L277.6,3H260.4L260.4,3z M265.4,16h0.2
		l6.5,18h-13L265.4,16L265.4,16z M304.2,2.9v7.4h5.2c2.1,0,3.4,1.3,3.4,3.4v34.4c0,2.1-1.2,3.4-3.4,3.4h-5.2v7.4H329v-7.4h-3.6
		c-2.2,0-3.4-1.3-3.4-3.4V11.6h0.2l13.4,47.3h12.6l13.5-46.5h0.2v35.6c0,2.1-1.2,3.4-3.4,3.4h-3.6v7.4h31.2v-7.4h-4.7
		c-2.1,0-3.4-1.3-3.4-3.4V13.7c0-2.1,1.2-3.4,3.4-3.4h4.7V2.9h-30.6l-10.2,34.4h-0.2l-9.9-34.4L304.2,2.9L304.2,2.9L304.2,2.9z
		 M397.6,48.2c0,2.1-1.2,3.4-3.3,3.4h-5.2V59h33.6v-7.4H417c-2.1,0-3.3-1.3-3.3-3.4V34.8h9.4c15.7,0,24-4.4,24-16
		C447,7.3,438.7,3,424.7,3H389v7.4h5.3c2.1,0,3.3,1.3,3.3,3.4V48.2z M414,10h8.5c4.7,0,8.5,3.3,8.5,8.5s-3.9,8.5-9.8,8.5H414V10
		L414,10z M459.4,3l-14.4,42.2c-1.7,5.2-2.9,6.3-6,6.3H436V59h25.4v-7.4h-2.5c-2.3,0-5.4-0.3-5.4-1.6c0-1.2,0.3-2.5,1.3-5.4l1-3.4
		h17.6l1.8,6.1c0.3,1.3,0.4,2.2,0.4,3c0,0.9-2.2,1.3-4.8,1.3h-2.6V59H500v-7.4h-2.9c-3,0-4.2-1.2-6-6.3L476.6,3H459.4z M464.4,16
		h0.2l6.5,18h-13L464.4,16L464.4,16z"/>
</g>
</svg>
