<svg xmlns="http://www.w3.org/2000/svg" viewBox="0 0 499.8 60"><defs><style>.cls-1{fill:#fff;}</style></defs><g id="Layer_2" data-name="Layer 2"><g id="lastampa"><path class="cls-1" d="M54,58V34.9H46c0,9.1-1.6,15.6-11.9,15.6H24.8V12.8a3.08,3.08,0,0,1,3.3-3.4h5.3V2H0V9.4H5.3a3.08,3.08,0,0,1,3.3,3.4V47.2a3.08,3.08,0,0,1-3.3,3.4H.1V58ZM81.1,2.1,66.7,44.3c-1.7,5.2-2.9,6.3-6,6.3H57.8v7.5H83.2V50.7H80.7c-2.3,0-5.4-.3-5.4-1.6s.3-2.5,1.3-5.4l1-3.4H95.2L97,46.4a13,13,0,0,1,.4,3c0,.9-2.2,1.3-4.8,1.3H90v7.4h31.8V50.7h-2.9c-3,0-4.2-1.2-6-6.3L98.5,2.1Zm5.1,13h.2l6.4,18h-13ZM184.2.9h-7.1l-1.5,4A30.19,30.19,0,0,0,159.4,0C147.7,0,135,3.8,135,17.9c0,24.5,36.9,14.6,36.9,26.8,0,4.9-5.4,7.3-9.8,7.3-10,0-17.4-6.2-18.6-15.2h-7.9V59.2h7.1l2.2-4.5c5.4,3.9,12,5.3,18.6,5.3,11.7,0,23.5-4.6,23.5-18.3,0-24.3-36.9-15.7-36.9-26.5,0-5.7,4.6-7.3,9.5-7.3,7.5,0,15.4,5,16.7,14h7.8l.1-21Zm13.6,22.5c0-8.6,2.5-14,12.2-14V47.2a3.08,3.08,0,0,1-3.3,3.4h-5.2V58h32.7V50.6h-5.1a3.08,3.08,0,0,1-3.3-3.4V9.4c9.7,0,12.2,5.4,12.2,14h7.8V2h-56V23.5l8-.1ZM260.2,2.1,245.8,44.3c-1.7,5.2-2.9,6.3-6,6.3h-3v7.5h25.4V50.7h-2.5c-2.3,0-5.4-.3-5.4-1.6s.3-2.5,1.3-5.4l1-3.4h17.6l1.8,6.1a13,13,0,0,1,.4,3c0,.9-2.2,1.3-4.8,1.3H269v7.4h31.8V50.7h-2.9c-3,0-4.2-1.2-6-6.3L277.4,2.1Zm5,13h.2l6.5,18h-13l6.3-18ZM304,2V9.4h5.2a3.15,3.15,0,0,1,3.4,3.4V47.2a3.1,3.1,0,0,1-3.4,3.4H304V58h24.8V50.6h-3.6a3.1,3.1,0,0,1-3.4-3.4V10.7h.2L335.4,58H348l13.5-46.5h.2V47.1a3.1,3.1,0,0,1-3.4,3.4h-3.6v7.4h31.2V50.5h-4.7a3.15,3.15,0,0,1-3.4-3.4V12.8a3.1,3.1,0,0,1,3.4-3.4h4.7V2H355.3L345.1,36.4h-.2L335,2Zm93.4,45.3a3.08,3.08,0,0,1-3.3,3.4h-5.2v7.4h33.6V50.7h-5.7a3.08,3.08,0,0,1-3.3-3.4V33.9h9.4c15.7,0,24-4.4,24-16S438.5,2.1,424.5,2.1H388.8V9.5h5.3a3.08,3.08,0,0,1,3.3,3.4V47.3ZM413.8,9.1h8.5a8.19,8.19,0,0,1,8.5,8.5c0,5.2-3.9,8.5-9.8,8.5h-7.2V9.1Zm45.4-7L444.8,44.3c-1.7,5.2-2.9,6.3-6,6.3h-3v7.5h25.4V50.7h-2.5c-2.3,0-5.4-.3-5.4-1.6s.3-2.5,1.3-5.4l1-3.4h17.6l1.8,6.1a13,13,0,0,1,.4,3c0,.9-2.2,1.3-4.8,1.3H468v7.4h31.8V50.7h-2.9c-3,0-4.2-1.2-6-6.3L476.4,2.1Zm5,13h.2l6.5,18h-13l6.3-18Z"/></g></g></svg>