<?xml version="1.0" encoding="utf-8"?>
<!-- Generator: Adobe Illustrator 19.0.0, SVG Export Plug-In . SVG Version: 6.00 Build 0)  -->
<svg version="1.1" id="圖層_1" xmlns="http://www.w3.org/2000/svg" xmlns:xlink="http://www.w3.org/1999/xlink" x="0px" y="0px"
	 viewBox="0 0 52.3929634 7.5997567" style="enable-background:new 0 0 52.3929634 7.5997567;" xml:space="preserve">
<path d="M11.4647322,6.3325005l-0.4360046-1.5l-0.1830139-0.8079987c0.0270081-0.0069885,0.0050049-0.0609891,0.0039978-0.069
	c-0.1549988-1.2809906-1.1439819-1.1369934-1.7859802-0.9169922c0,0-0.0340271,0.0319977-0.03302-0.0099945
	c0.0020142-0.052002,0.0029907-0.5710144,0.0029907-0.7110138c0-0.0329895,0.0290222-0.0429993,0.0290222-0.0429993
	c0.802002-0.3519897,1.9629822-0.321991,2.677002,0.0350037c0.5359802,0.2689972,0.8479919,0.6760101,1.1430054,1.8979948
	c0.0809937,0.3380127,0.1739807,0.803009,0.4319763,1.8130035c0.1240234,0.4850006,0.2550049,0.6660004,0.5220032,0.6150055
	c0.03302-0.0059967,0.0339966,0.0110016,0.0339966,0.0399933c-0.0009766,0.230011-0.0009766,0.6150055-0.0009766,0.6419983
	c0,0.0800018,0,0.0800018-0.0270081,0.07901c-0.0339966-0.0010071-0.7380066,0.0009918-0.7380066,0.0009918
	c-0.3210144-0.0019989-0.7120056-0.0019989-1.2200012-0.4459991L11.4647322,6.3325005z"/>
<path d="M11.4647322,6.3325005c0.0119934,0.0360107-0.0400085,0.0720062-0.0740051,0.0880127
	c-1.1090088,0.6309967-1.5120239-1.2380066-0.4320068-1.5980072c0.0440063-0.0119934,0.0700073,0.0099945,0.0700073,0.0099945
	l-0.1830139-0.8079987C10.2687178,4.1515007,9.3617048,4.4125023,8.96873,4.7835045
	c-0.8789978,0.8300018-0.5,2.1670074,0.4649963,2.5130005c0.5390015,0.1930084,1.6529846,0.3460083,2.4509888-0.3450012
	L11.4647322,6.3325005z"/>
<path d="M19.0030327,1.9243891c0.6109924,0,1.1069946-0.3999939,1.1069946-0.8939972
	c0-0.4939881-0.4960022-0.8939973-1.1069946-0.8939973c-0.61203,0-1.1070251,0.4000092-1.1070251,0.8939973
	C17.8960075,1.5243952,18.3910027,1.9243891,19.0030327,1.9243891"/>
<path d="M23.9435234,4.3556023c0.0339966-0.0089874,0.1679993-0.0059967,0.1569824-0.1949921
	c-0.0289917-0.4819944-0.1489868-0.8110044-0.2900085-1.0030057c-0.2659912-0.3609924-0.7529907-0.3739929-1.0039978,0.1610107
	c-0.1470032,0.3119965-0.1759949,0.8799894-0.1560059,1.2589872c0.007019,0.1180115,0.026001,0.1240082,0.1340027,0.0980072
	l0.0870056,0.7129974c-0.0379944,0.0200043-0.0849915,0.003006-0.0299988,0.1500092
	c0.3470154,0.9329987,0.8450012,1.0599976,1.5110168,1.0219879c0.3450012-0.0189972,0.7309875-0.1989899,0.8669739-0.269989
	c0.1350098-0.0720062,0.1140137,0.0139923,0.1140137,0.0649872v0.631012c0,0.1019897,0.0090027,0.1380005-0.17099,0.2030029
	c-0.9100037,0.3329926-2.105011,0.4119873-3.03302-0.0450134c-0.7799988-0.3839874-1.4899902-1.3969879-1.4289856-2.5019989
	c0.0969849-1.7589872,1.1900024-2.7099912,2.82901-2.6569974c1.2909851,0.0420074,2.2779846,0.9889984,2.3979797,2.3809965
	c0.0050049,0.0579987,0.0039978,0.1470032-0.0509949,0.178009L23.9435234,4.3556023z"/>
<path d="M23.9435234,4.3556023c-0.2280273,0.0690002-1.1590271,0.3200073-1.1590271,0.3200073l0.0870056,0.7129974
	c0.0370178-0.0209961,3.0050049-0.8439941,3.0050049-0.8439941L23.9435234,4.3556023z"/>
<path d="M7.9529223,6.9896965C7.9519153,7.2307091,8.0079145,7.3227043,8.0268965,7.3626976
	c0.0160217,0.0360107-0.0319819,0.0310059-0.0319819,0.0310059H7.6209216h-1.559021c0,0-0.0379944,0.0019989-0.026001-0.0310059
	C6.0589099,7.2977104,6.105907,7.180706,6.105907,6.9896965l-0.0020142-0.25V4.3637047v-0.447006
	C6.1029162,3.7486994,5.9989123,3.387707,5.5918994,3.3866999c-0.3370056,0.003006-0.651001,0.3090057-0.6519775,0.7330015
	v0.8870087l-0.0010071,1.769989c0,0,0.0010071,0.20401,0.0010071,0.2129974
	C4.9389148,7.2307091,4.9949145,7.3227043,5.0138965,7.3626976C5.0299182,7.3987083,4.981914,7.3937035,4.981914,7.3937035
	H4.6088977H3.0489001c0,0-0.0379944,0.0019989-0.026001-0.0310059C3.0459094,7.2977104,3.0918994,7.180706,3.0929065,6.9896965
	V6.8567009V4.3667107v-0.447006c-0.0010071-0.1690063-0.105011-0.529007-0.5130005-0.5310059
	c-0.3359985,0.003006-0.6510011,0.3090057-0.6510011,0.7330015v0.2290039v2.4960022L1.9269212,6.9896965
	c0,0.2410126,0.0559998,0.3330078,0.0739747,0.3730011c0.0160217,0.0360107-0.0309755,0.0310059-0.0309755,0.0310059H1.5958971
	H0.0369066c0,0-0.0390015,0.0019989-0.0270081-0.0310059C0.0339159,7.2977104,0.0788988,7.180706,0.080913,6.9896965V6.8216972
	c0-0.6209869-0.0010071-3.3479917-0.0020142-3.5989988C0.080913,3.058697,0.028911,2.9417078,0.0039171,2.8776972
	C-0.0110975,2.8447077,0.021892,2.8297083,0.021892,2.8297083S0.7329211,2.5107081,1.897899,1.9726985
	C1.9098924,1.9677088,1.929912,1.9746974,1.9289049,1.9957087v0.4689941v0.4029999
	c0,0.0220032,0.0240173,0.0339966,0.0419922,0.0149994c0.0100098-0.0099945,0.0220032-0.026001,0.038025-0.0439911
	c0.6389771-0.9740143,2.6279907-1.1320038,2.940979,0.0339966c0.006012,0.019989,0.0280151,0.0179901,0.0410156,0
	c0.3939819-0.5279999,0.7890015-0.7940063,1.6009827-0.7940063c1.5880122,0,1.3590088,1.3540039,1.3580017,2.1880033
	l0.0010071,2.4729919L7.9529223,6.9896965z"/>
<path d="M16.2295341,6.9934959c-0.0010071,0.2400055,0.0549927,0.3330078,0.072998,0.3730011
	c0.0169983,0.0360107-0.0310059,0.0310059-0.0310059,0.0310059h-0.4730234h-1.5589905c0,0-0.0390015,0.0010071-0.0270081-0.0310059
	c0.0230103-0.0659943,0.0690002-0.1819916,0.0700073-0.3730011l0.0010071-0.1439972
	c0-0.618988-0.0010071-3.2619932-0.0010071-3.5130002c0-0.1399994-0.0939941-0.401001-0.1119995-0.447998
	c-0.0119934-0.0249939,0.0270081-0.0350037,0.0270081-0.0350037s0.8420105-0.4299927,2.0019846-0.9669952
	c0.0120239-0.0050049,0.0310059,0.0019989,0.0310059,0.022995v0.5220032c0,0.0700073,0.007019,0.2890015,0.007019,0.3180084
	c0,0.022995,0.0239868,0.0349884,0.0409851,0.0159912c0.0100098-0.0110016,0.0230103-0.026001,0.0379944-0.0449982
	c0.4330139-0.8499908,1.1210022-0.822998,1.6440125-0.7449951c0.0669861,0.0099945,0.0579834,0.0319977,0.0400085,0.1199951
	c-0.0339966,0.1679993-0.2650146,1.1190033-0.2850037,1.1889954c-0.0160217,0.0590057-0.0320129,0.0850067-0.1029968,0.0700073
	c-0.6570129-0.1380005-1.382019,0.076004-1.382019,0.895004v0.1179962c0,0.5970001,0,2.0570068,0.0010071,2.4830017
	L16.2295341,6.9934959z"/>
<path d="M20.0384331,6.9934959c-0.0010071,0.2400055,0.0549927,0.3330078,0.072998,0.3730011
	c0.0169983,0.0360107-0.0310059,0.0310059-0.0310059,0.0310059h-0.4760132h-1.5589905c0,0-0.0390015,0.0019989-0.0280151-0.0310059
	c0.0240173-0.0659943,0.0700073-0.1819916,0.0710144-0.3730011l0.0010071-0.0279999V2.9115107
	c0-0.1000061,0-0.1010132,0.0709839-0.1330109c0.0370178-0.0169983,0.0240173-0.0110016,0.0240173-0.0110016
	s0.6719971-0.3320007,1.7929993-0.8600006c0.0119934-0.0059967,0.0589905,0.0019989,0.0579834,0.0230103
	c0,0.1599884,0.0020142,4.6139984,0.0030212,5.0439911V6.9934959z"/>
<path d="M31.8417473,6.4743004c-0.4670105,0.2380066-1.1640015,0.3150024-1.5800171-0.2139893
	c-0.4140015-0.5270081-0.6180115-0.9880066-0.6170044-1.7429962c0.0010071-1.7160032,1.1920166-1.9410093,2.0960083-1.4360044
	V2.1993067c-0.5100098-0.2590027-1.1830139-0.3040009-1.6889954-0.2509918
	c-1.507019,0.1609955-2.3869934,1.423996-2.3880005,2.8609922c-0.0010071,1.5659943,0.9989929,3.4400024,4.178009,2.5690002
	V6.4743004z"/>
<path d="M34.3394279,6.7948875c0,0-0.007019-6.8079987-0.0040283-6.772995c0,0-1.4049988,0.6490021-2.1399841,1
	c0.072998,0.0599976,0.2269897,0.3220062,0.2269897,1.1849976v2.1849973c0.0010071,0.625,0,1.8230133-0.0090027,2.7710114
	c-0.0009766,0.1039886-0.0669861,0.2489929-0.0669861,0.2590027h2.1229858
	C34.4484062,7.4219017,34.3394279,6.7948875,34.3394279,6.7948875"/>
<path d="M37.9304314,6.3883018c0.0119934,0.0380096-0.0080261,0.0500031-0.0430298,0.0680084
	c-0.2419739,0.1539917-0.6569824,0.1880035-0.9009705-0.0390015c-0.230011-0.2720032-0.3500061-0.5829926-0.2530212-0.9720001
	c0.0769958-0.2389984,0.3220215-0.6560059,0.7310181-0.7290039l-0.131012-0.7819974
	c0.0010071,0.0140076,0,0.0130005-0.0409851,0.0220032c-0.1240234,0.0310059-0.1900024,0.0429993-0.4050293,0.0789945
	c-0.4529724,0.0749969-0.9649963,0.2290039-1.3909912,0.5610046c-1.2149963,0.9440002-0.644989,2.3329926,0.3420105,2.7409973
	c0.5759888,0.2380066,1.5929871,0.3769989,2.4329834-0.3240051L37.9304314,6.3883018z"/>
<path d="M37.9304314,6.3883018l-0.4510193-1.6649933c0,0,0-0.0119934-0.0149841-0.0070038l-0.131012-0.7819974
	c-0.0899963-1.3970032-1.2120056-1.2679901-1.8349915-1.0350037c0,0-0.0350037,0.0330048-0.03302-0.0110016
	c0.0010071-0.0539856,0.0030212-0.5929871,0.0030212-0.7379913c-0.0010071-0.0350037,0.0289917-0.0440063,0.0289917-0.0440063
	c0.7929993-0.3479919,2.0050049-0.3009949,2.7049866,0.0500031c0.6140137,0.3070068,0.9190063,0.8710022,1.0420227,1.3560028
	c0,0,0.5509949,2.5139921,0.6129761,2.7859952c0.0500183,0.2180023,0.1920166,0.4080048,0.4140015,0.4069977
	c0.0880127,0,0.1000061,0.0170135,0.1010132,0.1080017c0.0010071,0.2200012,0.0019836,0.5590057,0.0010071,0.6060028
	c-0.0010071,0.0570068-0.0050049,0.0780029-0.0480042,0.0780029c-0.0350037,0-0.7619934,0.0009918-0.7619934,0.0009918
	c-0.3910217-0.0019989-0.7130127-0.0029907-1.2920227-0.4850006L37.9304314,6.3883018z"/>
<path d="M41.8485222,1.8549922c0.6339722,0,1.1479797-0.4149933,1.1479797-0.9279938
	c0-0.5119934-0.5140076-0.927002-1.1479797-0.927002c-0.6350098,0-1.1490173,0.4150085-1.1490173,0.927002
	C40.6995049,1.4399989,41.2135124,1.8549922,41.8485222,1.8549922"/>
<path d="M42.8479424,6.9934959v0.1090088c0,0.1580048,0.0709839,0.2769928,0.0879822,0.3190002
	c0.0010071,0.0050049-0.0050049,0.0079956-0.0050049,0.0079956h-0.5409851h-1.6560059c0,0-0.0069885-0.0029907-0.0050049-0.0079956
	c0.0150146-0.0390015,0.0870056-0.1629944,0.0870056-0.3190002V6.9845085c0-0.6450043,0.0010071-3.8130033,0.0010071-4.2070007
	c0-0.0970001,0.0449829-0.1009979,0.0449829-0.1009979s0.7430115-0.3800049,1.9530029-0.9390106
	c0.0119934-0.0059967,0.03302,0.0010071,0.0320129,0.0230103C42.8469353,1.9275019,42.8479424,6.5474968,42.8479424,6.9934959"/>
<path d="M47.1654472,3.314297c-0.4780273-0.0069885-0.5980225-0.0369873-0.8500061,0.052002
	c-0.3139954,0.1200104-0.5299988,0.3700104-0.5360107,0.7510068v0.2310028v2.647995v0.1060028
	c0,0.1539917,0.0690002,0.2700043,0.0849915,0.3110046c0.0020142,0.0039978-0.0039978,0.0069885-0.0039978,0.0069885h-0.5249939
	h-1.6099854c0,0-0.006012-0.0029907-0.0050049-0.0079956c0.0149841-0.0370026,0.0849915-0.1580048,0.0849915-0.3099976V6.988308
	V3.2093012c-0.0109863-0.1429901-0.0690002-0.3159943-0.0859985-0.3609924
	c-0.0119934-0.0250092,0.0270081-0.0340118,0.0270081-0.0340118s0.8249817-0.3819885,2.0009766-0.923996
	c0.0110168-0.0059967,0.0320129,0.0010071,0.0310059,0.0230103v0.4729919c0,0.0700073,0.0079956,0.2929993,0.0079956,0.322998
	c0,0.0220032,0.0240173,0.0339966,0.0420227,0.0149994c0.0099792-0.0110016,0.0220032-0.026001,0.0379944-0.0449982
	c0.473999-0.8779907,1.2479858-0.7669983,1.6419983-0.7050018c0.0679932,0.0100098,0.0579834,0.0319977,0.0400085,0.1210022
	c-0.0350037,0.1699982-0.2579956,1.0769958-0.2780151,1.147995C47.2534294,3.3033106,47.2384453,3.3163111,47.1654472,3.314297"/>
<path d="M50.4079399,4.4735985c0.0329895-0.0099945,0.1669922-0.0069885,0.1559753-0.1959991
	c-0.0289917-0.4819944-0.1489868-0.8099973-0.289978-1.0019987c-0.2660217-0.3619995-0.7530212-0.375-1.0039978,0.1610107
	c-0.1460266,0.3109894-0.1750183,0.8799894-0.1550293,1.2579954c0.006012,0.1179962,0.026001,0.1239929,0.1330261,0.098999
	l0.0869751,0.7120056c-0.0369873,0.0209961-0.0849915,0.0039978-0.0299988,0.151001
	c0.3470154,0.9329987,0.8460083,1.0589905,1.5110168,1.0219879c0.3450012-0.0189972,0.7309875-0.1999969,0.8670044-0.2709961
	c0.1359863-0.071991,0.1149902,0.0149994,0.1149902,0.0659943v0.631012c0,0.1009979,0.0079956,0.1369934-0.17099,0.2030029
	c-0.9110107,0.3319855-2.1060181,0.4109955-3.03302-0.0460052c-0.7799988-0.3829956-1.4899902-1.3970032-1.4299927-2.5010071
	c0.0970154-1.7599943,1.1910095-2.7109983,2.82901-2.6569974c1.2919922,0.0420074,2.2779846,0.9880066,2.3979797,2.3800046
	c0.0050049,0.0579987,0.0050049,0.1470032-0.0499878,0.1779938L50.4079399,4.4735985z"/>
<path d="M50.4079399,4.4735985c-0.2280273,0.0680084-1.1600037,0.3200073-1.1600037,0.3200073l0.0869751,0.7120056
	c0.0370178-0.0200043,3.006012-0.8440094,3.006012-0.8440094L50.4079399,4.4735985z"/>
</svg>
