<?xml version="1.0" encoding="utf-8"?>
<!-- Generator: Adobe Illustrator 23.0.1, SVG Export Plug-In . SVG Version: 6.00 Build 0)  -->
<svg version="1.1" id="Livello_1" xmlns="http://www.w3.org/2000/svg" xmlns:xlink="http://www.w3.org/1999/xlink" x="0px" y="0px"
	 width="194.546px" height="172.44px" viewBox="0 0 194.546 172.44" enable-background="new 0 0 194.546 172.44"
	 xml:space="preserve">
<g>
	<g>
		<polygon points="167.029,144.817 167.697,139.377 150.394,139.377 146.462,172.053 166.75,172.053 167.381,166.578 
			152.991,166.578 154.009,158.014 164.046,158.014 164.679,152.538 154.64,152.538 155.587,144.817 		"/>
		<polygon points="29.307,139.341 19.935,159.874 15.478,139.341 9.021,139.341 0,172.018 5.932,172.018 12.179,149.309 
			12.249,149.309 17.128,172.018 19.935,172.018 30.219,149.942 30.29,149.942 31.132,172.018 36.817,172.018 35.554,139.341 		"/>
		<polygon points="170.855,139.341 170.189,144.817 178.963,144.817 175.734,172.018 181.631,172.018 184.894,144.817 
			193.914,144.817 194.546,139.341 		"/>
		<path d="M113.014,138.921l-13.583,33.097h6.493l2.702-7.125h8.634l0.843,7.125h6.072l-4.879-33.097H113.014z M110.348,160.225
			L110.348,160.225l4.879-14.46h0.07l1.474,14.46H110.348z"/>
		<path d="M128.141,148.818c0,8.564,10.214,9.196,10.214,14.601c0,2.14-1.615,3.58-4.001,3.58c-2.317,0-5.581-1.439-7.827-3.37
			l-0.912,5.686c2.492,1.93,5.405,3.124,9.441,3.124c6.248,0,9.406-4.738,9.406-10.002c0-9.161-10.214-9.758-10.214-14.46
			c0-2.14,1.755-3.58,3.896-3.58c2.105,0,5.089,1.334,6.879,2.878l0.807-5.721c-2.387-1.684-5.229-2.597-7.932-2.597
			C132.283,138.956,128.141,143.167,128.141,148.818z"/>
		<polygon points="59.701,144.817 60.368,139.377 43.03,139.377 39.134,172.053 59.42,172.053 60.053,166.578 45.662,166.578 
			46.68,158.014 56.718,158.014 57.349,152.538 47.312,152.538 48.259,144.817 		"/>
		<polygon points="95.115,139.341 91.219,172.018 97.116,172.018 101.011,139.341 		"/>
		<path d="M75.916,139.377h-9.231l-3.861,32.676h14.32c7.406,0,13.091-7.054,13.091-16.777
			C90.236,148.186,86.972,139.377,75.916,139.377z M74.898,166.578h-5.545l2.597-21.76h2.843c6.072,0,9.336,4.598,9.336,10.354
			C84.129,160.822,81.461,166.578,74.898,166.578z"/>
	</g>
	<path id="path53392_1_" d="M152.069,65.064l-52.436,52.436c-1.034,1.059-2.597,1.261-3.832,0.63l20.042-20.067
		c0-0.151,1.916-1.815,1.916-5.445V25.989l34.335,34.335C153.38,61.635,153.38,63.753,152.069,65.064 M42.458,65.215
		c-1.311-1.311-1.311-3.428,0-4.739L94.894,8.04c1.134-1.134,2.849-1.286,4.159-0.454L63.735,42.955
		c-4.815,5.471-2.395,13.462,7.437,13.462h5.546c0,0,0,24.831,0.025,43.083L42.458,65.215z M157.136,55.585l-39.402-39.402V8.745
		c0-7.21-7.815-10.462-13.588-6.126c-4.059-3.63-10.285-3.479-14.193,0.403L37.391,55.585c-4.033,4.033-4.033,10.588,0,14.622
		l39.352,39.327c0,4.513,0,7.714,0,8.672c0,5.445,7.538,11.42,13.89,5.193c4.084,3.403,10.134,3.202,13.941-0.605l52.562-52.587
		C161.195,66.173,161.195,59.618,157.136,55.585"/>
</g>
</svg>
