<svg xmlns="http://www.w3.org/2000/svg" viewBox="0 0 194.55 172.44"><defs><style>.cls-1{fill:#fff;}</style></defs><g id="Layer_2" data-name="Layer 2"><g id="Livello_1" data-name="Livello 1"><polygon class="cls-1" points="167.03 144.82 167.7 139.38 150.39 139.38 146.46 172.05 166.75 172.05 167.38 166.58 152.99 166.58 154.01 158.01 164.05 158.01 164.68 152.54 154.64 152.54 155.59 144.82 167.03 144.82"/><polygon class="cls-1" points="29.31 139.34 19.93 159.87 15.48 139.34 9.02 139.34 0 172.02 5.93 172.02 12.18 149.31 12.25 149.31 17.13 172.02 19.93 172.02 30.22 149.94 30.29 149.94 31.13 172.02 36.82 172.02 35.55 139.34 29.31 139.34"/><polygon class="cls-1" points="170.85 139.34 170.19 144.82 178.96 144.82 175.73 172.02 181.63 172.02 184.89 144.82 193.91 144.82 194.55 139.34 170.85 139.34"/><path class="cls-1" d="M113,138.92,99.43,172h6.49l2.71-7.13h8.63l.84,7.13h6.08l-4.88-33.1Zm-2.66,21.31h0l4.88-14.46h.07l1.47,14.46Z"/><path class="cls-1" d="M128.14,148.82c0,8.56,10.22,9.19,10.22,14.6,0,2.14-1.62,3.58-4,3.58s-5.58-1.44-7.82-3.37l-.92,5.69a14.64,14.64,0,0,0,9.45,3.12c6.24,0,9.4-4.74,9.4-10,0-9.16-10.21-9.76-10.21-14.46a3.65,3.65,0,0,1,3.89-3.58,12.22,12.22,0,0,1,6.88,2.88l.81-5.73A14,14,0,0,0,137.9,139,9.55,9.55,0,0,0,128.14,148.82Z"/><polygon class="cls-1" points="59.7 144.82 60.37 139.38 43.03 139.38 39.13 172.05 59.42 172.05 60.05 166.58 45.66 166.58 46.68 158.01 56.72 158.01 57.35 152.54 47.31 152.54 48.26 144.82 59.7 144.82"/><polygon class="cls-1" points="95.11 139.34 91.22 172.02 97.12 172.02 101.01 139.34 95.11 139.34"/><path class="cls-1" d="M75.92,139.38H66.68l-3.86,32.67H77.14c7.41,0,13.1-7.05,13.1-16.77C90.24,148.19,87,139.38,75.92,139.38Zm-1,27.2H69.35L72,144.82h2.84c6.08,0,9.34,4.6,9.34,10.35S81.46,166.58,74.9,166.58Z"/><path id="path53392" class="cls-1" d="M152.07,65.06,99.63,117.5a3.27,3.27,0,0,1-3.83.63l20-20.07a8.15,8.15,0,0,0,1.92-5.44V26l34.33,34.33a3.37,3.37,0,0,1,0,4.74m-109.61.16a3.35,3.35,0,0,1,0-4.74L94.89,8a3.32,3.32,0,0,1,4.16-.45L63.74,43c-4.82,5.47-2.4,13.46,7.43,13.46h5.55s0,24.83,0,43.08Zm114.68-9.63L117.73,16.18V8.75c0-7.21-7.81-10.47-13.58-6.13A10.36,10.36,0,0,0,90,3L37.39,55.59a10.35,10.35,0,0,0,0,14.62l39.35,39.32v8.68c0,5.44,7.54,11.42,13.89,5.19a10.35,10.35,0,0,0,13.94-.61l52.57-52.58a10.3,10.3,0,0,0,0-14.62"/></g></g></svg>