<svg xmlns="http://www.w3.org/2000/svg" viewBox="0 0 685.51 239.08"><defs><style>.cls-1{fill:#fff;}</style></defs><g id="Layer_2" data-name="Layer 2"><g id="Layer_1-2" data-name="Layer 1"><path class="cls-1" d="M685.51,0V239.08H0V0ZM460,6.92V232.09H678.32V6.92ZM225.77,232.19V7H7v225.2Zm7.86,0H452.07V6.91H233.63Z"/><path class="cls-1" d="M559.53,176.47H532.94V61.08h26.45V71.42c7.48-7,15.15-11.19,24.45-12.08,9.08-.86,17.86-.19,27,3.69L599.44,85.92a86.51,86.51,0,0,0-9.08-3.26c-16.11-3.83-30.58,8.75-30.78,27-.21,20.31-.05,40.62-.05,60.94Z"/><path class="cls-1" d="M64.08,176.3V60.84c6,0,12-.13,17.89.14,1,.05,2.1,1.76,2.78,2.92C86,66,87,68.34,87.58,69.62c7.39-3.25,14.28-7.68,21.76-9.26,16.28-3.46,31.89-1.51,44.43,11.11a38.69,38.69,0,0,1,11.42,27c.51,25.78.17,51.58.17,77.77H138.53v-5.29c0-20.32,0-40.64,0-60.95,0-2.82-.37-5.63-.66-8.44-1.61-15.26-12.49-21.39-27.46-19.23A35.54,35.54,0,0,0,101,85.54c-6.83,3.14-10.56,7.55-10.3,16.16.72,22.79.24,45.62.24,68.43v6.17Z"/><path class="cls-1" d="M317.53,175.79v45.73H291V61.14h26.33c.17,2.16.31,4.1.4,5.18,6.54-2.3,13-6.13,19.76-6.69,37.89-3.18,57.14,15.84,59.89,48.95A108.33,108.33,0,0,1,396,137.86c-4.92,25.43-24.73,40.75-52.24,40.87C335.13,178.76,326.47,176.85,317.53,175.79Zm0-56c0,8.82.17,17.65-.09,26.47-.09,3.36,1.15,5.16,4,6.6,9.6,4.89,19.36,3.82,29.14,1,8.1-2.35,13.44-7.77,16.15-15.69,3.87-11.35,3.91-22.95,1.22-34.47-4.4-18.85-30-28.42-46.16-17.55-3,2-4.5,4.28-4.35,8.16C317.76,102.79,317.53,111.3,317.53,119.79Z"/></g></g></svg>