<svg xmlns="http://www.w3.org/2000/svg" viewBox="0 0 560 281.54"><defs><style>.cls-1{fill:#fff;}</style></defs><g id="Layer_2" data-name="Layer 2"><g id="svg7"><polygon class="cls-1" points="80.2 0 0 0 0 281.54 160.41 281.54 160.41 201.33 80.2 201.33 80.2 121.1 160.41 121.1 160.41 40.9 80.2 40.9 80.2 0"/><polygon class="cls-1" points="180.24 281.54 420.42 281.54 420.42 201.33 420.42 141.21 340.22 141.21 340.22 201.33 260.45 201.33 260.45 121.1 420.42 121.1 420.42 40.9 180.24 40.9 180.24 281.54"/><polygon class="cls-1" points="439.91 40.9 439.91 121.1 479.8 121.1 479.8 281.54 560 281.54 560 40.9 439.91 40.9"/></g></g></svg>