<svg xmlns="http://www.w3.org/2000/svg" viewBox="0 0 296 90.32"><defs><style>.cls-1{fill:#fff;}</style></defs><g id="Layer_2" data-name="Layer 2"><g id="Layer_1-2" data-name="Layer 1"><path class="cls-1" d="M141.22,0S137.89.07,136,0c-.08.81-1,8.15-1.81,14.05-.92,5.46-8.21,46-10.68,58.12-.65,3.66-2.66,14-2.85,15-2.32.28-5.06.54-6.85.61-.24,0-.64.08-.83.08V90c.22,0,1.38.08,2.2,0,2-.06,7.56-.33,8.62-.33,4,0,6.7.27,10.42.34,0,0,1.07,0,1.52-.06V87.92h-1c-1.05,0-4.92-.27-6.88-.53.23-1.39,3.65-22.38,5.29-30.77,3.12-15.54,5.28-26.55,5.28-26.55l.58,1.37,24.65,58.75,4.5,0s2.57-6.36,5.62-13.49c.08-.17.3-.68.61-1.41,3.2-7.41,19.06-45,19.06-45s.15.68.4,1.89c1.51,7.37,6.62,33.93,7.71,40.34.51,3.3,1,6.64,1.27,8.6.41,2.77.68,5.49.68,6.27-.5,0-5.52.48-7.42.56a8,8,0,0,0-.81,0V90.1c.68,0,1.34,0,2,0,3.88-.07,7.61-.38,11.49-.37,4.36,0,11.43.38,16,.41.51,0,1.42-.05,1.42-.05V88c-.26,0-1.4-.06-1.82-.1-2-.15-5.45-.47-6.32-.53,0,0-.56-3.1-1.3-6.69C213.75,66.3,205.32,22.72,204,12c-.44-3.68-1.69-12-1.69-12h-5.07l-5,14.21c-1.61,4.63-3.8,10.34-5.47,14.73-8.24,21.65-17.48,41.83-17.48,41.83s-19.64-46.86-20.68-49.57S141.22,0,141.22,0ZM0,0l0,5L0,17l1.31,0L1.44,6.27l8.1-.06H22.9l8.62,0V87.31l-.19,0c-1.14.09-5.56.36-7.36.43l-.7,0V90c.32,0,1.2,0,1.31,0,4.25,0,10-.42,14.06-.42s10,.41,13.56.45c.36,0,.78,0,1.13,0v-2h-.45c-1.15,0-7.5-.41-8.16-.5,0-1-.14-5.83-.14-5.94l0-75.25,6.57,0H68.33l5.72.08c0,.41.33,5.84.32,6,0,.4.22,4.45.21,5.44l1.35,0-.09-12.2L75.9.08c-5,.14-17.86.31-37.77.3C21.05.37,4.6.23,0,0ZM79.79,0l0,2.14c.67,0,4.65.38,5.61.43.78.1,1.85.19,2.62.27,0,.68,0,5.4,0,7.26.13,17.66,0,56.69,0,70.5,0,4,0,6.57,0,6.57a19,19,0,0,1-2.76.28c-1,.07-4.65.37-5.46.39V90c.34,0,1,.07,1.31.06,4.11,0,9.82-.51,14-.5s9.93.52,13.28.52h0c.29,0,1-.07,1.27-.07V87.89h-.29c-.13,0-4.45-.21-5.5-.31-.55,0-2.93-.25-3-.32s0-.69,0-1.75,0-2.69,0-4.51c0-13.93,0-55.3.06-71.12,0-3.05,0-5.53,0-6.87.93-.06,4.73-.45,6.09-.57l2.6-.16V.06c-4.65,0-10.8.36-15.34.36C89.57.41,83.73,0,79.79,0ZM295,.1h-1.4L273.21.23c-5.72,0-10.19.08-16.08.07-4.13,0-9.91.21-13.48.2C238,.49,233.3.14,230.77.13c-1.2,0-1.87,0-2.2,0,0,0,0,2.11,0,2.11a5.91,5.91,0,0,0,1.07.08c1.43.1,4.11.31,5.47.49.27,0,.73.13,2,.27,0,.47.06,5.83.05,9,0,3,0,69.47,0,69.47S237,87,237,87.38a66.4,66.4,0,0,1-8.08.63h-.44v2.12c.21,0,1.18,0,1.73,0,2.39,0,8.55-.39,14.84-.39,4.41,0,9.26.16,14.17.23,6,.09,12.17.09,17.67.17,9.07.13,16.42.14,18.81.14,0,0,.29-16.82.29-18.18l-1.31,0c0,1.43-.53,6.76-.55,7-.17,2-.35,4.11-.49,5.14,0,0-.64,0-.95,0-1.49,0-6.25.14-6.35.14H265.12l-14.91-.25-.1-4.13V48c2.66-.09,6.72-.23,9.19-.22,2.1,0,7-.12,9.82-.11,6.73,0,12.71.05,13.19.07,1.11,0,3.17.1,3.95.15,0,.28.12.72.13.85.4,2.46.62,4.16.89,6.57,0,.22.06.43.09.63h1.53s0-.87,0-1.4c0-1.9-.15-5.67-.15-9.86,0-2.9.16-7.33.18-9.47,0-.57-.06-1-.06-1.15l-1.4,0a10.44,10.44,0,0,1-.12,1.14c-.12,1.59-.57,3.62-.93,5.77a4.41,4.41,0,0,0-.17.64c-.16,0-4.55.28-4.94.28l-6.65.18L250.11,42l0-35.41s3.12-.11,4-.11c3.54,0,9.3,0,15.17,0,8.59,0,16.93.06,16.95.08s2.59,0,2.64.1,3.24.14,4,.17c0,0,.06.26.1.59.35,3.74.64,8.17.77,9.74v.63h1.31c0-2.3-.12-9.34-.14-13.82,0-1.44,0-2.61,0-3.28V.1Z"/></g></g></svg>