<svg xmlns="http://www.w3.org/2000/svg" viewBox="0 0 102.09 8"><defs><style>.cls-1{fill:#f5f5f5;}</style></defs><g id="Layer_2" data-name="Layer 2"><g id="Layer_1-2" data-name="Layer 1"><path class="cls-1" d="M5.4,7.86a1,1,0,0,0-.05-.92L4.71,5.42H1.42L.78,6.94A.75.75,0,0,0,1,7.86H0a3.35,3.35,0,0,0,.54-.92l2.4-5.79L2.66.47,4,0a1.27,1.27,0,0,0,.09.9l2.51,6a3.35,3.35,0,0,0,.68.92ZM1.51,5.19H4.62L3.07,1.45Z"/><path class="cls-1" d="M11.76,1.42A1.93,1.93,0,0,0,11.42.5L12.93,0V7a1.92,1.92,0,0,0,.34.9H11.42a1.92,1.92,0,0,0,.34-.9Z"/><path class="cls-1" d="M15,3.91a1,1,0,0,0-.35-.7l1.52-.5V7a1.89,1.89,0,0,0,.35.9H14.64A1.89,1.89,0,0,0,15,7Zm-.17-2.86a.7.7,0,0,1,.69-.7.71.71,0,0,1,.71.7.71.71,0,0,1-.71.71A.7.7,0,0,1,14.82,1.05Z"/><path class="cls-1" d="M22.51,3V7c0,.5.12.72.36.73a.77.77,0,0,0,.35-.11l.06.17c-.18.18-2,.56-2-.83V3h-1.9V7c0,.5.12.72.36.73a.71.71,0,0,0,.34-.11l.06.17c-.18.18-1.94.56-1.94-.83V3h-.38V2.73a2,2,0,0,0,1.32-1.3h.24v1.3H21a2,2,0,0,0,1.32-1.3h.24v1.3h.85V3Z"/><path class="cls-1" d="M24.94,1.42A1.93,1.93,0,0,0,24.6.5L26.11,0V7a1.92,1.92,0,0,0,.34.9H24.6a1.92,1.92,0,0,0,.34-.9Z"/><path class="cls-1" d="M32.68,4.86H28.81v0c0,3.32,2.81,2.84,3.55,1.91l.18.11A2.54,2.54,0,0,1,30.35,8a2.56,2.56,0,0,1-2.76-2.77,2.6,2.6,0,0,1,2.7-2.66,2.18,2.18,0,0,1,2.39,2.06Zm-3.86-.23h2.65c0-1.13-.52-1.85-1.3-1.85S28.91,3.56,28.82,4.63Z"/><path class="cls-1" d="M37,7.86a2.16,2.16,0,0,0,.28-.9V1.42A3.34,3.34,0,0,0,37,.3L38.49,0V3.55a1.89,1.89,0,0,1,1.77-1A2.39,2.39,0,0,1,42.8,5.16,2.64,2.64,0,0,1,40.05,8a2,2,0,0,1-1.56-.73v.59Zm1.45-3.71V5.78a1.75,1.75,0,0,0,1.65,1.91c.84,0,1.39-.85,1.39-2.44S40.89,2.91,40,2.93A1.67,1.67,0,0,0,38.49,4.15Z"/><path class="cls-1" d="M44.35,3.91a1,1,0,0,0-.35-.7l1.53-.5V7a1.92,1.92,0,0,0,.34.9H44a1.89,1.89,0,0,0,.35-.9Zm-.17-2.86a.7.7,0,0,1,.7-.7.72.72,0,0,1,.71.7.72.72,0,0,1-.71.71A.7.7,0,0,1,44.18,1.05Z"/><path class="cls-1" d="M47.61,3h-.38V2.73a2,2,0,0,0,1.32-1.3h.24v1.3h.85V3h-.85V7c0,.5.12.72.36.73a.77.77,0,0,0,.35-.11l.06.17c-.18.18-2,.56-2-.83Z"/><path class="cls-1" d="M54,6.73C54,5,57.22,4.5,57.22,4.5c0-1.19,0-1.73-.8-1.72s-.75.72-.75.72H54.45s.27-.93,1.95-.93,2,.57,2,1.73V7a2.16,2.16,0,0,0,.28.9H57.22V7.27A2.91,2.91,0,0,1,55.5,8C54.67,8,54,7.63,54,6.73Zm3.26-2s-2,.55-2,1.92,1.5.87,2,.34Z"/><path class="cls-1" d="M60,7.86a2.16,2.16,0,0,0,.28-.9V1.42A3.34,3.34,0,0,0,59.91.3L61.43,0V3.55a1.85,1.85,0,0,1,1.76-1,2.39,2.39,0,0,1,2.54,2.59A2.64,2.64,0,0,1,63,8a2,2,0,0,1-1.55-.73v.59Zm1.46-3.71V5.78a1.75,1.75,0,0,0,1.64,1.91c.84,0,1.39-.85,1.39-2.44s-.64-2.34-1.57-2.32A1.65,1.65,0,0,0,61.43,4.15Z"/><path class="cls-1" d="M67,5.36a2.61,2.61,0,0,1,2.73-2.79A2.66,2.66,0,0,1,72.5,5.21,2.61,2.61,0,0,1,69.73,8,2.66,2.66,0,0,1,67,5.36Zm1.22-.06c.18,1.39.91,2.47,1.85,2.42s1.36-1,1.2-2.42-.93-2.51-1.86-2.46S68.05,3.91,68.23,5.3Z"/><path class="cls-1" d="M78.62,7a1.89,1.89,0,0,0,.35.9H77.44V7a1.9,1.9,0,0,1-1.72,1,1.67,1.67,0,0,1-1.79-1.87V3.91a1,1,0,0,0-.35-.7l1.53-.5V6.25c0,1.58,2.33,1.74,2.33-.24V3.91a1,1,0,0,0-.34-.7l1.52-.5Z"/><path class="cls-1" d="M80.59,3h-.38V2.73a2,2,0,0,0,1.32-1.3h.24v1.3h.85V3h-.85V7c0,.5.11.72.36.73a.71.71,0,0,0,.34-.11l.06.17c-.18.18-1.94.56-1.94-.83Z"/><path class="cls-1" d="M94,7.86a1.89,1.89,0,0,0,.35-.9V4.42a1.17,1.17,0,1,0-2.33,0V7a1.89,1.89,0,0,0,.35.9H90.5a1.89,1.89,0,0,0,.35-.9V4.5a1.17,1.17,0,1,0-2.33-.08V7a1.89,1.89,0,0,0,.35.9H87a1.89,1.89,0,0,0,.35-.9V4.11a1.84,1.84,0,0,0-.35-.9l1.52-.5v.94a2,2,0,0,1,1.7-1.08,1.66,1.66,0,0,1,1.71,1.14,2,2,0,0,1,1.86-1.14,1.69,1.69,0,0,1,1.73,1.94V7a1.89,1.89,0,0,0,.35.9Z"/><path class="cls-1" d="M102.09,4.86H98.22v0c0,3.32,2.8,2.84,3.55,1.91l.18.11a2.77,2.77,0,0,1-5-1.7,2.61,2.61,0,0,1,2.7-2.66,2.18,2.18,0,0,1,2.4,2.06Zm-3.86-.23h2.65c0-1.13-.53-1.85-1.31-1.85S98.31,3.56,98.23,4.63Z"/></g></g></svg>