<svg xmlns="http://www.w3.org/2000/svg" viewBox="0 0 74.2 8"><defs><style>.cls-1{fill:none;}.cls-2{fill:#f5f5f5;}</style></defs><g id="Layer_2" data-name="Layer 2"><g id="Layer_1-2" data-name="Layer 1"><path class="cls-1" d="M0,7.82a0,0,0,0,1,0,0,0,0,0,0,1,0,0s0,0,0,0A0,0,0,0,1,0,7.82Z"/><path class="cls-2" d="M4.56,0A2.65,2.65,0,0,1,7,1.06H6S5.68.23,4.14.23,1.4,1.77,1.35,3.89A3.57,3.57,0,0,0,4.77,7.8c.74,0,1.7-.4,1.7-1v-2A1.5,1.5,0,0,0,6.13,4l1-.5V6.88A3.34,3.34,0,0,1,4.29,8,3.76,3.76,0,0,1,.53,4,3.89,3.89,0,0,1,4.56,0Z"/><path class="cls-2" d="M16.6,4a4,4,0,1,1-4-4A4,4,0,0,1,16.6,4Zm-.79,0A4,4,0,0,0,12.23.26C10.47.26,9.2,1.93,9.4,4A4,4,0,0,0,13,7.75C14.74,7.75,16,6.07,15.81,4Z"/><path class="cls-2" d="M26,7a1.53,1.53,0,0,0,.35.84H25A1.53,1.53,0,0,0,25.3,7V1.29L22,7.93h-.18L18.4,1.06V7a1.63,1.63,0,0,0,.31.84h-.79A1.63,1.63,0,0,0,18.23,7V1a1.63,1.63,0,0,0-.31-.84h.8l3.49,7L25.3.94V.14h1.05A1.53,1.53,0,0,0,26,1Z"/><path class="cls-2" d="M35.67,4a4,4,0,1,1-4-4A4,4,0,0,1,35.67,4Zm-.8,0A3.94,3.94,0,0,0,31.3.26c-1.76,0-3,1.67-2.83,3.75A4,4,0,0,0,32,7.75C33.81,7.75,35.08,6.07,34.87,4Z"/><path class="cls-2" d="M45.83.88A1.25,1.25,0,0,0,44.91.3H43.35V7a1.57,1.57,0,0,0,.33.84H42.3A1.55,1.55,0,0,0,42.64,7V.3H41.08a1.25,1.25,0,0,0-.92.58l.08-.81a5.68,5.68,0,0,0,.84.07h3.83a5.68,5.68,0,0,0,.84-.07Z"/><path class="cls-2" d="M47.3,1A1.55,1.55,0,0,0,47,.14h1.38A1.55,1.55,0,0,0,48,1V5.31c0,1.66.74,2.51,2.16,2.51a2.25,2.25,0,0,0,2.29-2.54V1a1.63,1.63,0,0,0-.31-.84h.79a1.63,1.63,0,0,0-.31.84v4.3A2.48,2.48,0,0,1,50,8,2.38,2.38,0,0,1,47.3,5.31Z"/><path class="cls-2" d="M54.59,1a1.57,1.57,0,0,0-.33-.84h1.38A1.55,1.55,0,0,0,55.3,1V7c0,.3.13.68.44.68h1.91A1.53,1.53,0,0,0,59.05,7l-.1.89H54.26A1.57,1.57,0,0,0,54.59,7Z"/><path class="cls-2" d="M64.75,7.86s.15-.23-.21-.76L62.06,3.41l-.78.74V7a1.57,1.57,0,0,0,.33.84H60.23A1.55,1.55,0,0,0,60.57,7V1a1.55,1.55,0,0,0-.34-.84h1.38a1.57,1.57,0,0,0-.33.84v3L64.35,1a.67.67,0,0,0,.18-.84h1.09S65,.62,64.57,1l-2,1.92L65.33,7a3.11,3.11,0,0,0,.8.84Z"/><path class="cls-2" d="M67.59,1a1.55,1.55,0,0,0-.34-.84h1.38A1.57,1.57,0,0,0,68.3,1V5.31c0,1.66.73,2.51,2.16,2.51a2.26,2.26,0,0,0,2.29-2.54V1a1.6,1.6,0,0,0-.32-.84h.8a1.6,1.6,0,0,0-.32.84v4.3A2.48,2.48,0,0,1,70.25,8a2.38,2.38,0,0,1-2.66-2.69Z"/><path class="cls-1" d="M74.12,7.82a0,0,0,1,1,.08,0,0,0,0,1,1-.08,0Z"/></g></g></svg>