<svg id="Layer_1" data-name="Layer 1" xmlns="http://www.w3.org/2000/svg" viewBox="0 0 185.64 183.06"><defs><style>.cls-1{fill:#cea939;}</style></defs><path class="cls-1" d="M14.54,96.22a53.07,53.07,0,0,0,.85,12.26,67.32,67.32,0,0,0,9.68,25.62A65.45,65.45,0,0,0,38.6,149.32a3,3,0,0,0,4.1,0c1-1.06,1.25-3.07,0-4.1A65.14,65.14,0,0,1,36,138.86q-1.45-1.61-2.81-3.31l-.26-.33h0l-.57-.76c-.43-.58-.84-1.17-1.25-1.76a63.25,63.25,0,0,1-4-6.68c-.56-1.1-1.09-2.21-1.59-3.34l-.32-.75c-.17-.37.28.69,0,.12l-.13-.33c-.23-.57-.46-1.14-.67-1.71a67.19,67.19,0,0,1-3.26-11.9c-.15-.83-.28-1.66-.4-2.5-.08-.6.1.78,0,.1,0-.19-.05-.39-.08-.59L20.6,104c-.13-1.29-.23-2.59-.28-3.89a38.43,38.43,0,0,1,0-3.87,2.92,2.92,0,0,0-2.9-2.91,3,3,0,0,0-2.9,2.91Z" transform="translate(-1.5 -1.5)"/><path class="cls-1" d="M26.73,96.22A53.51,53.51,0,0,0,28.07,107a62.59,62.59,0,0,0,9,21.83,53.32,53.32,0,0,0,11.4,12.39,3.18,3.18,0,0,0,2,.85,3,3,0,0,0,2.05-.85c1-1,1.28-3.11,0-4.1a51.93,51.93,0,0,1-5.5-5c-.81-.86-1.59-1.74-2.34-2.65-.18-.21-.35-.42-.52-.64s-.16-.21-.25-.31c-.32-.41,0,0,.08.1-.31-.5-.72-1-1.07-1.44a54.87,54.87,0,0,1-3.46-5.56c-.5-.91-1-1.84-1.42-2.78-.2-.43-.4-.86-.59-1.29l-.29-.65a3.05,3.05,0,0,0-.13-.32c.37.77.09.22,0,0a63.12,63.12,0,0,1-3.19-10.14c-.32-1.38-.58-2.76-.81-4.16-.05-.31-.09-.62-.14-.93l-.06-.42c-.06-.42.12.91,0,.21q-.09-.76-.18-1.56c-.11-1.13-.21-2.27-.21-3.41a2.9,2.9,0,1,0-5.8,0Z" transform="translate(-1.5 -1.5)"/><path class="cls-1" d="M38.33,96.22a30.17,30.17,0,0,0,.32,3.91,54,54,0,0,0,2.3,10.3,50.53,50.53,0,0,0,6.22,12.74,47.36,47.36,0,0,0,12.44,12.41,54.93,54.93,0,0,0,19.6,8.11c1,.22,2,.41,3,.58a2.94,2.94,0,0,0,3.67-2.8,21.57,21.57,0,0,0-1-6.06,30.1,30.1,0,0,0-7-12,33.87,33.87,0,0,0-8.53-6.46,2.9,2.9,0,1,0-2.93,5,33.9,33.9,0,0,1,4,2.55l.34.26s-.46-.37,0,0c.25.19.48.39.72.59.55.47,1.09,1,1.61,1.47s.87.9,1.29,1.37l.58.69.23.28c.29.36.14.28,0,0,.25.48.68.92,1,1.38s.64,1,.94,1.5c.49.86.92,1.75,1.33,2.65.21.48-.24-.6-.11-.25l.13.31.24.62c.14.39.28.78.4,1.18a27.81,27.81,0,0,1,.9,3.92c.06.34-.06-.64-.07-.56a1.24,1.24,0,0,0,0,.27l0,.3c0,.19,0,.38,0,.58s0,.3,0,.46l3.67-2.8a62.38,62.38,0,0,1-11-2.85c-.8-.29-1.57-.67-2.38-.93l.21.09-.25-.11-.56-.25-1.11-.51q-2.14-1-4.18-2.28a42.54,42.54,0,0,1-3.71-2.53l-.24-.18.28.22L60.4,129c-.27-.22-.55-.44-.81-.67-.55-.45-1.08-.93-1.6-1.41-1-.92-1.93-1.88-2.83-2.89-.43-.48-.84-1-1.25-1.46-.2-.24-.39-.49-.59-.74s.41.54.13.16l-.32-.42a45.41,45.41,0,0,1-3.82-6.12c-.52-1-1-2-1.44-3-.06-.12-.1-.25-.16-.37.08.17.29.71.12.28-.11-.26-.22-.52-.32-.78-.19-.49-.38-1-.56-1.48a51.7,51.7,0,0,1-2.48-9.87c0-.15,0-.29-.07-.44-.09-.64.12.91,0,.23,0-.28-.07-.56-.1-.83,0-.47-.09-.94-.13-1.41s0-1-.07-1.49v-.06a2.9,2.9,0,1,0-5.8,0Z" transform="translate(-1.5 -1.5)"/><path class="cls-1" d="M168.29,96.22c.08,1,.06,2.09,0,3.13s-.1,2.37-.2,3.56c-.06.73-.14,1.47-.22,2.21,0,.18,0,.36-.07.53-.1.77.08-.53,0-.1s-.12.88-.19,1.32a68.26,68.26,0,0,1-2.91,11.61c-.37,1.06-.77,2.11-1.2,3.16l-.17.41c-.18.45.06-.15.09-.2-.14.26-.24.56-.36.83-.25.56-.5,1.11-.76,1.66a61.69,61.69,0,0,1-3.75,6.75Q157.39,133,156,134.8l-.26.34-.25.33.13-.17-.73.92c-.51.62-1,1.22-1.55,1.82a64,64,0,0,1-7.45,7.18,2.9,2.9,0,0,0,0,4.1,3,3,0,0,0,4.1,0,65.88,65.88,0,0,0,19.67-27.53,68.63,68.63,0,0,0,4.4-21.57,35.58,35.58,0,0,0,0-4,3,3,0,0,0-2.9-2.91,2.94,2.94,0,0,0-2.9,2.91Z" transform="translate(-1.5 -1.5)"/><path class="cls-1" d="M156.1,96.22c0,.91-.07,1.82-.15,2.73,0,.48-.09,1-.14,1.43,0,.26-.06.51-.1.77a1.23,1.23,0,0,1,0,.19c-.05.41.07-.52.06-.46s-.05.35-.07.52c-.2,1.35-.44,2.7-.72,4a63.51,63.51,0,0,1-2.92,9.93c-.16.42-.33.85-.5,1.27,0,.11-.1.21-.13.32,0,0,.28-.66.08-.21l-.31.73c-.42.93-.85,1.85-1.32,2.76a54.21,54.21,0,0,1-3.24,5.57c-.35.52-.7,1-1.07,1.54-.19.27-.39.54-.59.8l-.24.32c-.33.43.25-.31,0,0-.81,1-1.65,2-2.53,3a50,50,0,0,1-6.14,5.68,2.89,2.89,0,0,0,0,4.1,3,3,0,0,0,4.1,0A55.73,55.73,0,0,0,157,118.49a66.18,66.18,0,0,0,4.67-18.73,32.2,32.2,0,0,0,.23-3.54,2.9,2.9,0,1,0-5.8,0Z" transform="translate(-1.5 -1.5)"/><path class="cls-1" d="M144.5,96.22a32.25,32.25,0,0,1-.3,3.79c-.09.67.11-.8,0-.26,0,.17,0,.34-.07.5,0,.34-.1.67-.16,1-.13.75-.28,1.5-.44,2.25a52.38,52.38,0,0,1-1.41,5.19c-.31,1-.66,1.92-1,2.87l-.3.72c-.09.22-.32.71.1-.22l-.18.42c-.22.5-.44,1-.68,1.48a46.17,46.17,0,0,1-3.5,6.11c-.34.51-.7,1-1.06,1.5l-.28.37c-.35.47.36-.46.09-.11s-.39.5-.59.74c-.84,1-1.72,2-2.64,3s-2,1.92-3,2.81l-.81.67-.35.28c-.15.12-.44.31.22-.17l-.24.18q-.9.69-1.83,1.32a45.07,45.07,0,0,1-3.88,2.36c-.72.4-1.45.77-2.19,1.13l-1,.47-.56.26-.33.14.2-.09c-1.67.54-3.28,1.28-5,1.8s-3.66,1-5.52,1.43c-1,.21-1.94.39-2.91.55l3.67,2.8a11.16,11.16,0,0,1,.11-1.41c.07-.62-.11.74,0,.36,0-.13,0-.26,0-.38,0-.29.1-.57.16-.85.14-.72.31-1.43.52-2.13s.5-1.58.81-2.36l.13-.31c.13-.35-.33.73-.11.25l.29-.65c.21-.45.44-.89.67-1.32a26.4,26.4,0,0,1,1.78-2.87c.15-.21.31-.41.46-.63s-.46.58-.08.11l.22-.28c.43-.52.87-1,1.33-1.51s1-1,1.51-1.5l.91-.79.4-.33c.13-.11.72-.63.16-.13a22.84,22.84,0,0,1,4.38-2.81,2.9,2.9,0,0,0-2.93-5c-8.28,4.49-14.88,12.46-16.26,22a18.63,18.63,0,0,0-.26,2.59,2.94,2.94,0,0,0,3.67,2.8,58.28,58.28,0,0,0,20.68-7.43,47.67,47.67,0,0,0,13.27-12.12,49.61,49.61,0,0,0,6.83-12.83,51.87,51.87,0,0,0,2.57-10.09,35.12,35.12,0,0,0,.55-5.52v-.06a2.9,2.9,0,1,0-5.8,0Z" transform="translate(-1.5 -1.5)"/><path class="cls-1" d="M72.28,178.54a90,90,0,0,1-11.74-4c-.62-.25.34.15-.14-.05l-.73-.32-1.46-.66c-.91-.42-1.81-.85-2.7-1.3q-2.71-1.35-5.32-2.9t-5.1-3.24c-.85-.57-1.68-1.17-2.5-1.77l-1.19-.89c-.11-.08-.66-.51-.34-.25s0,0-.09-.08l-.39-.3a93.45,93.45,0,0,1-8.91-8.08c-1.42-1.47-2.78-3-4.1-4.54-.63-.76-1.26-1.52-1.87-2.3-.1-.13-.64-.84-.15-.19l-.42-.55c-.32-.42-.64-.84-.95-1.27a91,91,0,0,1-6.51-10.29q-1.44-2.68-2.71-5.44c-.2-.46-.41-.92-.61-1.37l-.27-.65c-.13-.3.09.23.09.24-.06-.16-.13-.31-.19-.47-.4-1-.78-1.92-1.14-2.89a90.37,90.37,0,0,1-3.51-11.84q-.69-3.11-1.16-6.26c0-.24-.07-.48-.1-.72-.11-.75,0,.39,0-.15s-.14-1.1-.2-1.65c-.12-1.07-.22-2.14-.3-3.22a90.65,90.65,0,0,1,.1-14.92c.12-1.37.27-2.73.46-4.1s-1.48-3-2.91-2.9a3,3,0,0,0-2.9,2.9A92.88,92.88,0,0,0,67.71,183.29c1,.3,2,.58,3,.85a2.9,2.9,0,1,0,1.54-5.6Z" transform="translate(-1.5 -1.5)"/><path class="cls-1" d="M180.61,82.82c-.07-.52,0,0,0,.05s0,.37.07.55.07.65.11,1c.08.73.15,1.47.21,2.21.13,1.44.21,2.89.27,4.34.09,2.46.08,4.94,0,7.4q-.13,3.24-.51,6.45c0,.28-.07.55-.1.83,0,.11-.12.89-.06.43s0,.32-.06.43c0,.31-.09.61-.13.92-.17,1-.35,2.09-.55,3.14a87.89,87.89,0,0,1-3.22,12.14c-.33,1-.69,2-1.06,2.93-.17.47-.36.93-.54,1.4l-.27.65-.15.37c-.15.37-.08.25,0,0a50.58,50.58,0,0,1-2.6,5.59,89.6,89.6,0,0,1-6.3,10.53c-.58.84-1.18,1.67-1.78,2.48l-.42.56c-.1.13-.66.82-.15.19-.33.41-.64.83-1,1.24-1.28,1.58-2.61,3.13-4,4.62a91.19,91.19,0,0,1-8.85,8.4l-1.07.87-.62.49-.31.24c-.29.23,0,0,.12-.09-.84.62-1.68,1.27-2.53,1.88q-2.49,1.78-5.1,3.4a89.52,89.52,0,0,1-10.79,5.69c-.45.2-.91.42-1.37.6.76-.3-.08,0-.23.09l-.74.3c-1,.38-1.93.75-2.91,1.1q-2.94,1.07-6,1.91c-1,.29-2,.55-3,.8a2.91,2.91,0,0,0,1.55,5.6,92.75,92.75,0,0,0,70.19-98.42c-.15-1.6-.35-3.18-.56-4.77s-2.22-2.46-3.57-2a3,3,0,0,0-2,3.57Z" transform="translate(-1.5 -1.5)"/><path class="cls-1" d="M8,82.93a89.23,89.23,0,0,1,2.59-12.42c.56-2,1.2-4,1.9-5.9.35-1,.73-2,1.12-2.94l.27-.68c.06-.14.34-.81.22-.54s.15-.33.19-.43c.11-.26.22-.51.34-.77a89.27,89.27,0,0,1,5.78-10.89q1.61-2.59,3.38-5c.3-.42.61-.84.92-1.25l.43-.57c.12-.16.54-.71.2-.27.63-.81,1.27-1.61,1.93-2.4A91.65,91.65,0,0,1,35.72,30c1.49-1.36,3-2.68,4.61-3.94l.65-.51.29-.22-.12.09c.41-.31.82-.63,1.24-.93.83-.62,1.67-1.21,2.52-1.8A90.06,90.06,0,0,1,55.5,16.41c.93-.46,1.87-.91,2.81-1.35l1.32-.59.66-.29.34-.14c-.24.1-.31.13,0,0q2.91-1.2,5.89-2.21A90,90,0,0,1,78.7,8.69c1.06-.19,2.12-.37,3.18-.53l.74-.1-.15,0L82.84,8l1.61-.19q3.27-.36,6.55-.48a91.94,91.94,0,0,1,13.06.47l1.49.17.48.06c-.35-.05.06,0,.11,0l.62.09c1,.15,2,.31,3.06.5,2.11.38,4.19.84,6.26,1.38A88.89,88.89,0,0,1,128,14l.34.14-.14-.06.66.29,1.43.64q1.42.65,2.82,1.35c1.86.93,3.69,1.92,5.47,3s3.46,2.12,5.14,3.27q1.28.89,2.52,1.8c.39.28.77.57,1.15.86l.28.22s-.37-.3-.12-.09l.75.59a89.42,89.42,0,0,1,9,8.25c1.4,1.47,2.74,3,4,4.53.66.79,1.3,1.6,1.94,2.41.2.25-.07-.09-.09-.12l.22.28.43.57,1,1.35a89.22,89.22,0,0,1,6.49,10.45q1.44,2.7,2.68,5.51c.2.44.39.88.58,1.32s-.17-.43,0,0l.14.33c.11.26.21.52.32.79.39,1,.76,2,1.12,2.94a89.27,89.27,0,0,1,3.42,12.11q.63,3,1.05,6.11a2.91,2.91,0,0,0,3.57,2,3,3,0,0,0,2-3.57A92.69,92.69,0,0,0,97.51,1.56a93.53,93.53,0,0,0-26.6,2.92A92.88,92.88,0,0,0,3.47,75.16c-.42,2.07-.78,4.14-1.06,6.23-.21,1.5.36,3.19,2,3.57,1.37.31,3.35-.42,3.57-2Z" transform="translate(-1.5 -1.5)"/><path class="cls-1" d="M145.71,85.05h37a2.91,2.91,0,0,0,0-5.81h-37a2.91,2.91,0,0,0,0,5.81Z" transform="translate(-1.5 -1.5)"/><path class="cls-1" d="M42,85.05a2.91,2.91,0,1,0-2.91-2.9A2.94,2.94,0,0,0,42,85.05Z" transform="translate(-1.5 -1.5)"/><path class="cls-1" d="M5.06,85.05H42a2.91,2.91,0,0,0,0-5.81H5.06a2.91,2.91,0,0,0,0,5.81Z" transform="translate(-1.5 -1.5)"/><path class="cls-1" d="M44.76,82.68A53.51,53.51,0,0,1,46.59,76c.18-.51.36-1,.55-1.51.1-.25.2-.5.29-.75s.57-1.17.15-.37c.52-1,.91-2,1.41-3a52.14,52.14,0,0,1,3.29-5.59l.89-1.26.46-.62c.08-.11.17-.22.25-.34.39-.52-.21.27,0,.05.66-.81,1.31-1.63,2-2.41a51,51,0,0,1,4.53-4.53c.8-.71,1.62-1.38,2.46-2l-.19.15.33-.26L63.6,53c.45-.33.91-.65,1.37-1a55,55,0,0,1,5.37-3.24c.94-.49,1.89-1,2.85-1.4l.69-.3c.12-.06.9-.39.42-.19s.3-.12.42-.17l.78-.31a56.61,56.61,0,0,1,12.28-3.19c.19,0,.56,0-.27,0l.33,0,.84-.1L90.35,43c1-.08,2.06-.13,3.1-.15a51.21,51.21,0,0,1,6.31.24l1.59.18c.41,0-.78-.11-.18,0l.33.05.84.13c1.06.17,2.12.38,3.17.62a50.3,50.3,0,0,1,6.25,1.84c.49.18,1,.36,1.46.56l.72.29c.38.15-.69-.3-.13,0l.48.21c1,.44,2,.91,2.93,1.41A51.44,51.44,0,0,1,123,51.77c.47.33.94.67,1.4,1l.37.27c.33.25-.14,0-.15-.11,0,.13.61.48.72.57q1.68,1.35,3.24,2.85t3,3.17c.46.52.91,1,1.35,1.58l.65.81c.29.37-.41-.54,0,.06l.41.55a53.86,53.86,0,0,1,4.55,7.35c.33.65.65,1.31,1,2,.13.28.26.56.38.84,0,0,.31.71.13.29s.13.32.16.4c.54,1.32,1,2.66,1.45,4s.82,2.82,1.15,4.25a2.9,2.9,0,1,0,5.59-1.54,55.64,55.64,0,0,0-19-30.71,54.66,54.66,0,0,0-25.52-11.6A57.68,57.68,0,0,0,54,53.71a54.16,54.16,0,0,0-14,24c-.31,1.13-.58,2.27-.81,3.41a2.9,2.9,0,1,0,5.59,1.54Z" transform="translate(-1.5 -1.5)"/><path class="cls-1" d="M97.1,38.05V4.4a2.9,2.9,0,1,0-5.8,0V38.05a2.9,2.9,0,0,0,5.8,0Z" transform="translate(-1.5 -1.5)"/><path class="cls-1" d="M139.76,63.76,150,57.87l16.25-9.37,3.69-2.14a2.9,2.9,0,1,0-2.92-5l-10.21,5.89-16.24,9.38-3.7,2.14a2.9,2.9,0,1,0,2.93,5Z" transform="translate(-1.5 -1.5)"/><path class="cls-1" d="M122.23,46.48l5.51-9.43,8.72-15,2-3.45a2.9,2.9,0,1,0-5-2.93L128,25.13l-8.73,15-2,3.45a2.9,2.9,0,1,0,5,2.93Z" transform="translate(-1.5 -1.5)"/><path class="cls-1" d="M52.71,58.76l-10.2-5.9L26.26,43.49l-3.7-2.14a2.9,2.9,0,1,0-2.92,5l10.2,5.89,16.24,9.38,3.7,2.13a2.9,2.9,0,1,0,2.93-5Z" transform="translate(-1.5 -1.5)"/><path class="cls-1" d="M72.32,43.55l-5.51-9.43-8.72-15-2-3.46a2.9,2.9,0,1,0-5,2.93l5.5,9.43,8.73,15,2,3.45a2.93,2.93,0,0,0,4,1,3,3,0,0,0,1-4Z" transform="translate(-1.5 -1.5)"/></svg>