<svg xmlns="http://www.w3.org/2000/svg" viewBox="0 0 104 10.58"><defs><style>.cls-1{fill:#f5f5f5;}</style></defs><g id="Layer_2" data-name="Layer 2"><g id="Layer_1-2" data-name="Layer 1"><path class="cls-1" d="M8.42,6.94a1.9,1.9,0,0,0,.35.92H6.9a1.93,1.93,0,0,0,.34-.92V1.4L4.08,7.93H3.9L.54,1.18V6.94a2,2,0,0,0,.31.92H0a2,2,0,0,0,.31-.92V1.06A2,2,0,0,0,0,.14H1.26L4.47,6.61,7.24.91V.14H8.77a1.9,1.9,0,0,0-.35.92Z"/><path class="cls-1" d="M14.71,2.71a2.15,2.15,0,0,0-.48.83L12,9.28c-.48,1.3-.89,1.27-1.34,1.3V9.71c.6,0,.94-.21,1.52-1.57l-2-4.6a2.13,2.13,0,0,0-.5-.83h1.75a1,1,0,0,0,0,.83l1.25,3.24L14,3.54a.8.8,0,0,0-.25-.83Z"/><path class="cls-1" d="M22,6.73C21.81,5.55,18.92,5.55,18.92,4c0-1,.92-1.45,2-1.45a2.51,2.51,0,0,1,1.93.68l-.48.61a1.4,1.4,0,0,0-1.51-1.08.85.85,0,0,0-.92.94c.13,1,3.23,1.07,3.23,2.62S21.54,8,20.76,8a2.49,2.49,0,0,1-2-.8l.49-.63a1.59,1.59,0,0,0,1.55,1.21C21.59,7.76,22,7.32,22,6.73Z"/><path class="cls-1" d="M24.72,3h-.38V2.73a2,2,0,0,0,1.32-1.3h.24v1.3h.85V3H25.9V7c0,.5.12.72.35.73a.72.72,0,0,0,.35-.11l.06.17c-.18.18-1.94.57-1.94-.83Z"/><path class="cls-1" d="M27.78,5.36a2.62,2.62,0,0,1,2.74-2.79,2.66,2.66,0,0,1,2.75,2.64A2.61,2.61,0,0,1,30.5,8,2.67,2.67,0,0,1,27.78,5.36ZM29,5.3c.18,1.39.92,2.47,1.85,2.42s1.37-1,1.2-2.42-.92-2.51-1.86-2.46S28.82,3.91,29,5.3Z"/><path class="cls-1" d="M34.8,4.11a1.87,1.87,0,0,0-.34-.9L36,2.71v1s.2-1.11,1.21-1.16c1.5-.08,1.54,1,1.54,1H37.52S37.44,3,36.91,3,36,4.2,36,5.29V7a1.89,1.89,0,0,0,.35.9H34.46A1.92,1.92,0,0,0,34.8,7Z"/><path class="cls-1" d="M44.42,2.71a2.15,2.15,0,0,0-.48.83L41.75,9.28c-.48,1.3-.89,1.27-1.33,1.3V9.71c.6,0,.93-.21,1.51-1.57l-2-4.6a2.13,2.13,0,0,0-.5-.83h1.75a1,1,0,0,0,0,.83l1.26,3.24L43.7,3.54a.8.8,0,0,0-.25-.83Z"/><path class="cls-1" d="M45.26,4a.48.48,0,0,1,.65-.21.48.48,0,0,1,.22.65.49.49,0,0,1-.65.2A.48.48,0,0,1,45.26,4Zm0,3.52a.49.49,0,0,1,.22-.65.5.5,0,0,1,.65.21.48.48,0,0,1-.22.65A.48.48,0,0,1,45.26,7.53Z"/><path class="cls-1" d="M51.32,3h-.38V2.73a2,2,0,0,0,1.32-1.3h.24v1.3h.85V3H52.5V7c0,.5.12.72.36.73a.77.77,0,0,0,.35-.11l.06.17c-.18.18-2,.57-2-.83Z"/><path class="cls-1" d="M58.19,7.86a1.92,1.92,0,0,0,.34-.9V4.43c0-1.78-2.34-1.73-2.34.26V7a1.89,1.89,0,0,0,.35.9H54.67A1.89,1.89,0,0,0,55,7V1.42A1.9,1.9,0,0,0,54.67.5L56.19,0V3.65a2,2,0,0,1,1.73-1.08,1.67,1.67,0,0,1,1.79,1.87V7a1.89,1.89,0,0,0,.35.9Z"/><path class="cls-1" d="M66.27,4.86H62.4v0c0,3.32,2.81,2.84,3.55,1.91l.18.11a2.77,2.77,0,0,1-4.95-1.7,2.6,2.6,0,0,1,2.69-2.66,2.18,2.18,0,0,1,2.4,2.06Zm-3.86-.23h2.65c0-1.13-.53-1.85-1.31-1.85S62.5,3.56,62.41,4.63Z"/><path class="cls-1" d="M70.5,5.38a2.69,2.69,0,0,1,2.7-2.81,2.13,2.13,0,0,1,1.62.57V1.42A1.93,1.93,0,0,0,74.48.5L76,0V7a1.92,1.92,0,0,0,.34.9H74.82V7A2.18,2.18,0,0,1,72.9,8,2.4,2.4,0,0,1,70.5,5.38Zm1.27-.21c0,1.22.59,2.42,1.58,2.42a1.73,1.73,0,0,0,1.47-1.07V4.87c0-1.44-.79-2-1.6-2S71.79,3.85,71.77,5.17Z"/><path class="cls-1" d="M82.57,4.86H78.69v0c0,3.32,2.81,2.84,3.56,1.91l.17.11A2.54,2.54,0,0,1,80.23,8a2.57,2.57,0,0,1-2.76-2.77,2.6,2.6,0,0,1,2.7-2.66,2.19,2.19,0,0,1,2.4,2.06Zm-3.86-.23h2.65c0-1.13-.53-1.85-1.31-1.85S78.79,3.56,78.71,4.63Z"/><path class="cls-1" d="M84.14,3h-.38V2.73a2,2,0,0,0,1.32-1.3h.24v1.3h.85V3h-.85V7c0,.5.12.72.36.73A.77.77,0,0,0,86,7.6l.06.17c-.18.18-2,.57-2-.83Z"/><path class="cls-1" d="M87.29,6.73c0-1.78,3.26-2.23,3.26-2.23,0-1.19,0-1.73-.8-1.72A.79.79,0,0,0,89,3.5H87.78s.26-.93,1.94-.93,2,.57,2,1.74V7a2.16,2.16,0,0,0,.28.9H90.55V7.27A2.92,2.92,0,0,1,88.82,8C88,8,87.29,7.63,87.29,6.73Zm3.26-2s-2,.55-2,1.92,1.5.87,2,.34Z"/><path class="cls-1" d="M93.62,3.91a1,1,0,0,0-.34-.7l1.52-.5V7a1.89,1.89,0,0,0,.35.9H93.28a1.92,1.92,0,0,0,.34-.9Zm-.16-2.85a.7.7,0,0,1,.69-.71.72.72,0,0,1,.71.71.72.72,0,0,1-.71.7A.7.7,0,0,1,93.46,1.06Z"/><path class="cls-1" d="M97,1.42A1.93,1.93,0,0,0,96.66.5L98.17,0V7a1.92,1.92,0,0,0,.34.9H96.66A1.92,1.92,0,0,0,97,7Z"/><path class="cls-1" d="M102.85,6.73c-.17-1.18-3.06-1.18-3.06-2.71,0-1,.91-1.45,2-1.45a2.54,2.54,0,0,1,1.93.68l-.48.61a1.41,1.41,0,0,0-1.51-1.08.85.85,0,0,0-.93.94c.14,1,3.24,1.07,3.24,2.62S102.41,8,101.63,8a2.49,2.49,0,0,1-2-.8l.49-.63a1.59,1.59,0,0,0,1.55,1.21C102.45,7.76,102.91,7.32,102.85,6.73Z"/></g></g></svg>