<svg xmlns="http://www.w3.org/2000/svg" viewBox="0 0 134.24 10.58"><defs><style>.cls-1{fill:#f5f5f5;}</style></defs><g id="Layer_2" data-name="Layer 2"><g id="Layer_1-2" data-name="Layer 1"><path class="cls-1" d="M2.24.14C5.91.14,6.67,2.71,6.67,4S5.83,7.86,2.16,7.86H0a1.93,1.93,0,0,0,.34-.92V1.05A1.92,1.92,0,0,0,0,.14ZM5.41,4C5.41,1.71,4,.37,2.18.37H1.51V6.94c0,.45.21.69.65.69A3.34,3.34,0,0,0,5.41,4Z"/><path class="cls-1" d="M8.3,3.91A1,1,0,0,0,8,3.21l1.52-.5V7a1.89,1.89,0,0,0,.35.9H8A1.92,1.92,0,0,0,8.3,7ZM8.14,1.05a.7.7,0,0,1,.69-.7.72.72,0,0,1,.71.7.72.72,0,0,1-.71.71A.7.7,0,0,1,8.14,1.05Z"/><path class="cls-1" d="M16.54,9.16c0,1-1.67,1.42-2.91,1.42-.78,0-2.66-.22-2.66-1.33,0-.66.72-1.06,1.1-1.21a.73.73,0,0,1-.51-.74c0-.42.46-.67.69-.76a2.1,2.1,0,0,1-1-1.79,2.31,2.31,0,0,1,2.47-2.18,2.58,2.58,0,0,1,1.59.5,1.79,1.79,0,0,1,1-.5l.25.63a2.14,2.14,0,0,0-1.08,0,2.06,2.06,0,0,1,.68,1.5,2.3,2.3,0,0,1-2.48,2.19,2.79,2.79,0,0,1-1.24-.28.6.6,0,0,0-.33.45C12.11,8.09,16.54,7.11,16.54,9.16Zm-1.28.16c0-1-1.81-.88-2.9-1.19a1.34,1.34,0,0,0-.66,1.08c0,.73,1,1.06,1.92,1.06S15.26,10,15.26,9.32Zm-2.8-4.56c.16,1.13.74,2,1.57,2s1.11-1,1-2-.74-1.95-1.59-1.95S12.29,3.65,12.46,4.76Z"/><path class="cls-1" d="M23.13,9.16c0,1-1.68,1.42-2.91,1.42-.78,0-2.66-.22-2.66-1.33,0-.66.72-1.06,1.1-1.21a.75.75,0,0,1-.52-.74c0-.42.47-.67.7-.76a2.1,2.1,0,0,1-1-1.79A2.31,2.31,0,0,1,20.3,2.57a2.58,2.58,0,0,1,1.59.5,1.76,1.76,0,0,1,1-.5l.25.63a2.14,2.14,0,0,0-1.08,0,2.05,2.05,0,0,1,.67,1.5A2.3,2.3,0,0,1,20.3,6.94a2.79,2.79,0,0,1-1.24-.28.58.58,0,0,0-.33.45C18.7,8.09,23.13,7.11,23.13,9.16Zm-1.28.16c0-1-1.81-.88-2.9-1.19a1.31,1.31,0,0,0-.66,1.08c0,.73,1,1.06,1.92,1.06S21.85,10,21.85,9.32ZM19,4.76c.17,1.13.75,2,1.57,2s1.12-1,1-2S20.84,2.81,20,2.81,18.88,3.65,19,4.76Z"/><path class="cls-1" d="M24.74,3.91a1,1,0,0,0-.34-.7l1.52-.5V7a1.89,1.89,0,0,0,.35.9H24.4a1.92,1.92,0,0,0,.34-.9Zm-.16-2.86a.7.7,0,0,1,.69-.7.72.72,0,0,1,.71.7.72.72,0,0,1-.71.71A.7.7,0,0,1,24.58,1.05Z"/><path class="cls-1" d="M28,4.11a1.84,1.84,0,0,0-.35-.9l1.52-.5v.94A2,2,0,0,1,30.9,2.57a1.74,1.74,0,0,1,1.79,1.94V7a1.92,1.92,0,0,0,.34.9H31.16a1.89,1.89,0,0,0,.35-.9V4.5c0-1.83-2.34-1.86-2.34.13V7a1.89,1.89,0,0,0,.35.9H27.65A1.89,1.89,0,0,0,28,7Z"/><path class="cls-1" d="M39.61,9.16c0,1-1.68,1.42-2.92,1.42-.78,0-2.66-.22-2.66-1.33,0-.66.72-1.06,1.11-1.21a.74.74,0,0,1-.52-.74c0-.42.47-.67.69-.76a2.09,2.09,0,0,1-1-1.79,2.31,2.31,0,0,1,2.47-2.18,2.55,2.55,0,0,1,1.58.5,1.79,1.79,0,0,1,1-.5l.26.63a2.14,2.14,0,0,0-1.08,0,2.05,2.05,0,0,1,.67,1.5,2.3,2.3,0,0,1-2.47,2.19,2.8,2.8,0,0,1-1.25-.28.59.59,0,0,0-.32.45C35.17,8.09,39.61,7.11,39.61,9.16Zm-1.28.16c0-1-1.82-.88-2.91-1.19a1.34,1.34,0,0,0-.66,1.08c0,.73,1.05,1.06,1.92,1.06S38.33,10,38.33,9.32ZM35.52,4.76c.17,1.13.74,2,1.57,2s1.12-1,1-2-.73-1.95-1.58-1.95S35.35,3.65,35.52,4.76Z"/><path class="cls-1" d="M46.17.14C49.84.14,50.6,2.71,50.6,4s-.84,3.86-4.51,3.86H43.93a1.93,1.93,0,0,0,.34-.92V1.05a1.92,1.92,0,0,0-.34-.91ZM49.34,4C49.34,1.71,48,.37,46.11.37h-.67V6.94c0,.45.21.69.65.69A3.34,3.34,0,0,0,49.34,4Z"/><path class="cls-1" d="M56.9,4.86H53v0c0,3.32,2.8,2.84,3.55,1.91l.18.11a2.77,2.77,0,0,1-5-1.7,2.61,2.61,0,0,1,2.7-2.66,2.18,2.18,0,0,1,2.4,2.06ZM53,4.63h2.65c0-1.13-.53-1.85-1.31-1.85S53.12,3.56,53,4.63Z"/><path class="cls-1" d="M63.16,4.86H59.29v0c0,3.32,2.81,2.84,3.55,1.91l.18.11a2.77,2.77,0,0,1-5-1.7,2.6,2.6,0,0,1,2.7-2.66,2.18,2.18,0,0,1,2.39,2.06ZM59.3,4.63H62c0-1.13-.52-1.85-1.3-1.85S59.39,3.56,59.3,4.63Z"/><path class="cls-1" d="M64.67,4.11a1.84,1.84,0,0,0-.35-.9l1.52-.5v.84a2,2,0,0,1,1.76-1,2.47,2.47,0,0,1,2.55,2.71A2.57,2.57,0,0,1,67.41,8a2,2,0,0,1-1.57-.73v2.4a1.89,1.89,0,0,0,.35.91H64.32a1.89,1.89,0,0,0,.35-.91Zm1.17,0V5.82a1.64,1.64,0,0,0,1.64,1.87c.9,0,1.44-1,1.4-2.39s-.63-2.41-1.52-2.4A1.73,1.73,0,0,0,65.84,4.14Z"/><path class="cls-1" d="M76.51,4.86H72.63v0c0,3.32,2.81,2.84,3.55,1.91l.18.11A2.54,2.54,0,0,1,74.17,8a2.57,2.57,0,0,1-2.76-2.77,2.6,2.6,0,0,1,2.7-2.66,2.19,2.19,0,0,1,2.4,2.06Zm-3.86-.23H75.3c0-1.13-.53-1.85-1.31-1.85S72.73,3.56,72.65,4.63Z"/><path class="cls-1" d="M78,4.11a1.87,1.87,0,0,0-.34-.9l1.51-.5v1s.21-1.11,1.22-1.16c1.49-.08,1.54,1,1.54,1H80.72S80.64,3,80.11,3s-.94,1.19-.94,2.28V7a1.86,1.86,0,0,0,.36.9H77.66A1.92,1.92,0,0,0,78,7Z"/><path class="cls-1" d="M82.49,4a.47.47,0,0,1,.64-.2.48.48,0,0,1,.22.65.49.49,0,0,1-.65.2A.48.48,0,0,1,82.49,4Zm0,3.53a.48.48,0,0,1,.21-.65.5.5,0,0,1,.65.21.48.48,0,0,1-.22.65A.47.47,0,0,1,82.49,7.53Z"/><path class="cls-1" d="M96.58,6.94a1.9,1.9,0,0,0,.35.92H95.06a1.9,1.9,0,0,0,.35-.92V1.4L92.24,7.93h-.18L88.7,1.17V6.94a2,2,0,0,0,.31.92h-.85a2,2,0,0,0,.31-.92V1.05a2,2,0,0,0-.31-.91h1.26l3.22,6.47L95.41.91V.14h1.52a1.89,1.89,0,0,0-.35.91Z"/><path class="cls-1" d="M102.87,2.71a2.15,2.15,0,0,0-.48.83L100.2,9.28c-.48,1.3-.89,1.27-1.33,1.3V9.71c.6,0,.93-.21,1.51-1.57l-1.95-4.6a2.13,2.13,0,0,0-.5-.83h1.75a1,1,0,0,0,0,.83l1.26,3.24,1.23-3.24a.8.8,0,0,0-.25-.83Z"/><path class="cls-1" d="M111.75,6.09c-.2-1.72-4.28-1.7-4.58-3.7C107,.91,108.3,0,109.81,0a3.31,3.31,0,0,1,2.85,1.13l-.62.81A2.24,2.24,0,0,0,109.7.22a1.44,1.44,0,0,0-1.52,1.53c.2,1.82,4.82,1.66,4.82,4C113,7.57,110.89,8,109.81,8a3.39,3.39,0,0,1-2.87-1.25l.67-.83A2.35,2.35,0,0,0,110,7.78,1.59,1.59,0,0,0,111.75,6.09Z"/><path class="cls-1" d="M114.54,3h-.39V2.73a1.94,1.94,0,0,0,1.32-1.3h.24v1.3h.86V3h-.86V7c0,.5.12.72.36.73a.72.72,0,0,0,.35-.11l.06.17c-.18.18-1.94.56-1.94-.83Z"/><path class="cls-1" d="M117.6,5.36a2.62,2.62,0,0,1,2.73-2.79,2.66,2.66,0,0,1,2.76,2.64A2.61,2.61,0,0,1,120.32,8,2.66,2.66,0,0,1,117.6,5.36Zm1.22-.06c.18,1.39.91,2.47,1.85,2.42s1.37-1,1.2-2.42-.93-2.51-1.86-2.46S118.64,3.91,118.82,5.3Z"/><path class="cls-1" d="M124.62,4.11a1.87,1.87,0,0,0-.34-.9l1.51-.5v1S126,2.64,127,2.59c1.49-.08,1.54,1,1.54,1h-1.21s-.08-.6-.61-.56-.94,1.19-.94,2.28V7a1.86,1.86,0,0,0,.36.9h-1.87a1.92,1.92,0,0,0,.34-.9Z"/><path class="cls-1" d="M134.24,2.71a2.15,2.15,0,0,0-.48.83l-2.2,5.74c-.47,1.3-.88,1.27-1.33,1.3V9.71c.6,0,.94-.21,1.52-1.57l-1.95-4.6a2.13,2.13,0,0,0-.5-.83h1.75a1,1,0,0,0,0,.83l1.25,3.24,1.24-3.24a.8.8,0,0,0-.25-.83Z"/></g></g></svg>