<svg xmlns="http://www.w3.org/2000/svg" viewBox="0 0 68.05 8"><defs><style>.cls-1{fill:#f5f5f5;}</style></defs><g id="Layer_2" data-name="Layer 2"><g id="Layer_1-2" data-name="Layer 1"><path class="cls-1" d="M8,4A4,4,0,0,1,4,8,3.94,3.94,0,0,1,0,4,4,4,0,0,1,4,0,4,4,0,0,1,8,4ZM6.73,4C6.54,1.93,5.35.34,3.63.34S1.06,1.93,1.26,4,2.71,7.68,4.37,7.68,6.93,6.07,6.73,4Z"/><path class="cls-1" d="M14.23,7a1.83,1.83,0,0,0,.35.89H13.05V7a1.9,1.9,0,0,1-1.72,1A1.67,1.67,0,0,1,9.54,6.13V3.91a1,1,0,0,0-.35-.7l1.52-.5V6.25c0,1.58,2.34,1.74,2.34-.24V3.91a1,1,0,0,0-.34-.7l1.52-.5Z"/><path class="cls-1" d="M16.19,4.11a1.87,1.87,0,0,0-.34-.9l1.51-.5v1s.21-1.11,1.21-1.16c1.5-.08,1.55,1,1.55,1H18.91S18.83,3,18.3,3s-.94,1.19-.94,2.28V7a1.81,1.81,0,0,0,.36.89H15.85A1.86,1.86,0,0,0,16.19,7Z"/><path class="cls-1" d="M29,6.09c-.2-1.73-4.28-1.7-4.58-3.7C24.16.91,25.5,0,27,0a3.31,3.31,0,0,1,2.85,1.13l-.62.81A2.24,2.24,0,0,0,26.9.22a1.44,1.44,0,0,0-1.52,1.53c.2,1.82,4.82,1.66,4.82,4C30.2,7.57,28.09,8,27,8a3.39,3.39,0,0,1-2.87-1.25l.68-.83a2.33,2.33,0,0,0,2.37,1.86A1.59,1.59,0,0,0,29,6.09Z"/><path class="cls-1" d="M36.38,4.86H32.51v0c0,3.33,2.8,2.85,3.55,1.92l.18.11a2.77,2.77,0,0,1-5-1.7A2.61,2.61,0,0,1,34,2.57a2.18,2.18,0,0,1,2.4,2.06Zm-3.86-.23h2.65c0-1.13-.53-1.85-1.31-1.85S32.6,3.56,32.52,4.63Z"/><path class="cls-1" d="M37.87,4.11a1.9,1.9,0,0,0-.33-.9l1.51-.5v1s.2-1.11,1.21-1.16c1.5-.08,1.54,1,1.54,1H40.59S40.51,3,40,3s-.93,1.19-.93,2.28V7a1.81,1.81,0,0,0,.36.89H37.54A1.89,1.89,0,0,0,37.87,7Z"/><path class="cls-1" d="M47.54,2.71a2.81,2.81,0,0,0-.49.89L45.38,7.93h-.65L43.05,3.61a2.48,2.48,0,0,0-.52-.9h1.75a1.32,1.32,0,0,0,0,.9l1.27,3.27L46.8,3.61a1,1,0,0,0-.22-.9Z"/><path class="cls-1" d="M49,3.91a1,1,0,0,0-.35-.7l1.52-.5V7a1.83,1.83,0,0,0,.35.89H48.6A1.83,1.83,0,0,0,49,7Zm-.17-2.85a.7.7,0,0,1,.69-.71.71.71,0,0,1,.71.71.71.71,0,0,1-.71.7A.7.7,0,0,1,48.78,1.06Z"/><path class="cls-1" d="M51.7,5.28a2.69,2.69,0,0,1,2.85-2.71c1.67,0,2,1,2,1H55.32a.94.94,0,0,0-1-.75C53.41,2.82,52.8,4,53,5.37A2.25,2.25,0,0,0,55,7.59a1.72,1.72,0,0,0,1.26-.47l.16.11a2.5,2.5,0,0,1-2,.77A2.59,2.59,0,0,1,51.7,5.28Z"/><path class="cls-1" d="M62.61,4.86H58.74v0c0,3.33,2.8,2.85,3.55,1.92l.18.11a2.77,2.77,0,0,1-5-1.7,2.61,2.61,0,0,1,2.7-2.66,2.18,2.18,0,0,1,2.4,2.06Zm-3.86-.23H61.4c0-1.13-.53-1.85-1.31-1.85S58.83,3.56,58.75,4.63Z"/><path class="cls-1" d="M66.9,6.73C66.73,5.55,63.84,5.55,63.84,4c0-1,.91-1.45,2-1.45a2.51,2.51,0,0,1,1.93.68l-.47.61a1.42,1.42,0,0,0-1.52-1.08.85.85,0,0,0-.92.94c.13,1,3.24,1.06,3.24,2.62S66.45,8,65.67,8a2.49,2.49,0,0,1-2-.8l.5-.63a1.58,1.58,0,0,0,1.54,1.21C66.5,7.76,67,7.32,66.9,6.73Z"/></g></g></svg>