<svg xmlns="http://www.w3.org/2000/svg" viewBox="0 0 105.82 10.58"><defs><style>.cls-1{fill:#f5f5f5;}</style></defs><g id="Layer_2" data-name="Layer 2"><g id="Layer_1-2" data-name="Layer 1"><path class="cls-1" d="M4.81,6.09C4.61,4.37.53,4.39.23,2.39,0,.91,1.36,0,2.87,0A3.31,3.31,0,0,1,5.72,1.13l-.62.81A2.24,2.24,0,0,0,2.76.22,1.44,1.44,0,0,0,1.24,1.75c.2,1.82,4.82,1.66,4.82,4C6.06,7.57,4,8,2.87,8A3.37,3.37,0,0,1,0,6.75l.67-.83A2.35,2.35,0,0,0,3.05,7.78,1.59,1.59,0,0,0,4.81,6.09Z"/><path class="cls-1" d="M12.24,4.86H8.36v0c0,3.32,2.81,2.84,3.55,1.91l.18.11A2.54,2.54,0,0,1,9.9,8,2.57,2.57,0,0,1,7.14,5.23a2.6,2.6,0,0,1,2.7-2.66,2.19,2.19,0,0,1,2.4,2.06ZM8.38,4.63H11c0-1.13-.53-1.85-1.31-1.85S8.46,3.56,8.38,4.63Z"/><path class="cls-1" d="M13.73,4.11a1.87,1.87,0,0,0-.34-.9l1.51-.5v1s.21-1.11,1.21-1.16c1.5-.08,1.55,1,1.55,1H16.45S16.37,3,15.84,3,14.9,4.2,14.9,5.29V7a1.86,1.86,0,0,0,.36.9H13.39a1.92,1.92,0,0,0,.34-.9Z"/><path class="cls-1" d="M23.4,2.71a2.81,2.81,0,0,0-.49.89L21.24,7.93h-.65L18.91,3.61a2.4,2.4,0,0,0-.53-.9h1.75a1.4,1.4,0,0,0,0,.9l1.28,3.27,1.24-3.27a1,1,0,0,0-.21-.9Z"/><path class="cls-1" d="M24.8,3.91a1,1,0,0,0-.34-.7L26,2.71V7a1.89,1.89,0,0,0,.35.9H24.46A1.92,1.92,0,0,0,24.8,7Zm-.16-2.86a.7.7,0,0,1,.69-.7.72.72,0,0,1,.71.7.72.72,0,0,1-.71.71A.7.7,0,0,1,24.64,1.05Z"/><path class="cls-1" d="M27.55,5.28a2.7,2.7,0,0,1,2.86-2.71c1.66,0,2,1,2,1H31.17a.94.94,0,0,0-1-.75c-.93,0-1.54,1.18-1.38,2.55A2.26,2.26,0,0,0,30.9,7.59a1.75,1.75,0,0,0,1.26-.47l.15.11a2.48,2.48,0,0,1-2,.77A2.6,2.6,0,0,1,27.55,5.28Z"/><path class="cls-1" d="M38.47,4.86H34.59v0c0,3.32,2.81,2.84,3.56,1.91l.18.11a2.77,2.77,0,0,1-5-1.7,2.61,2.61,0,0,1,2.7-2.66,2.19,2.19,0,0,1,2.4,2.06Zm-3.86-.23h2.65c0-1.13-.53-1.85-1.31-1.85S34.69,3.56,34.61,4.63Z"/><path class="cls-1" d="M42.75,6.73c-.16-1.18-3-1.18-3-2.71,0-1,.91-1.45,1.95-1.45a2.51,2.51,0,0,1,1.93.68l-.48.61a1.4,1.4,0,0,0-1.51-1.08.85.85,0,0,0-.92.94c.13,1,3.24,1.07,3.24,2.62S42.31,8,41.53,8a2.49,2.49,0,0,1-2-.8L40,6.57a1.6,1.6,0,0,0,1.55,1.21C42.36,7.76,42.81,7.32,42.75,6.73Z"/><path class="cls-1" d="M56.38,2.71a2.69,2.69,0,0,0-.5.89L54.21,7.93h-.63L52.2,4.39,50.83,7.93h-.64L48.52,3.61a2.66,2.66,0,0,0-.54-.9h1.75a1.32,1.32,0,0,0,0,.9L51,6.86l1.08-2.79-.18-.46a2.32,2.32,0,0,0-.54-.9h1.76a1.32,1.32,0,0,0,0,.9l1.26,3.27,1.26-3.27a1,1,0,0,0-.24-.9Z"/><path class="cls-1" d="M62.19,4.86H58.32v0c0,3.32,2.81,2.84,3.55,1.91l.18.11a2.77,2.77,0,0,1-5-1.7,2.61,2.61,0,0,1,2.7-2.66,2.18,2.18,0,0,1,2.4,2.06Zm-3.86-.23H61c0-1.13-.53-1.85-1.31-1.85S58.41,3.56,58.33,4.63Z"/><path class="cls-1" d="M66.84,4.11a1.84,1.84,0,0,0-.35-.9L68,2.71v.84a2,2,0,0,1,1.77-1,2.46,2.46,0,0,1,2.54,2.71A2.57,2.57,0,0,1,69.59,8,2,2,0,0,1,68,7.27v2.4a1.89,1.89,0,0,0,.35.91H66.49a1.89,1.89,0,0,0,.35-.91Zm1.17,0V5.82a1.64,1.64,0,0,0,1.65,1.87c.9,0,1.44-1,1.39-2.39s-.63-2.41-1.51-2.4A1.73,1.73,0,0,0,68,4.14Z"/><path class="cls-1" d="M73.85,4.11a1.87,1.87,0,0,0-.34-.9L75,2.71v1s.21-1.11,1.21-1.16c1.5-.08,1.55,1,1.55,1H76.57S76.49,3,76,3,75,4.2,75,5.29V7a1.86,1.86,0,0,0,.36.9H73.51a1.92,1.92,0,0,0,.34-.9Z"/><path class="cls-1" d="M78.44,5.36a2.62,2.62,0,0,1,2.74-2.79,2.67,2.67,0,0,1,2.76,2.64A2.61,2.61,0,0,1,81.17,8,2.67,2.67,0,0,1,78.44,5.36Zm1.23-.06c.18,1.39.91,2.47,1.84,2.42s1.37-1,1.2-2.42-.92-2.51-1.86-2.46S79.49,3.91,79.67,5.3Z"/><path class="cls-1" d="M89.6,2.71a2.81,2.81,0,0,0-.49.89L87.44,7.93h-.65L85.11,3.61a2.32,2.32,0,0,0-.52-.9h1.75a1.32,1.32,0,0,0,0,.9l1.27,3.27,1.25-3.27a1,1,0,0,0-.22-.9Z"/><path class="cls-1" d="M91,3.91a1,1,0,0,0-.35-.7l1.52-.5V7a1.89,1.89,0,0,0,.35.9H90.66A1.89,1.89,0,0,0,91,7Zm-.17-2.86a.7.7,0,0,1,.69-.7.71.71,0,0,1,.71.7.71.71,0,0,1-.71.71A.7.7,0,0,1,90.84,1.05Z"/><path class="cls-1" d="M93.75,5.38a2.7,2.7,0,0,1,2.7-2.81,2.13,2.13,0,0,1,1.62.57V1.42A2,2,0,0,0,97.74.5L99.25,0V7a2,2,0,0,0,.33.9H98.07V7a2.18,2.18,0,0,1-1.92,1A2.4,2.4,0,0,1,93.75,5.38ZM95,5.17c0,1.22.58,2.42,1.58,2.42a1.72,1.72,0,0,0,1.46-1.07V4.87c0-1.44-.79-2-1.59-2C95.52,2.89,95.05,3.85,95,5.17Z"/><path class="cls-1" d="M105.82,4.86H102v0c0,3.32,2.81,2.84,3.55,1.91l.18.11a2.77,2.77,0,0,1-5-1.7,2.6,2.6,0,0,1,2.7-2.66,2.18,2.18,0,0,1,2.39,2.06ZM102,4.63h2.65c0-1.13-.53-1.85-1.3-1.85S102.05,3.56,102,4.63Z"/></g></g></svg>