<svg xmlns="http://www.w3.org/2000/svg" viewBox="0 0 50.85 8.24"><defs><style>.cls-1{fill:none;}.cls-2{fill:#f5f5f5;}</style></defs><g id="Layer_2" data-name="Layer 2"><g id="Layer_1-2" data-name="Layer 1"><path class="cls-1" d="M0,7.82a0,0,0,0,1,0,0,0,0,0,0,1,0,0s0,0,0,0A0,0,0,0,1,0,7.82Z"/><path class="cls-2" d="M11,.14a2.23,2.23,0,0,0-.48.84l-2.68,7H7.69l-2-5.12-2,5.12H3.56L.86,1A2.07,2.07,0,0,0,.34.14H1.63A1.05,1.05,0,0,0,1.6,1L3.93,7,5.61,2.58,5,1A2.21,2.21,0,0,0,4.48.14H5.76a1.08,1.08,0,0,0,0,.84L8.07,7l2.29-6A.82.82,0,0,0,10.1.14Z"/><path class="cls-2" d="M15.89,4.79H11.77a.68.68,0,0,0,0,.2c0,3.37,2.83,3.23,3.84,1.88l.11.07A2.54,2.54,0,0,1,13.47,8,2.52,2.52,0,0,1,11,5.25a2.56,2.56,0,0,1,2.67-2.68,2.16,2.16,0,0,1,2.27,2.06Zm-4.11-.16h3.37a1.72,1.72,0,0,0-1.69-1.92A2,2,0,0,0,11.78,4.63Z"/><path class="cls-2" d="M17.59,1.34A1.55,1.55,0,0,0,17.25.5l1-.5V7a1.54,1.54,0,0,0,.34.83H17.25A1.54,1.54,0,0,0,17.59,7Z"/><path class="cls-2" d="M20,5.28a2.74,2.74,0,0,1,2.77-2.71,2.15,2.15,0,0,1,1.9.8h-.78a1.39,1.39,0,0,0-1.32-.62C21.4,2.75,20.61,4,20.75,5.4a2.43,2.43,0,0,0,2.19,2.4,2.09,2.09,0,0,0,1.46-.63l.11.07A2.57,2.57,0,0,1,22.58,8,2.54,2.54,0,0,1,20,5.28Z"/><path class="cls-2" d="M25.7,5.28a2.65,2.65,0,1,1,5.29,0,2.65,2.65,0,1,1-5.29,0Zm.79,0c.18,1.39,1.1,2.5,2.18,2.5s1.7-1.11,1.52-2.5S29.08,2.77,28,2.77,26.31,3.91,26.49,5.3Z"/><path class="cls-2" d="M39.31,7.86A1.52,1.52,0,0,0,39.66,7V4.43a1.4,1.4,0,1,0-2.79.06V7a1.54,1.54,0,0,0,.34.83h-1.4A1.52,1.52,0,0,0,36.16,7V4.43a1.4,1.4,0,1,0-2.8,0V7a1.52,1.52,0,0,0,.35.83h-1.4A1.52,1.52,0,0,0,32.66,7V4a1.48,1.48,0,0,0-.35-.83l1-.5v.94a2,2,0,0,1,1.71-1.08,1.62,1.62,0,0,1,1.72,1.24,1.94,1.94,0,0,1,1.78-1.24,1.67,1.67,0,0,1,1.8,1.87V7a1.52,1.52,0,0,0,.35.83Z"/><path class="cls-2" d="M46.89,4.79H42.76a1.34,1.34,0,0,0,0,.2c0,3.37,2.83,3.23,3.84,1.88l.1.07a2.64,2.64,0,0,1-4.75-1.69,2.56,2.56,0,0,1,2.68-2.68,2.16,2.16,0,0,1,2.27,2.06Zm-4.12-.16h3.37a1.72,1.72,0,0,0-1.69-1.92A2,2,0,0,0,42.77,4.63Z"/><path class="cls-1" d="M47.78,7.82a0,0,0,0,1,.08,0,0,0,0,1,1-.08,0Z"/><path class="cls-2" d="M48.55,7.69a.54.54,0,0,1,.54-.54.52.52,0,0,1,.54.53.54.54,0,1,1-1.08,0Zm.61-.9H49L48.73,0h.7Z"/><path class="cls-1" d="M50.76,7.82a0,0,0,0,1,.05,0,0,0,0,0,1,0,0,0,0,0,0,1,0,0A0,0,0,0,1,50.76,7.82Z"/></g></g></svg>