<svg xmlns="http://www.w3.org/2000/svg" viewBox="0 0 149.83 10.58"><defs><style>.cls-1{fill:none;}.cls-2{fill:#f5f5f5;}</style></defs><g id="Layer_2" data-name="Layer 2"><g id="Layer_1-2" data-name="Layer 1"><path class="cls-1" d="M0,7.82a0,0,0,0,1,0,0,0,0,0,0,1,0,0s0,0,0,0A0,0,0,0,1,0,7.82Z"/><path class="cls-2" d="M11,.14a2.23,2.23,0,0,0-.48.84l-2.68,7H7.69l-2-5.12-2,5.12H3.56L.86,1A2.07,2.07,0,0,0,.34.14H1.63A1.05,1.05,0,0,0,1.6,1L3.93,7,5.61,2.58,5,1A2.21,2.21,0,0,0,4.48.14H5.76a1.08,1.08,0,0,0,0,.84L8.07,7l2.29-6A.82.82,0,0,0,10.1.14Z"/><path class="cls-2" d="M15.89,4.79H11.77a.68.68,0,0,0,0,.2c0,3.37,2.83,3.23,3.84,1.88l.11.07A2.54,2.54,0,0,1,13.47,8,2.52,2.52,0,0,1,11,5.25a2.56,2.56,0,0,1,2.67-2.68,2.16,2.16,0,0,1,2.27,2.06Zm-4.11-.16h3.37a1.72,1.72,0,0,0-1.69-1.92A2,2,0,0,0,11.78,4.63Z"/><path class="cls-2" d="M17.59,1.34A1.55,1.55,0,0,0,17.25.5l1-.5V7a1.54,1.54,0,0,0,.34.83H17.25A1.54,1.54,0,0,0,17.59,7Z"/><path class="cls-2" d="M20,5.28a2.74,2.74,0,0,1,2.77-2.71,2.15,2.15,0,0,1,1.9.8h-.78a1.39,1.39,0,0,0-1.32-.62C21.4,2.75,20.61,4,20.75,5.4a2.43,2.43,0,0,0,2.19,2.4,2.09,2.09,0,0,0,1.46-.63l.11.07A2.57,2.57,0,0,1,22.58,8,2.54,2.54,0,0,1,20,5.28Z"/><path class="cls-2" d="M25.7,5.28a2.65,2.65,0,1,1,5.29,0,2.65,2.65,0,1,1-5.29,0Zm.79,0c.18,1.39,1.1,2.5,2.18,2.5s1.7-1.11,1.52-2.5S29.08,2.77,28,2.77,26.31,3.91,26.49,5.3Z"/><path class="cls-2" d="M39.31,7.86A1.52,1.52,0,0,0,39.66,7V4.43a1.4,1.4,0,1,0-2.79.06V7a1.54,1.54,0,0,0,.34.83h-1.4A1.52,1.52,0,0,0,36.16,7V4.43a1.4,1.4,0,1,0-2.8,0V7a1.52,1.52,0,0,0,.35.83h-1.4A1.52,1.52,0,0,0,32.66,7V4a1.48,1.48,0,0,0-.35-.83l1-.5v.94a2,2,0,0,1,1.71-1.08,1.62,1.62,0,0,1,1.72,1.24,1.94,1.94,0,0,1,1.78-1.24,1.67,1.67,0,0,1,1.8,1.87V7a1.52,1.52,0,0,0,.35.83Z"/><path class="cls-2" d="M46.89,4.79H42.76a1.34,1.34,0,0,0,0,.2c0,3.37,2.83,3.23,3.84,1.88l.1.07a2.64,2.64,0,0,1-4.75-1.69,2.56,2.56,0,0,1,2.68-2.68,2.16,2.16,0,0,1,2.27,2.06Zm-4.12-.16h3.37a1.72,1.72,0,0,0-1.69-1.92A2,2,0,0,0,42.77,4.63Z"/><path class="cls-2" d="M52.07,2.9h-.38V2.73c.37,0,.92-.6.92-1.3h.17v1.3h.85V2.9h-.85V7.05c0,.65.23.76.44.76a.59.59,0,0,0,.27-.07l.06.1c-.06.1-1.48.36-1.48-.69Z"/><path class="cls-2" d="M54.71,5.28a2.65,2.65,0,1,1,5.29,0,2.65,2.65,0,1,1-5.29,0Zm.79,0a2.59,2.59,0,0,0,2.19,2.5c1.08,0,1.7-1.11,1.52-2.5S58.1,2.77,57,2.77,55.32,3.91,55.5,5.3Z"/><path class="cls-2" d="M71.81,7.86A1.52,1.52,0,0,0,72.16,7V4.43a1.4,1.4,0,1,0-2.8.06V7a1.52,1.52,0,0,0,.35.83h-1.4A1.54,1.54,0,0,0,68.65,7V4.43a1.4,1.4,0,1,0-2.79,0V7a1.52,1.52,0,0,0,.35.83H64.8A1.52,1.52,0,0,0,65.15,7V4a1.48,1.48,0,0,0-.35-.83l1.06-.5v.94a2,2,0,0,1,1.7-1.08,1.63,1.63,0,0,1,1.73,1.24,1.94,1.94,0,0,1,1.77-1.24,1.67,1.67,0,0,1,1.8,1.87V7a1.52,1.52,0,0,0,.35.83Z"/><path class="cls-2" d="M78.61,2.71a2.33,2.33,0,0,0-.48.83L75.94,9.28c-.48,1.3-.82,1.27-1.26,1.3V9.92c.66,0,1-.42,1.67-2.15l-1.7-4.23a2.06,2.06,0,0,0-.51-.83h1.28a1,1,0,0,0,0,.83l1.3,3.32L78,3.54a.8.8,0,0,0-.25-.83Z"/><path class="cls-2" d="M87.41,2.71a2.08,2.08,0,0,0-.47.82l-1.69,4.4h-.18l-1.7-4.39a1.87,1.87,0,0,0-.5-.83h1.28a1,1,0,0,0,0,.83L85.46,7l1.3-3.43a.8.8,0,0,0-.25-.83Z"/><path class="cls-2" d="M89,3.84a.78.78,0,0,0-.35-.63l1.06-.5V7a1.54,1.54,0,0,0,.34.83H88.6A1.52,1.52,0,0,0,89,7ZM88.76.89a.5.5,0,1,1,.5.5A.5.5,0,0,1,88.76.89Z"/><path class="cls-2" d="M91.89,4a1.5,1.5,0,0,0-.34-.83l1-.5v1A1.41,1.41,0,0,1,94,2.57c1.19,0,1.28.8,1.28.8h-.74a.74.74,0,0,0-.69-.49c-.76,0-1.2.81-1.2,1.62V7a1.57,1.57,0,0,0,.33.83H91.55A1.54,1.54,0,0,0,91.89,7Z"/><path class="cls-2" d="M96.7,2.9h-.38V2.73c.37,0,.92-.6.92-1.3h.17v1.3h.85V2.9h-.85V7.05c0,.65.23.76.44.76a.59.59,0,0,0,.27-.07l.06.1c-.06.1-1.48.36-1.48-.69Z"/><path class="cls-2" d="M104.05,7a1.52,1.52,0,0,0,.35.83h-1.05v-1A2,2,0,0,1,101.62,8a1.68,1.68,0,0,1-1.79-1.87V3.84a.78.78,0,0,0-.35-.63l1.06-.5V6.14a1.41,1.41,0,1,0,2.81,0V3.84a.78.78,0,0,0-.35-.63l1-.5Z"/><path class="cls-2" d="M105.67,6.73c0-1.65,3.26-2.16,3.26-2.16,0-1.19-.11-1.88-1.11-1.86a1,1,0,0,0-.92.66h-.74s.26-.8,1.82-.8c1.28,0,1.65.5,1.65,1.83V7a1.52,1.52,0,0,0,.35.83h-1V7.27A2.92,2.92,0,0,1,107.2,8C106.37,8,105.67,7.63,105.67,6.73Zm3.26-2s-2.46.61-2.46,2c0,1.8,2,.88,2.46.36Z"/><path class="cls-2" d="M111.66,1.34a1.57,1.57,0,0,0-.33-.84l1-.5V7a1.54,1.54,0,0,0,.34.83h-1.38a1.57,1.57,0,0,0,.33-.83Z"/><path class="cls-2" d="M121,6.73c0-1.14-3.46-1.18-3.46-2.71,0-1,1-1.45,1.84-1.45a2.33,2.33,0,0,1,1.93.7l-.44.58s0-1.18-1.61-1.14a1.11,1.11,0,0,0-1.22,1c0,1.23,3.57,1.07,3.57,2.62,0,1.32-1.35,1.66-2.17,1.66a2.16,2.16,0,0,1-1.95-.77l.47-.59a1.51,1.51,0,0,0,1.6,1.22C120.35,7.83,121,7.52,121,6.73Z"/><path class="cls-2" d="M123.3,4a1.5,1.5,0,0,0-.34-.83l1.05-.5v.84a2.27,2.27,0,0,1,1.93-1,2.56,2.56,0,0,1,2.52,2.71A2.61,2.61,0,0,1,125.73,8,2.46,2.46,0,0,1,124,7.27V9.74a1.53,1.53,0,0,0,.35.84H123a1.55,1.55,0,0,0,.34-.84ZM124,3.9V6A1.78,1.78,0,0,0,126,7.82c1.11,0,1.8-1.13,1.71-2.52s-.81-2.55-1.93-2.53A2,2,0,0,0,124,3.9Z"/><path class="cls-2" d="M129.64,6.73c0-1.65,3.26-2.16,3.26-2.16,0-1.19-.11-1.88-1.1-1.86a1,1,0,0,0-.93.66h-.74s.27-.8,1.82-.8c1.29,0,1.66.5,1.66,1.83V7a1.52,1.52,0,0,0,.35.83H132.9V7.27a2.92,2.92,0,0,1-1.73.73C130.35,8,129.64,7.63,129.64,6.73Zm3.26-2s-2.46.61-2.46,2c0,1.8,2,.88,2.46.36Z"/><path class="cls-2" d="M135.18,5.28A2.74,2.74,0,0,1,138,2.57a2.15,2.15,0,0,1,1.9.8h-.78a1.39,1.39,0,0,0-1.32-.62c-1.12,0-1.91,1.28-1.76,2.65a2.42,2.42,0,0,0,2.18,2.4,2.07,2.07,0,0,0,1.46-.63l.11.07a2.69,2.69,0,0,1-4.56-2Z"/><path class="cls-2" d="M145.87,4.79h-4.12a.68.68,0,0,0,0,.2c0,3.37,2.83,3.23,3.84,1.88l.11.07a2.64,2.64,0,0,1-4.75-1.69,2.56,2.56,0,0,1,2.67-2.68,2.16,2.16,0,0,1,2.27,2.06Zm-4.11-.16h3.37a1.72,1.72,0,0,0-1.69-1.92A2,2,0,0,0,141.76,4.63Z"/><path class="cls-1" d="M146.77,7.82a0,0,0,0,1,0,0,0,0,0,0,1,0,0,0,0,0,0,1,0,0S146.77,7.85,146.77,7.82Z"/><path class="cls-2" d="M147.54,7.69a.54.54,0,0,1,.54-.54.52.52,0,0,1,.54.53.54.54,0,1,1-1.08,0Zm.61-.9H148L147.72,0h.69Z"/><path class="cls-1" d="M149.75,7.82a0,0,0,0,1,.08,0,0,0,0,0,1-.08,0Z"/></g></g></svg>